<svg width="402" height="255" viewBox="0 0 402 255" fill="none" xmlns="http://www.w3.org/2000/svg">
<rect width="402" height="255" rx="20" fill="#FA9397"/>
<path d="M32.4815 106.341C32.4669 107.175 32.8254 107.91 33.1024 108.66C33.3066 109.209 33.629 109.712 33.8748 110.245C33.9796 110.476 34.0472 110.715 34.3439 110.748C34.687 110.787 35.0388 110.927 35.367 110.7C35.5391 110.579 35.7306 110.466 35.8583 110.306C35.9787 110.154 36.118 109.919 36.0779 109.768C36.0372 109.617 35.7898 109.432 35.6207 109.421C34.6723 109.354 34.3144 108.754 34.1354 107.928C33.9443 107.046 33.732 106.175 33.7906 105.253C33.8245 104.703 33.6712 104.143 33.6866 103.591C33.7334 101.974 33.8685 100.36 34.8305 98.9823C35.184 98.4788 35.6571 98.0513 36.3293 97.916C36.8349 97.8155 37.0184 97.5341 36.8056 97.1061C36.6114 96.7168 36.3049 96.334 35.9491 96.0972C35.6531 95.9014 35.2062 95.8638 34.8916 96.2294C34.7789 96.3612 34.6098 96.4598 34.5337 96.6081C34.107 97.4413 33.5454 98.1875 33.2205 99.0962C32.8234 100.202 32.6891 101.32 32.5362 102.464C32.5183 103.758 32.5041 105.05 32.4815 106.341ZM76.8745 99.8351C76.8013 98.7576 76.7113 97.6607 76.4349 96.6243C76.1417 95.5201 75.6704 94.4523 75.1792 93.4162C74.8393 92.6966 74.2517 92.0957 73.9227 91.3729C73.561 90.5812 72.7882 90.3697 72.1956 89.9112C72.0279 89.7809 71.7163 89.7899 71.4771 89.8103C70.4447 89.8954 69.4979 90.191 68.8235 91.0522C67.9063 92.2266 67.2757 93.5238 67.0907 95.0197C67.0583 95.2926 66.9327 95.5535 66.8872 95.8255C66.7955 96.3766 66.6284 96.9388 66.6819 97.4782C66.7312 97.9776 66.6738 98.4533 66.6667 98.9393C66.6565 99.6351 66.6844 100.33 66.7004 101.025C66.7016 101.094 66.7462 101.163 66.7385 101.228C66.5939 102.597 66.9178 103.936 67.0182 105.288C67.0954 106.304 67.3448 107.283 67.5587 108.273C67.8555 109.645 68.3409 110.944 68.981 112.188C69.2515 112.715 69.5666 113.22 69.8661 113.732C69.9003 113.79 69.9524 113.851 70.0125 113.877C70.6169 114.14 71.2121 114.478 71.8822 114.494C72.4812 114.51 73.024 114.289 73.5197 113.907C74.3645 113.256 75.0632 112.491 75.6154 111.581C76.1502 110.698 76.3971 109.721 76.5716 108.726C76.6978 107.999 76.7421 107.26 76.8244 106.525C77.2186 104.298 77.0266 102.064 76.8745 99.8351ZM48.0143 110.911C48.3678 110.939 48.48 110.828 48.392 110.503C48.0228 109.123 47.678 107.738 47.6683 106.296C47.0592 104.917 47.3584 103.454 47.3456 102.037C47.3377 101.015 47.6623 99.9883 47.8744 98.971C48.0236 98.2556 48.2481 97.5548 48.411 96.8392C48.507 96.4158 48.3086 96.2751 47.8736 96.3905C46.9672 96.6275 46.0892 96.981 45.1409 97.0446C44.9664 97.0572 44.7593 97.06 44.6298 97.1526C44.029 97.5785 43.2975 97.5643 42.6384 97.7853C42.2725 97.9073 41.8989 98.0041 41.5319 98.1196C41.334 98.1817 41.1423 98.3256 40.9485 98.3234C40.0534 98.3126 39.2298 98.6181 38.3808 98.8268C38.0097 98.9189 37.6297 99.0077 37.2496 99.0375C36.341 99.1087 35.7479 99.5855 35.463 100.422C35.1685 101.285 34.964 102.172 34.993 103.097C35.0197 104.038 35.0363 104.978 35.0607 105.917C35.0754 106.507 35.3621 107.049 35.3458 107.66C35.3397 107.864 35.7204 108.127 35.9772 108.272C36.2104 108.404 36.513 108.443 36.7891 108.47C37.5286 108.542 38.214 108.787 38.8931 109.064C38.9581 109.089 39.023 109.138 39.0886 109.137C40.0882 109.141 40.9952 109.532 41.9277 109.815C42.4934 109.987 43.0588 110.168 43.6358 110.293C44.4922 110.478 45.3588 110.616 46.2201 110.775C46.2236 110.754 46.2277 110.735 46.23 110.717C46.8253 110.782 47.4192 110.859 48.0143 110.911ZM48.546 105.17C48.7638 106.619 48.9417 108.084 49.3095 109.498C49.6833 110.933 50.5659 112.122 51.6501 113.134C51.8108 113.284 52.0804 113.37 52.3073 113.387C53.3151 113.464 54.302 113.677 55.3393 113.562C56.1984 113.468 57.0881 113.659 57.9642 113.73C58.4516 113.772 58.9269 113.776 59.424 113.725C60.2219 113.644 61.0412 113.674 61.8408 113.754C62.7183 113.84 63.5903 113.846 64.4679 113.819C65.5836 113.784 66.7017 113.776 67.8191 113.747C68.3384 113.734 68.4038 113.632 68.1947 113.196C67.7608 112.291 67.3028 111.396 66.9021 110.476C66.7386 110.1 66.7162 109.667 66.601 109.268C66.1034 107.556 65.7863 105.806 65.574 104.044C65.4407 102.94 65.497 101.815 65.4152 100.703C65.2643 98.653 65.5661 96.6437 65.8919 94.6351C65.9406 94.3316 66.0801 94.0448 66.1733 93.7485C66.2568 93.4817 66.3534 93.2158 66.409 92.9417C66.5464 92.2881 66.5097 92.0765 65.6833 92.1749C64.3297 92.3349 63.011 92.6874 61.6417 92.7665C61.0204 92.8036 60.4048 92.9147 59.7687 92.8804C59.3976 92.8592 59.0189 93.0137 58.6402 93.0745C57.3307 93.2852 55.9936 93.3211 54.7051 93.6791C54.5386 93.7247 54.3502 93.7435 54.1809 93.7181C53.2345 93.5771 52.4016 94.0499 51.5198 94.2351C51.1605 94.3108 50.7458 94.6713 50.5804 95.0123C50.1527 95.8842 49.8733 96.8294 49.4902 97.7252C48.9436 99.0038 48.781 100.356 48.5985 102.093C48.5313 102.865 48.3723 104.018 48.546 105.17ZM77.4988 109.743C77.4737 109.946 77.3861 110.144 77.3153 110.339C76.7867 111.768 75.9454 113.004 74.8964 114.089C74.2602 114.745 73.4637 115.175 72.5662 115.435C71.6597 115.698 70.8585 115.389 70.0456 115.114C69.4876 114.925 68.9775 114.706 68.3334 114.814C67.6892 114.922 66.9985 114.721 66.3424 114.789C65.7124 114.856 65.0915 114.898 64.4624 114.848C62.7564 114.714 61.0504 114.671 59.3389 114.765C58.4691 114.812 57.5947 114.788 56.7228 114.759C56.3032 114.747 55.8649 114.54 55.4763 114.619C54.8399 114.75 54.2158 114.668 53.5934 114.656C52.175 114.628 50.8799 114.212 50.027 113.001C49.68 112.507 49.2688 112.312 48.7313 112.249C47.8214 112.144 46.9122 112.041 46.0015 111.943C44.753 111.81 43.5656 111.401 42.3495 111.128C40.9893 110.822 39.6412 110.465 38.2924 110.116C37.8611 110.003 37.5701 110.135 37.3014 110.48C36.8166 111.099 36.1724 111.499 35.4156 111.716C34.2656 112.047 33.4038 111.71 32.776 110.672C32.4898 110.198 32.1657 109.737 31.9484 109.23C31.589 108.394 31.2405 107.555 31.3032 106.594C31.349 105.905 31.2133 105.205 31.2377 104.514C31.2722 103.538 31.4156 102.57 31.3226 101.586C31.2621 100.95 31.5439 100.359 31.7264 99.7601C32.0939 98.5507 32.5934 97.4056 33.3021 96.3556C33.6444 95.8446 34.1186 95.4917 34.6518 95.2262C35.6209 94.7445 36.4914 94.9372 37.1687 95.7719C37.4984 96.1792 37.8054 96.6121 38.0628 97.067C38.2463 97.3886 38.4308 97.5385 38.8141 97.4575C39.6299 97.2884 40.465 97.1962 41.2728 96.9912C42.7592 96.6134 44.2335 96.1792 45.7108 95.7648C46.7457 95.474 47.783 95.1844 48.8108 94.8731C49.1114 94.7827 49.3723 94.6197 49.5037 94.2802C49.6018 94.0227 49.7611 93.7753 49.9426 93.5684C50.0693 93.4244 50.2719 93.2998 50.4602 93.2613C51.4069 93.0594 52.358 92.8718 53.3143 92.7113C54.4473 92.5227 55.5821 92.3109 56.7247 92.212C58.1495 92.0885 59.5409 91.6479 60.99 91.7762C61.0227 91.78 61.0568 91.7529 61.0909 91.7484C62.3355 91.5604 63.5775 91.3574 64.8244 91.1904C66.2618 90.998 67.5931 90.6447 68.7345 89.6308C69.3454 89.0894 70.2268 88.8994 71.0493 88.7234C71.1807 88.6953 71.3289 88.7291 71.4693 88.7435C71.8886 88.7876 72.3074 88.8554 72.7279 88.8774C73.1854 88.901 73.5323 89.0862 73.8017 89.4507C74.568 90.4841 75.4165 91.4344 75.9699 92.6428C76.6402 94.0994 77.4049 95.4841 77.6224 97.1177C77.7177 97.8367 77.8638 98.551 77.9027 99.2822C77.9565 100.328 78.0311 101.375 78.1027 102.421C78.1269 102.766 78.2237 103.114 78.1949 103.454C78.1054 104.505 77.9706 105.553 77.8543 106.601C77.738 107.648 77.6282 108.697 77.4988 109.743Z" fill="#AD0007"/>
<path d="M62.5231 94.2407C62.2619 94.26 61.8788 94.2868 61.4968 94.3171C61.079 94.3495 60.6539 94.452 60.2472 94.4042C59.4605 94.3121 58.7222 94.4833 57.9738 94.6565C57.67 94.7271 57.3509 94.7275 57.0419 94.7741C56.7394 94.8197 56.6145 95.0538 56.6784 95.4068C56.729 95.6772 56.9362 95.7364 57.1492 95.7111C58.6075 95.539 60.0698 95.4838 61.5367 95.4795C62.0557 95.4785 62.577 95.4364 63.0967 95.4055C63.4104 95.3871 63.6052 95.2175 63.6067 94.9855C63.6102 94.6761 63.4405 94.4192 63.1673 94.3504C62.9973 94.3065 62.8218 94.2899 62.5231 94.2407Z" fill="#AD0007"/>
<path d="M50.6764 97.2565C50.7004 97.3192 50.7291 97.4493 50.8023 97.5444C50.8219 97.5699 51.0064 97.5188 51.0666 97.4542C51.3747 97.129 51.7812 97.0755 52.1879 96.9903C52.4129 96.9426 52.6955 96.8548 52.8097 96.689C52.9252 96.5209 52.9336 96.205 52.8573 96.0025C52.8077 95.8747 52.5203 95.7788 52.335 95.772C51.5853 95.7466 50.774 96.4622 50.6764 97.2565Z" fill="#AD0007"/>
<path d="M54.9648 95.5936C55.0686 95.5069 55.2484 95.4079 55.3544 95.2574C55.554 94.9741 55.2 94.853 55.1048 94.6632C55.0636 94.5792 54.8087 94.5867 54.6472 94.5806C54.5995 94.5793 54.5305 94.6604 54.5015 94.7174C54.364 94.9977 54.5851 95.4952 54.9648 95.5936Z" fill="#AD0007"/>
<path d="M39.1024 100.722C39.1849 100.76 39.2671 100.83 39.3471 100.827C40.1836 100.798 41.0206 100.793 41.8502 100.643C43.0519 100.428 44.2599 100.246 45.4626 100.04C45.6639 100.005 45.8788 99.9567 46.0504 99.8534C46.4468 99.6176 46.5463 99.2641 46.1669 98.9104C46.0348 98.787 45.9406 98.7171 45.7245 98.768C44.7075 99.011 43.6807 99.2185 42.6578 99.4387C42.08 99.564 41.4968 99.6713 40.9272 99.8266C40.6514 99.9016 40.3594 100.222 40.148 100.165C39.6986 100.041 39.5073 100.368 39.213 100.512C39.1658 100.535 39.1515 100.624 39.1024 100.722Z" fill="#AD0007"/>
<path d="M74.7398 102.154C74.6418 100.845 74.7407 99.5108 74.2651 98.2245C74.0194 97.5552 74.0519 96.7836 73.9556 96.0581C73.8061 94.9369 73.4097 93.9015 72.7402 92.9954C71.9585 91.9371 70.8743 92.1957 70.3002 93.251C70.1008 93.6161 69.8732 93.9632 69.6655 94.3238C69.5973 94.4431 69.5075 94.566 69.4855 94.6978C69.2516 96.039 68.7579 97.3459 68.9204 98.743C68.9331 98.8466 68.929 98.9562 68.9107 99.0583C68.6636 100.424 69.0118 101.768 69.0466 103.121C69.0785 104.384 69.2242 105.625 69.4334 106.858C69.7028 108.449 70.1517 109.997 70.9427 111.423C70.9933 111.515 71.0384 111.612 71.0951 111.701C71.6508 112.58 72.7026 112.597 73.204 111.669C73.5121 111.098 73.8296 110.514 73.942 109.834C74.1407 108.629 74.5993 107.473 74.6719 106.23C74.7041 104.87 74.8415 103.503 74.7398 102.154ZM75.3813 108.565C75.2857 109.375 74.9299 110.098 74.7108 110.865C74.5858 111.301 74.4561 111.778 74.1799 112.115C73.5905 112.831 72.8823 113.348 71.8296 113.23C70.7687 113.111 70.0391 112.578 69.6957 111.636C69.1693 110.195 68.6728 108.733 68.3303 107.243C67.9802 105.724 67.7533 104.173 67.7662 102.598C67.7741 101.657 67.7116 100.716 67.6938 99.775C67.6793 99.0463 67.6405 98.3121 67.695 97.5871C67.7936 96.2899 68.2958 95.0859 68.6611 93.8526C68.98 92.7683 69.6661 91.9844 70.7528 91.5202C71.3356 91.2721 71.8493 91.2698 72.3621 91.5435C73.4901 92.1428 74.1556 93.1328 74.6148 94.297C75.0299 95.3454 75.0841 96.4641 75.3152 97.5487C75.533 98.5704 75.7322 99.5957 75.6334 100.658C75.6023 100.997 75.7206 101.347 75.7501 101.694C75.7801 102.043 75.7988 102.39 75.7996 102.739C75.8008 102.983 75.7129 103.239 75.7555 103.473C75.9222 104.378 75.8856 105.279 75.814 106.192C75.6652 106.983 75.4754 107.769 75.3813 108.565Z" fill="#AD0007"/>
<path d="M70.8242 98.4611C70.8943 98.8054 70.9132 99.1268 71.0279 99.4102C71.2313 99.9209 71.5023 100.404 71.7275 100.905C72.0405 101.604 72.3504 102.306 72.6368 103.016C72.7649 103.333 73.0262 103.399 73.2987 103.446C73.5392 103.488 73.7718 103.245 73.7305 103.002C73.6749 102.696 73.6455 102.366 73.5097 102.094C72.8856 100.851 72.224 99.6271 71.5872 98.3908C71.4993 98.2215 71.4124 98.0557 71.2112 98.1327C71.0683 98.1879 70.9623 98.3384 70.8242 98.4611Z" fill="#AD0007"/>
<path d="M70.9439 103.886C70.8882 104.585 71.2975 105.228 71.6843 105.865C71.8585 106.153 72.2977 106.081 72.4411 105.761C72.5767 105.462 72.5573 105.164 72.3899 104.866C72.1181 104.387 71.8791 103.889 71.6025 103.414C71.5473 103.316 71.3871 103.217 71.2848 103.228C71.1898 103.236 71.087 103.374 71.0252 103.479C70.9746 103.562 70.9817 103.679 70.9439 103.886Z" fill="#AD0007"/>
<path d="M322.28 38.0297C322.272 38.0803 322.266 38.1309 322.258 38.1787C322.036 38.1787 321.814 38.1759 321.592 38.1787C319.85 38.204 319.569 38.367 318.97 39.9519C318.79 40.4296 318.757 40.9608 318.644 41.4638C318.546 41.8966 318.669 42.1157 319.144 42.2113C321.227 42.6244 323.326 42.9981 325.377 43.5377C326.867 43.9311 328.289 44.5718 329.744 45.0805C331.914 45.8395 333.875 46.9855 335.8 48.2029C336.171 48.4356 336.542 48.6694 336.919 48.8945C337.863 49.4475 338.866 49.9143 339.74 50.5629C341.204 51.6563 342.584 52.867 344.003 54.0231C344.456 54.3906 345.006 54.2305 345.242 53.6628C345.849 52.1931 345.757 50.8726 344.782 49.5004C343.273 47.3871 341.435 45.6288 339.437 44.021C336.843 41.9359 334.089 40.1205 330.787 39.3477C329.86 39.1313 328.907 39.0133 327.965 38.8672C326.071 38.5833 324.177 38.3079 322.28 38.0297ZM319.653 44.4145C317.717 44.4032 317.557 44.5297 317.059 46.1568C316.913 46.643 316.702 47.1094 316.562 47.5979C316.357 48.2951 316.649 48.8175 317.337 48.8768C319.807 49.0822 321.789 50.3808 323.638 51.8308C327.704 55.0229 331.759 58.2294 335.573 61.7247C336.604 62.6666 337.773 63.4535 338.894 64.2878C339.538 64.7653 339.527 64.7203 340.049 63.9849C341.499 61.9498 342.132 59.5139 343.36 57.3689C343.461 57.1955 343.396 56.7653 343.253 56.6335C341.727 55.2447 340.263 53.7606 338.594 52.573C336.68 51.2095 334.626 50.0152 332.535 48.9327C330.379 47.8207 328.126 46.8843 325.877 45.9623C323.801 45.1086 321.64 44.5156 319.653 44.4145ZM321.086 55.7848C321.086 55.3655 321.047 54.9164 321.095 54.4775C321.229 53.2239 320.544 52.5859 319.479 52.1591C317.343 51.2994 315.089 50.8296 312.844 50.4926C310.306 50.1073 307.769 49.52 305.166 49.6926C305.023 49.7002 304.874 49.6243 304.731 49.6046C302.606 49.3598 300.476 48.8571 298.363 48.9251C295.064 49.035 291.897 48.2554 288.682 47.8822C286.498 47.6299 284.309 47.5728 282.14 47.3059C281.325 47.205 280.943 47.5596 280.749 48.3487C280.271 50.2709 279.619 52.1534 279.217 54.0866C278.579 57.1218 278.163 60.1987 278.293 63.3186C278.304 63.6896 278.273 64.0661 278.324 64.4317C278.43 65.2068 278.818 65.5721 279.642 65.6314C280.816 65.7126 281.96 65.884 283.12 66.1572C286.049 66.8476 289.05 67.1969 291.987 67.9135C294.62 68.5568 297.326 68.905 299.99 69.4274C301.072 69.6415 302.126 69.9818 303.196 70.2595C304.972 70.7206 306.754 71.1562 308.527 71.6339C310.809 72.2463 313.077 72.9016 315.359 73.5199C316.171 73.7382 316.354 73.5901 316.511 72.7743C316.699 71.7688 316.876 70.76 317.129 69.7654C317.326 68.9873 317.686 68.2474 317.871 67.467C318.245 65.8894 318.52 64.2935 318.897 62.7203C318.995 62.3131 319.268 61.9189 319.538 61.5842C319.917 61.1264 320.409 61.1517 320.909 61.5313C321.46 61.9475 321.544 62.4668 321.387 63.1045C320.665 66.0223 319.962 68.9443 319.248 71.861C319.111 72.4298 318.917 72.9851 318.841 73.5592C318.773 74.1181 319.021 74.5284 319.622 74.7305C320.946 75.1829 322.244 75.7141 323.573 76.1665C324.751 76.5658 325.962 76.8668 327.136 77.2796C328.87 77.8866 330.568 78.5892 332.299 79.1905C334.864 80.0786 337.455 80.8932 340.024 81.779C341.069 82.1381 342.07 82.6299 343.115 82.979C345.138 83.6585 347.201 84.1952 349.149 85.0919C350.554 85.7408 352.026 86.25 353.471 86.798C354.196 87.0734 354.589 86.9714 354.893 86.205C355.289 85.2071 355.592 84.1556 355.783 83.0995C355.997 81.8998 355.798 80.7561 354.758 79.9074C354.021 79.3004 353.35 78.6032 352.583 78.0434C350.04 76.1915 347.572 74.2365 344.973 72.454C343.514 71.4572 342.16 70.3044 340.794 69.1781C340.001 68.5284 339.335 67.7281 338.518 67.1211C336.157 65.3703 333.858 63.5207 331.81 61.438C329.573 59.168 326.914 57.4425 324.573 55.3205C324.169 54.9527 323.75 55.1294 323.601 55.6718C323.421 56.3094 323.298 56.9704 323.059 57.583C322.848 58.1307 322.238 58.3139 321.547 58.1703C320.957 58.0461 320.965 57.5721 320.968 57.1396C320.974 56.695 321.041 56.2535 321.086 55.7848ZM220.228 61.8014C218.753 61.8014 217.275 61.7421 215.802 61.8202C214.594 61.8882 214.226 62.3131 214.175 63.4897C214.015 67.2045 214.313 70.8721 215.37 74.4551C216.41 77.9852 217.446 81.5145 218.511 85.036C219 86.6518 219.346 88.3546 220.116 89.8265C221.507 92.483 222.794 95.1945 224.236 97.8223C224.907 99.042 225.607 100.264 226.428 101.386C228.777 104.594 231.267 107.694 234.046 110.549C234.766 111.288 235.505 112.01 236.261 112.713C236.907 113.309 237.702 113.778 238.239 114.461C239.563 116.139 241.052 117.009 243.182 116.001C243.37 115.914 243.623 115.976 243.845 115.959C245.026 115.86 246.251 115.934 247.369 115.619C248.988 115.158 250.649 114.694 252.175 114.048C256.129 112.373 259.762 110.13 262.471 106.651C262.825 106.199 263.3 105.803 263.792 105.505C264.542 105.059 265.256 105.289 265.591 106.134C266.361 108.074 267.589 109.703 268.746 111.414C269.932 113.168 271.337 114.624 273.004 115.835C274.412 116.856 275.82 117.926 277.694 118.114C280.633 118.413 283.399 117.96 286.116 116.766C288.168 115.863 289.654 114.518 290.697 112.542C291.343 111.313 292.147 110.142 293.021 109.058C294.114 107.691 295.117 107.815 295.941 109.285C296.157 109.672 296.357 110.072 296.514 110.488C297.41 112.819 299.08 114.585 300.794 116.307C301.153 116.67 301.592 117.022 302.061 117.19C303.716 117.794 305.371 118.449 307.086 118.836C309.272 119.337 311.529 119.393 313.594 118.337C314.687 117.775 315.69 116.998 316.64 116.206C318.467 114.68 319.875 112.877 320.226 110.4C320.431 108.973 321.884 108.074 323.306 108.276C324.565 108.458 325.211 109.094 325.532 110.35C325.951 111.988 326.687 113.567 327.786 114.841C329.23 116.516 330.826 118.098 332.9 119.025C335.359 120.124 337.776 120.843 340.549 119.769C344.63 118.196 347.952 114.939 349.247 110.755C349.376 110.335 349.548 109.912 349.775 109.541C350.335 108.629 351.596 108.661 352.096 109.588C352.408 110.173 352.656 110.789 352.925 111.395C354.598 115.163 355.68 116.411 358.835 118.216C359.645 118.679 360.651 118.676 360.988 118.007C361.823 116.363 363.157 115.062 363.871 113.317C365.231 109.984 366.673 106.669 368.342 103.485C369.047 102.139 369.104 100.532 370.222 99.3396C370.559 98.9827 370.41 98.0354 370.256 97.4118C370.188 97.1308 369.584 96.954 369.199 96.7761C367.668 96.0626 366.136 95.3491 364.591 94.6665C362.98 93.955 361.339 93.3008 359.732 92.5785C358.467 92.0078 357.25 91.3193 355.977 90.7685C353.423 89.6607 350.728 88.8803 348.311 87.4466C348.067 87.3038 347.763 87.2611 347.491 87.1602C346.664 86.8539 345.793 86.6266 345.023 86.216C344.234 85.7945 343.447 85.5278 342.573 85.3137C340.358 84.7747 338.178 84.08 336.019 83.3412C332.051 81.9811 328.106 80.5563 324.158 79.1369C321.665 78.2432 319.113 77.532 316.609 76.6976C313.265 75.5845 309.834 74.8207 306.468 73.8149C304.565 73.2442 302.567 72.9828 300.69 72.3474C298.369 71.5637 295.969 71.2574 293.588 70.7996C291.857 70.468 290.123 70.142 288.395 69.7983C286.302 69.3889 284.211 68.9477 282.114 68.5537C281.322 68.4053 280.499 68.4163 279.712 68.2331C277.267 67.6657 274.833 67.0531 272.315 66.9235C271.944 66.905 271.514 66.9806 271.217 66.8204C269.589 65.952 267.754 66.1794 266.034 65.8565C263.073 65.2967 260.043 65.1143 257.042 64.7796C256.308 64.6984 255.569 64.6568 254.836 64.5689C252.062 64.2406 249.303 63.7435 246.523 63.605C243.663 63.4625 240.836 63.0429 237.958 63.0266C235.482 63.0123 233.018 62.2791 230.531 62.065C227.108 61.773 223.682 61.3152 220.228 61.8014ZM276.151 61.3206C276.075 58.0385 276.708 54.8968 277.896 51.8308C278.444 50.4114 278.7 48.8745 279.105 47.3927C279.259 46.8251 279.403 46.2467 279.644 45.7153C280.237 44.4173 280.723 44.1138 282.075 44.5887C283.432 45.0608 284.79 45.1283 286.189 45.2013C289.351 45.3699 292.476 45.8305 295.592 46.4156C297.107 46.6966 298.692 46.5946 300.248 46.6486C301.28 46.6826 302.278 46.868 303.295 47.0611C304.956 47.3795 306.676 47.3817 308.37 47.531C309.829 47.6571 311.309 47.4301 312.754 47.9722C313.476 48.2445 314.032 47.8789 314.117 47.239C314.446 44.6393 315.752 42.349 316.373 39.8536C316.618 38.87 317.157 38.1281 317.75 37.3609C318.287 36.6668 318.928 36.2565 319.785 36.1609C320.372 36.0991 320.962 35.9895 321.547 36.0008C324.36 36.0598 327.134 36.411 329.876 37.0405C331.883 37.5014 333.881 37.9482 335.758 38.8559C337.349 39.6259 338.976 40.2947 340.153 41.6914C340.294 41.8572 340.474 42.0005 340.667 42.1073C344.326 44.0801 346.44 47.4607 348.662 50.7649C349.165 51.5125 349.135 52.1678 348.735 52.8197C346.802 55.9702 345.394 59.3756 343.804 62.695C343.295 63.7545 342.609 64.7203 342.025 65.7435C341.679 66.3505 341.78 66.7841 342.342 67.2812C345.498 70.0487 348.879 72.5163 352.304 74.9303C353.988 76.1193 355.71 77.274 357.175 78.7637C357.95 79.5528 358.377 80.3992 358.313 81.5289C358.203 83.5014 358.293 85.4938 356.888 87.1546C356.478 87.641 356.646 88.0373 357.326 88.3633C359.648 89.4786 361.974 90.5884 364.324 91.6422C367.201 92.9374 370.104 94.1801 372.993 95.4534C373.26 95.5708 373.51 95.7423 373.738 95.9277C374.378 96.4426 374.544 97.1145 374.005 97.6644C371.965 99.7445 371.498 102.56 370.408 105.086C369.972 106.095 369.41 107.053 368.949 108.051C367.755 110.656 366.608 113.281 365.391 115.874C364.987 116.732 364.394 117.505 363.939 118.342C363.475 119.193 363.691 119.556 364.591 119.708C367.027 120.121 369.461 120.034 371.886 119.663C372.532 119.564 373.153 119.303 373.777 119.084C374.331 118.89 374.856 118.58 375.424 118.454C375.733 118.382 376.253 118.471 376.41 118.69C376.553 118.89 376.466 119.455 376.273 119.677C375.3 120.784 374.258 121.644 372.698 122.085C369.388 123.021 366.142 122.995 362.84 122.299C362.624 122.251 362.407 122.152 362.196 122.161C360.077 122.266 358.383 121.174 356.7 120.138C354.89 119.027 353.136 117.82 352.018 115.908C351.759 115.473 351.312 115.152 350.995 114.745C350.666 114.329 350.382 114.43 350.118 114.765C349.806 115.172 349.567 115.639 349.23 116.018C348.407 116.959 347.679 118.069 346.667 118.746C344.905 119.927 343.278 121.307 341.224 122.091C338.894 122.984 336.59 122.984 334.255 122.504C332.436 122.133 330.719 121.459 329.41 120.014C329.073 119.64 328.623 119.351 328.173 119.106C325.967 117.903 324.768 115.961 324.059 113.641C324.037 113.57 324.056 113.48 324.02 113.421C323.68 112.862 323.331 112.311 322.986 111.755C322.584 112.255 322.087 112.713 321.8 113.273C319.771 117.238 316.98 119.48 312.796 121.293C310.691 122.203 308.547 121.852 306.476 121.444C304.478 121.048 302.483 120.41 300.636 119.556C299.408 118.991 298.354 117.954 297.391 116.962C296.581 116.134 296.002 115.077 295.353 114.104C295.154 113.801 295.103 113.405 294.912 113.095C294.235 112.019 293.636 112.016 293.06 113.151C291.472 116.271 288.831 118.229 285.728 119.514C284.191 120.151 282.426 120.236 280.763 120.562C280.128 120.686 279.422 121.026 278.863 120.866C277.312 120.425 275.629 120.592 274.167 119.73C272.45 118.719 270.683 117.78 269.32 116.299C267.417 114.234 265.689 112.021 264.174 109.653C263.663 108.855 263.581 108.849 262.904 109.498C261.524 110.827 260.139 112.142 258.545 113.225C256.41 114.675 254.221 116.004 251.658 116.597C251.172 116.709 250.744 117.038 250.269 117.215C248.744 117.794 247.178 118.081 245.529 118.213C243.483 118.373 241.462 119.047 239.386 118.766C236.556 118.379 233.633 118.429 230.93 117.431C229.005 116.723 227.203 115.687 225.363 114.77C224.972 114.576 224.61 114.302 224.295 114.003C223.851 113.581 223.899 112.958 224.323 112.401C224.657 111.965 225.037 112.014 225.498 112.18C227.501 112.913 229.235 114.245 231.32 114.79C232.593 115.122 233.88 115.394 235.167 115.673C235.294 115.7 235.564 115.602 235.564 115.557C235.569 115.377 235.555 115.133 235.44 115.015C233.762 113.261 232.04 111.547 230.382 109.777C229.199 108.514 228.007 107.253 227.161 105.721C227.091 105.598 226.962 105.505 226.855 105.405C225.141 103.746 224.107 101.629 222.909 99.6237C222.241 98.4996 221.715 97.2856 220.979 96.2087C219.296 93.7476 218.433 90.934 217.382 88.1997C217.278 87.9274 217.326 87.5905 217.191 87.3423C215.51 84.1986 214.861 80.6999 213.849 77.3355C213.24 75.3035 213.282 73.0753 212.666 71.0432C211.879 68.4438 212.017 65.8281 212 63.2C211.986 61.4304 212.475 60.9266 214.046 60.1911C216.277 59.1517 218.694 59.5588 220.999 59.1317C222.794 59.7915 224.657 59.0999 226.484 59.3877C227.72 59.5785 228.996 59.5336 230.253 59.5951C230.475 59.6061 230.722 59.5732 230.913 59.6567C232.956 60.5171 235.142 60.2417 237.261 60.4578C240.338 60.7751 243.472 60.7226 246.498 61.2812C249.435 61.8202 252.408 61.5479 255.314 62.0956C257.5 62.5062 259.751 62.414 261.904 62.7906C264.874 63.3076 267.923 63.2174 270.848 64.0717C272.251 64.482 273.737 64.6085 275.19 64.8423C275.859 64.9488 276.132 64.704 276.146 63.9925C276.165 63.1022 276.151 62.2108 276.151 61.3206Z" fill="#AD0007"/>
<path d="M234.502 71.8304C234.471 73.5022 235.432 74.5616 236.972 74.545C238.256 74.5341 240.361 72.6066 240.215 71.4485C240.133 70.8249 239.869 70.0465 239.414 69.7008C238.821 69.2563 237.967 69.0376 237.202 68.9643C235.842 68.8347 234.535 70.3078 234.502 71.8304ZM238.219 88.259C238.219 89.8133 238.18 91.3665 238.231 92.9177C238.267 94.1374 238.745 94.4217 239.937 94.0615C242.904 93.1659 245.411 91.5379 247.521 89.2932C247.962 88.8211 247.909 88.5344 247.263 88.3546C246.729 88.1997 246.31 87.989 246.015 87.5346C245.591 86.8683 245.748 86.148 246.518 85.9603C247.724 85.6649 248.968 85.4092 250.199 85.3873C251.419 85.3676 252.661 86.4324 252.602 88.2753C252.591 88.6443 252.515 89.0099 252.447 89.3744C252.256 90.4512 252.096 90.7145 251.051 90.6893C249.924 90.6586 249.325 91.1482 248.735 92.0384C248.311 92.6817 247.589 93.1681 246.917 93.5984C246.116 94.1065 245.133 94.3568 244.399 94.9355C243.005 96.043 241.277 96.2824 239.698 96.807C238.338 97.2626 236.71 97.2406 235.336 96.5797C232.953 95.4393 230.466 94.4611 228.342 92.8256C227.229 91.9716 226.116 91.1032 225.427 89.8209C225.026 89.0712 224.444 88.6322 223.545 88.4664C222.314 88.2371 221.845 87.326 222.215 86.193C222.376 85.7012 222.612 85.2347 222.837 84.7682C223.177 84.0634 223.71 83.7088 224.43 83.9648C225.801 84.4566 227.136 85.0526 228.446 85.6849C228.662 85.7891 228.769 86.3203 228.749 86.6398C228.738 86.8199 228.381 87.0163 228.145 87.1293C227.667 87.351 226.821 86.8199 226.703 87.6321C226.647 88.0173 227.192 88.4785 227.42 88.9276C228.193 90.4532 229.497 91.3446 230.986 92.0781C232.166 92.6598 233.279 93.391 234.445 94.0143C234.743 94.1747 235.165 94.3152 235.457 94.225C235.747 94.1407 236.185 93.7049 236.143 93.5084C235.468 90.2096 236.039 86.8879 235.879 83.5826C235.808 82.1578 235.693 82.0536 234.257 81.8065C233.897 81.7473 233.521 81.6804 233.198 81.5233C232.681 81.2785 232.377 80.5397 232.52 80.0105C232.672 79.4553 233.167 79.4716 233.594 79.4289C233.959 79.3904 234.336 79.3707 234.701 79.4123C235.255 79.4772 235.527 79.1565 235.71 78.735C235.912 78.2598 236.072 77.7692 236.233 77.2796C236.376 76.8468 236.168 76.4925 235.78 76.42C234.128 76.1193 233.518 74.6746 232.993 73.489C231.483 70.074 234.296 66.7071 237.531 67.2189C238.503 67.3737 239.521 67.231 240.428 67.9608C241.167 68.5568 241.701 69.1641 241.909 70.0684C242.008 70.4989 241.968 70.9927 242.171 71.3616C242.997 72.8766 242.168 73.8984 241.17 74.8294C240.583 75.3738 239.875 75.7953 239.195 76.2311C238.835 76.4596 238.276 76.4706 238.262 77.0402C238.248 77.7042 238.222 78.3837 238.349 79.0247C238.436 79.4628 239.965 79.8175 240.636 79.6539C241.656 79.3982 242.162 79.5671 242.511 80.2753C242.853 80.9744 242.522 81.7057 241.763 81.7616C240.808 81.8296 239.844 81.779 238.883 81.8065C238.475 81.8175 238.208 82.0404 238.194 82.4925C238.169 83.3049 238.101 84.1193 238.113 84.9284C238.13 86.0392 238.205 87.1493 238.253 88.2556C238.242 88.259 238.231 88.259 238.219 88.259Z" fill="#AD0007"/>
<path d="M265.475 85.6815C267.167 85.955 269.328 84.3894 269.795 82.8714C270.18 81.6354 269.337 78.6878 268.345 77.7428C268.08 77.4904 267.819 77.1951 267.502 77.0402C264.86 75.77 261.212 77.8776 260.931 80.8207C260.687 83.3575 262.834 85.6563 265.475 85.6815ZM265.411 74.5616C268.971 73.9555 272.091 77.9853 272.338 81.2302C272.478 83.0602 272.282 84.7946 270.517 85.8988C269.072 88.3206 266.807 88.1548 264.492 87.7836C261.862 87.362 260.161 85.6399 258.961 83.4477C258.576 82.7452 258.619 81.7088 258.725 80.8604C259.018 78.5529 260.333 76.8042 262.089 75.3684C263.073 74.5616 264.256 74.4804 265.411 74.5616Z" fill="#AD0007"/>
<path d="M318.981 96.0716C320.094 96.1188 320.954 95.5346 321.67 94.9694C322.398 94.3964 323.064 93.5247 322.718 92.4599C322.288 91.1285 321.457 90.091 319.962 89.9001C319.155 89.799 318.329 89.8012 317.52 89.8802C316.533 89.9704 315.333 91.0835 315.139 91.9594C314.884 93.1099 315.347 94.5479 316.322 95.0703C317.149 95.5149 318.09 95.7453 318.981 96.0716ZM312.638 92.5729C312.295 89.4839 315.831 85.9625 320.015 87.1965C320.647 87.3819 321.271 87.6048 321.864 87.8824C324.07 88.9132 325.107 90.7882 325.447 93.09C325.602 94.1461 325.217 95.0771 324.52 95.9111C322.019 98.9015 318.129 98.8312 315.727 97.3362C314.76 96.7379 313.807 96.1581 313.228 95.0088C312.801 94.1657 312.596 93.3985 312.638 92.5729Z" fill="#AD0007"/>
<path d="M293.478 82.5342V82.5373C293.037 82.5373 292.576 82.464 292.152 82.5517C291.185 82.756 290.241 83.2258 289.946 84.1675C289.269 86.339 290.429 88.3685 292.576 89.0733C294.926 89.8461 296.755 88.6155 296.89 86.1599C296.91 85.789 296.91 85.42 296.887 85.0524C296.792 83.5571 296.089 82.7756 294.586 82.543C294.223 82.4893 293.849 82.5342 293.478 82.5342ZM292.883 79.8842C293.945 80.129 295.004 80.3794 296.067 80.6154C299.52 81.3739 300.779 86.7296 298.675 89.6277C297.55 91.1733 295.772 91.5805 293.97 91.5752C291.121 91.5608 289.013 90.2173 287.937 87.5707C287.324 86.0666 287.302 84.532 288.049 82.9029C289.044 80.7383 290.368 79.5439 292.883 79.8842Z" fill="#AD0007"/>
<path d="M299.56 57.1868C299.56 56.5073 299.563 56.2822 299.557 56.0605C299.554 55.9166 299.585 55.7365 299.515 55.6269C299.369 55.3995 299.147 55.0199 298.998 55.0373C298.686 55.0769 298.216 55.2734 298.141 55.5117C297.893 56.2645 297.787 57.0626 297.646 57.8498C297.379 59.3591 297.112 60.8685 296.879 62.3834C296.797 62.8915 297.261 63.2967 297.862 63.3099C298.363 63.322 298.734 63.1132 298.787 62.5874C298.922 61.3459 298.989 60.0956 299.155 58.8586C299.251 58.1482 299.49 57.4535 299.56 57.1868ZM291.573 62.6951C292.683 62.6951 293.346 62.7204 294.007 62.6864C294.802 62.6414 294.864 62.4919 294.777 61.5963C294.721 61.0146 294.561 60.3427 294.777 59.8565C295.215 58.8617 295.111 57.8354 295.263 56.8299C295.367 56.124 295.71 55.3259 295.496 54.731C295.159 53.798 294.058 54.3261 293.318 54.0703C291.174 53.3259 288.965 52.8541 286.686 52.7585C285.5 52.7046 285.16 52.8813 285.037 53.9891C284.851 55.6609 284.32 57.293 284.506 59.0101C284.596 59.8059 284.233 60.7729 284.573 61.3878C285.054 62.2505 286.195 61.6688 287.029 61.8467C287.175 61.8773 287.319 61.8992 287.465 61.9279C288.974 62.2089 290.483 62.4899 291.573 62.6951ZM313.482 58.6422C313.58 56.8662 313.403 56.6411 311.953 56.3997C311.228 56.2789 310.441 56.3348 309.781 56.0658C307.681 55.2197 305.382 55.852 303.286 55.0932C303.16 55.0449 302.997 55.1098 302.848 55.1098C302.221 55.1098 301.892 55.4052 301.906 56.0462C301.949 57.8222 301.738 59.5533 301.142 61.245C300.956 61.7784 301.01 62.4107 301.018 62.9958C301.035 63.886 301.145 64.0069 302.066 64.0299C304.132 64.0914 306.172 64.2516 308.167 64.8423C309.002 65.086 309.876 65.2099 310.733 65.3614C311.194 65.4426 311.599 65.39 311.731 64.7993C311.823 64.3725 312.026 63.974 312.144 63.5491C312.63 61.7874 313.105 60.0254 313.482 58.6422ZM316.134 57.2734C315.999 57.9343 315.879 58.7324 315.682 59.5052C315.114 61.6994 314.496 63.886 313.945 66.0839C313.819 66.5866 313.594 66.8258 313.102 66.95C312.464 67.1158 311.86 67.4044 311.219 67.5679C310.896 67.6491 310.525 67.6008 310.185 67.5536C308.727 67.3538 307.268 67.1408 305.812 66.9179C303.64 66.5866 301.476 66.21 299.296 65.9214C297.981 65.7489 296.646 65.7489 295.328 65.5974C294.383 65.4878 293.453 65.2571 292.52 65.075C292.374 65.0464 292.234 64.9258 292.104 64.9432C289.634 65.2439 287.307 64.1255 284.854 64.2429C284.562 64.2604 284.264 64.2603 283.969 64.2353C282.741 64.1167 281.962 63.2065 282.044 62.0001C282.145 60.5281 282.173 59.0474 282.376 57.5884C282.561 56.2173 282.921 54.8662 283.221 53.5083C283.382 52.7948 283.553 52.0813 283.764 51.3807C284.16 50.0568 284.823 49.7649 286.237 50.0624C288.249 50.4817 290.292 50.7737 292.309 51.1899C294.552 51.6508 296.817 51.8418 299.085 52.1063C301.496 52.3842 303.916 52.5334 306.321 52.7948C308.035 52.9825 309.789 53.1933 311.441 53.8506C312.107 54.1187 312.888 54.09 313.619 54.1889C315.39 54.4303 316.219 55.3995 316.134 57.2734Z" fill="#AD0007"/>
<path d="M56.308 168H50.988L38.942 149.798V168H33.622V141.438H38.942L50.988 159.678V141.438H56.308V168ZM70.9134 168.342C68.8867 168.342 67.0627 167.899 65.4414 167.012C63.82 166.1 62.5407 164.821 61.6034 163.174C60.6914 161.527 60.2354 159.627 60.2354 157.474C60.2354 155.321 60.704 153.421 61.6414 151.774C62.604 150.127 63.9087 148.861 65.5554 147.974C67.202 147.062 69.0387 146.606 71.0654 146.606C73.092 146.606 74.9287 147.062 76.5754 147.974C78.222 148.861 79.514 150.127 80.4514 151.774C81.414 153.421 81.8954 155.321 81.8954 157.474C81.8954 159.627 81.4014 161.527 80.4134 163.174C79.4507 164.821 78.1334 166.1 76.4614 167.012C74.8147 167.899 72.9654 168.342 70.9134 168.342ZM70.9134 163.706C71.876 163.706 72.7754 163.478 73.6114 163.022C74.4727 162.541 75.1567 161.831 75.6634 160.894C76.17 159.957 76.4234 158.817 76.4234 157.474C76.4234 155.473 75.8914 153.94 74.8274 152.876C73.7887 151.787 72.5094 151.242 70.9894 151.242C69.4694 151.242 68.19 151.787 67.1514 152.876C66.138 153.94 65.6314 155.473 65.6314 157.474C65.6314 159.475 66.1254 161.021 67.1134 162.11C68.1267 163.174 69.3934 163.706 70.9134 163.706ZM111.942 146.644C114.526 146.644 116.603 147.442 118.174 149.038C119.77 150.609 120.568 152.813 120.568 155.65V168H115.248V156.372C115.248 154.725 114.83 153.471 113.994 152.61C113.158 151.723 112.018 151.28 110.574 151.28C109.13 151.28 107.977 151.723 107.116 152.61C106.28 153.471 105.862 154.725 105.862 156.372V168H100.542V156.372C100.542 154.725 100.124 153.471 99.2878 152.61C98.4518 151.723 97.3118 151.28 95.8678 151.28C94.3984 151.28 93.2331 151.723 92.3718 152.61C91.5358 153.471 91.1178 154.725 91.1178 156.372V168H85.7978V146.948H91.1178V149.494C91.8018 148.607 92.6758 147.911 93.7398 147.404C94.8291 146.897 96.0198 146.644 97.3118 146.644C98.9584 146.644 100.428 146.999 101.72 147.708C103.012 148.392 104.012 149.38 104.722 150.672C105.406 149.456 106.394 148.481 107.686 147.746C109.003 147.011 110.422 146.644 111.942 146.644ZM124.248 157.398C124.248 155.27 124.666 153.383 125.502 151.736C126.363 150.089 127.516 148.823 128.96 147.936C130.429 147.049 132.063 146.606 133.862 146.606C135.433 146.606 136.801 146.923 137.966 147.556C139.157 148.189 140.107 148.987 140.816 149.95V146.948H146.174V168H140.816V164.922C140.132 165.91 139.182 166.733 137.966 167.392C136.775 168.025 135.395 168.342 133.824 168.342C132.051 168.342 130.429 167.886 128.96 166.974C127.516 166.062 126.363 164.783 125.502 163.136C124.666 161.464 124.248 159.551 124.248 157.398ZM140.816 157.474C140.816 156.182 140.563 155.08 140.056 154.168C139.549 153.231 138.865 152.521 138.004 152.04C137.143 151.533 136.218 151.28 135.23 151.28C134.242 151.28 133.33 151.521 132.494 152.002C131.658 152.483 130.974 153.193 130.442 154.13C129.935 155.042 129.682 156.131 129.682 157.398C129.682 158.665 129.935 159.779 130.442 160.742C130.974 161.679 131.658 162.401 132.494 162.908C133.355 163.415 134.267 163.668 135.23 163.668C136.218 163.668 137.143 163.427 138.004 162.946C138.865 162.439 139.549 161.73 140.056 160.818C140.563 159.881 140.816 158.766 140.816 157.474ZM150.002 157.398C150.002 155.27 150.42 153.383 151.256 151.736C152.117 150.089 153.283 148.823 154.752 147.936C156.221 147.049 157.855 146.606 159.654 146.606C161.022 146.606 162.327 146.91 163.568 147.518C164.809 148.101 165.797 148.886 166.532 149.874V139.88H171.928V168H166.532V164.884C165.873 165.923 164.949 166.759 163.758 167.392C162.567 168.025 161.187 168.342 159.616 168.342C157.843 168.342 156.221 167.886 154.752 166.974C153.283 166.062 152.117 164.783 151.256 163.136C150.42 161.464 150.002 159.551 150.002 157.398ZM166.57 157.474C166.57 156.182 166.317 155.08 165.81 154.168C165.303 153.231 164.619 152.521 163.758 152.04C162.897 151.533 161.972 151.28 160.984 151.28C159.996 151.28 159.084 151.521 158.248 152.002C157.412 152.483 156.728 153.193 156.196 154.13C155.689 155.042 155.436 156.131 155.436 157.398C155.436 158.665 155.689 159.779 156.196 160.742C156.728 161.679 157.412 162.401 158.248 162.908C159.109 163.415 160.021 163.668 160.984 163.668C161.972 163.668 162.897 163.427 163.758 162.946C164.619 162.439 165.303 161.73 165.81 160.818C166.317 159.881 166.57 158.766 166.57 157.474ZM179.822 144.44C178.885 144.44 178.099 144.149 177.466 143.566C176.858 142.958 176.554 142.211 176.554 141.324C176.554 140.437 176.858 139.703 177.466 139.12C178.099 138.512 178.885 138.208 179.822 138.208C180.759 138.208 181.532 138.512 182.14 139.12C182.773 139.703 183.09 140.437 183.09 141.324C183.09 142.211 182.773 142.958 182.14 143.566C181.532 144.149 180.759 144.44 179.822 144.44ZM182.444 146.948V168H177.124V146.948H182.444ZM186.332 157.474C186.332 155.295 186.775 153.395 187.662 151.774C188.549 150.127 189.777 148.861 191.348 147.974C192.919 147.062 194.717 146.606 196.744 146.606C199.353 146.606 201.507 147.265 203.204 148.582C204.927 149.874 206.079 151.698 206.662 154.054H200.924C200.62 153.142 200.101 152.433 199.366 151.926C198.657 151.394 197.77 151.128 196.706 151.128C195.186 151.128 193.983 151.685 193.096 152.8C192.209 153.889 191.766 155.447 191.766 157.474C191.766 159.475 192.209 161.033 193.096 162.148C193.983 163.237 195.186 163.782 196.706 163.782C198.859 163.782 200.265 162.819 200.924 160.894H206.662C206.079 163.174 204.927 164.985 203.204 166.328C201.481 167.671 199.328 168.342 196.744 168.342C194.717 168.342 192.919 167.899 191.348 167.012C189.777 166.1 188.549 164.833 187.662 163.212C186.775 161.565 186.332 159.653 186.332 157.474ZM216.374 162.414L211.928 173.092H208.508L210.978 162.414H216.374ZM42.78 214.266C40.9307 214.266 39.2587 213.949 37.764 213.316C36.2947 212.683 35.1293 211.771 34.268 210.58C33.4067 209.389 32.9633 207.983 32.938 206.362H38.638C38.714 207.451 39.094 208.313 39.778 208.946C40.4873 209.579 41.45 209.896 42.666 209.896C43.9073 209.896 44.8827 209.605 45.592 209.022C46.3013 208.414 46.656 207.629 46.656 206.666C46.656 205.881 46.4153 205.235 45.934 204.728C45.4527 204.221 44.8447 203.829 44.11 203.55C43.4007 203.246 42.4127 202.917 41.146 202.562C39.4233 202.055 38.0173 201.561 36.928 201.08C35.864 200.573 34.9393 199.826 34.154 198.838C33.394 197.825 33.014 196.482 33.014 194.81C33.014 193.239 33.4067 191.871 34.192 190.706C34.9773 189.541 36.0793 188.654 37.498 188.046C38.9167 187.413 40.538 187.096 42.362 187.096C45.098 187.096 47.3147 187.767 49.012 189.11C50.7347 190.427 51.6847 192.277 51.862 194.658H46.01C45.9593 193.746 45.5667 192.999 44.832 192.416C44.1227 191.808 43.1727 191.504 41.982 191.504C40.9433 191.504 40.1073 191.77 39.474 192.302C38.866 192.834 38.562 193.607 38.562 194.62C38.562 195.329 38.79 195.925 39.246 196.406C39.7273 196.862 40.31 197.242 40.994 197.546C41.7033 197.825 42.6913 198.154 43.958 198.534C45.6807 199.041 47.0867 199.547 48.176 200.054C49.2653 200.561 50.2027 201.321 50.988 202.334C51.7733 203.347 52.166 204.677 52.166 206.324C52.166 207.743 51.7987 209.06 51.064 210.276C50.3293 211.492 49.2527 212.467 47.834 213.202C46.4153 213.911 44.7307 214.266 42.78 214.266ZM76.3483 203.018C76.3483 203.778 76.2976 204.462 76.1963 205.07H60.8063C60.9329 206.59 61.4649 207.781 62.4023 208.642C63.3396 209.503 64.4923 209.934 65.8603 209.934C67.8363 209.934 69.2423 209.085 70.0783 207.388H75.8163C75.2083 209.415 74.0429 211.087 72.3203 212.404C70.5976 213.696 68.4823 214.342 65.9743 214.342C63.9476 214.342 62.1236 213.899 60.5023 213.012C58.9063 212.1 57.6523 210.821 56.7403 209.174C55.8536 207.527 55.4102 205.627 55.4102 203.474C55.4102 201.295 55.8536 199.383 56.7403 197.736C57.6269 196.089 58.8683 194.823 60.4643 193.936C62.0603 193.049 63.8969 192.606 65.9743 192.606C67.9756 192.606 69.7616 193.037 71.3323 193.898C72.9283 194.759 74.1569 195.988 75.0183 197.584C75.9049 199.155 76.3483 200.966 76.3483 203.018ZM70.8383 201.498C70.8129 200.13 70.3189 199.041 69.3563 198.23C68.3936 197.394 67.2156 196.976 65.8223 196.976C64.5049 196.976 63.3903 197.381 62.4783 198.192C61.5916 198.977 61.0469 200.079 60.8443 201.498H70.8383ZM78.8634 203.474C78.8634 201.295 79.3067 199.395 80.1934 197.774C81.08 196.127 82.3087 194.861 83.8794 193.974C85.45 193.062 87.2487 192.606 89.2754 192.606C91.8847 192.606 94.038 193.265 95.7354 194.582C97.458 195.874 98.6107 197.698 99.1934 200.054H93.4554C93.1514 199.142 92.632 198.433 91.8974 197.926C91.188 197.394 90.3014 197.128 89.2374 197.128C87.7174 197.128 86.514 197.685 85.6274 198.8C84.7407 199.889 84.2974 201.447 84.2974 203.474C84.2974 205.475 84.7407 207.033 85.6274 208.148C86.514 209.237 87.7174 209.782 89.2374 209.782C91.3907 209.782 92.7967 208.819 93.4554 206.894H99.1934C98.6107 209.174 97.458 210.985 95.7354 212.328C94.0127 213.671 91.8594 214.342 89.2754 214.342C87.2487 214.342 85.45 213.899 83.8794 213.012C82.3087 212.1 81.08 210.833 80.1934 209.212C79.3067 207.565 78.8634 205.653 78.8634 203.474ZM122.965 192.948V214H117.607V211.34C116.923 212.252 116.023 212.974 114.909 213.506C113.819 214.013 112.629 214.266 111.337 214.266C109.69 214.266 108.233 213.924 106.967 213.24C105.7 212.531 104.699 211.505 103.965 210.162C103.255 208.794 102.901 207.173 102.901 205.298V192.948H108.221V204.538C108.221 206.21 108.639 207.502 109.475 208.414C110.311 209.301 111.451 209.744 112.895 209.744C114.364 209.744 115.517 209.301 116.353 208.414C117.189 207.502 117.607 206.21 117.607 204.538V192.948H122.965ZM133.534 196.216C134.218 195.101 135.104 194.227 136.194 193.594C137.308 192.961 138.575 192.644 139.994 192.644V198.23H138.588C136.916 198.23 135.649 198.623 134.788 199.408C133.952 200.193 133.534 201.561 133.534 203.512V214H128.214V192.948H133.534V196.216ZM163.147 203.018C163.147 203.778 163.096 204.462 162.995 205.07H147.605C147.732 206.59 148.264 207.781 149.201 208.642C150.138 209.503 151.291 209.934 152.659 209.934C154.635 209.934 156.041 209.085 156.877 207.388H162.615C162.007 209.415 160.842 211.087 159.119 212.404C157.396 213.696 155.281 214.342 152.773 214.342C150.746 214.342 148.922 213.899 147.301 213.012C145.705 212.1 144.451 210.821 143.539 209.174C142.652 207.527 142.209 205.627 142.209 203.474C142.209 201.295 142.652 199.383 143.539 197.736C144.426 196.089 145.667 194.823 147.263 193.936C148.859 193.049 150.696 192.606 152.773 192.606C154.774 192.606 156.56 193.037 158.131 193.898C159.727 194.759 160.956 195.988 161.817 197.584C162.704 199.155 163.147 200.966 163.147 203.018ZM157.637 201.498C157.612 200.13 157.118 199.041 156.155 198.23C155.192 197.394 154.014 196.976 152.621 196.976C151.304 196.976 150.189 197.381 149.277 198.192C148.39 198.977 147.846 200.079 147.643 201.498H157.637ZM172.844 208.414L168.398 219.092H164.978L167.448 208.414H172.844ZM194.891 214.266C193.042 214.266 191.37 213.949 189.875 213.316C188.406 212.683 187.241 211.771 186.379 210.58C185.518 209.389 185.075 207.983 185.049 206.362H190.749C190.825 207.451 191.205 208.313 191.889 208.946C192.599 209.579 193.561 209.896 194.777 209.896C196.019 209.896 196.994 209.605 197.703 209.022C198.413 208.414 198.767 207.629 198.767 206.666C198.767 205.881 198.527 205.235 198.045 204.728C197.564 204.221 196.956 203.829 196.221 203.55C195.512 203.246 194.524 202.917 193.257 202.562C191.535 202.055 190.129 201.561 189.039 201.08C187.975 200.573 187.051 199.826 186.265 198.838C185.505 197.825 185.125 196.482 185.125 194.81C185.125 193.239 185.518 191.871 186.303 190.706C187.089 189.541 188.191 188.654 189.609 188.046C191.028 187.413 192.649 187.096 194.473 187.096C197.209 187.096 199.426 187.767 201.123 189.11C202.846 190.427 203.796 192.277 203.973 194.658H198.121C198.071 193.746 197.678 192.999 196.943 192.416C196.234 191.808 195.284 191.504 194.093 191.504C193.055 191.504 192.219 191.77 191.585 192.302C190.977 192.834 190.673 193.607 190.673 194.62C190.673 195.329 190.901 195.925 191.357 196.406C191.839 196.862 192.421 197.242 193.105 197.546C193.815 197.825 194.803 198.154 196.069 198.534C197.792 199.041 199.198 199.547 200.287 200.054C201.377 200.561 202.314 201.321 203.099 202.334C203.885 203.347 204.277 204.677 204.277 206.324C204.277 207.743 203.91 209.06 203.175 210.276C202.441 211.492 201.364 212.467 199.945 213.202C198.527 213.911 196.842 214.266 194.891 214.266ZM228.46 203.018C228.46 203.778 228.409 204.462 228.308 205.07H212.918C213.044 206.59 213.576 207.781 214.514 208.642C215.451 209.503 216.604 209.934 217.972 209.934C219.948 209.934 221.354 209.085 222.19 207.388H227.928C227.32 209.415 226.154 211.087 224.432 212.404C222.709 213.696 220.594 214.342 218.086 214.342C216.059 214.342 214.235 213.899 212.614 213.012C211.018 212.1 209.764 210.821 208.852 209.174C207.965 207.527 207.522 205.627 207.522 203.474C207.522 201.295 207.965 199.383 208.852 197.736C209.738 196.089 210.98 194.823 212.576 193.936C214.172 193.049 216.008 192.606 218.086 192.606C220.087 192.606 221.873 193.037 223.444 193.898C225.04 194.759 226.268 195.988 227.13 197.584C228.016 199.155 228.46 200.966 228.46 203.018ZM222.95 201.498C222.924 200.13 222.43 199.041 221.468 198.23C220.505 197.394 219.327 196.976 217.934 196.976C216.616 196.976 215.502 197.381 214.59 198.192C213.703 198.977 213.158 200.079 212.956 201.498H222.95ZM230.975 203.398C230.975 201.27 231.393 199.383 232.229 197.736C233.09 196.089 234.243 194.823 235.687 193.936C237.156 193.049 238.79 192.606 240.589 192.606C242.159 192.606 243.527 192.923 244.693 193.556C245.883 194.189 246.833 194.987 247.543 195.95V192.948H252.901V214H247.543V210.922C246.859 211.91 245.909 212.733 244.693 213.392C243.502 214.025 242.121 214.342 240.551 214.342C238.777 214.342 237.156 213.886 235.687 212.974C234.243 212.062 233.09 210.783 232.229 209.136C231.393 207.464 230.975 205.551 230.975 203.398ZM247.543 203.474C247.543 202.182 247.289 201.08 246.783 200.168C246.276 199.231 245.592 198.521 244.731 198.04C243.869 197.533 242.945 197.28 241.957 197.28C240.969 197.28 240.057 197.521 239.221 198.002C238.385 198.483 237.701 199.193 237.169 200.13C236.662 201.042 236.409 202.131 236.409 203.398C236.409 204.665 236.662 205.779 237.169 206.742C237.701 207.679 238.385 208.401 239.221 208.908C240.082 209.415 240.994 209.668 241.957 209.668C242.945 209.668 243.869 209.427 244.731 208.946C245.592 208.439 246.276 207.73 246.783 206.818C247.289 205.881 247.543 204.766 247.543 203.474ZM284.241 192.644C286.825 192.644 288.902 193.442 290.473 195.038C292.069 196.609 292.867 198.813 292.867 201.65V214H287.547V202.372C287.547 200.725 287.129 199.471 286.293 198.61C285.457 197.723 284.317 197.28 282.873 197.28C281.429 197.28 280.276 197.723 279.415 198.61C278.579 199.471 278.161 200.725 278.161 202.372V214H272.841V202.372C272.841 200.725 272.423 199.471 271.587 198.61C270.751 197.723 269.611 197.28 268.167 197.28C266.697 197.28 265.532 197.723 264.671 198.61C263.835 199.471 263.417 200.725 263.417 202.372V214H258.097V192.948H263.417V195.494C264.101 194.607 264.975 193.911 266.039 193.404C267.128 192.897 268.319 192.644 269.611 192.644C271.257 192.644 272.727 192.999 274.019 193.708C275.311 194.392 276.311 195.38 277.021 196.672C277.705 195.456 278.693 194.481 279.985 193.746C281.302 193.011 282.721 192.644 284.241 192.644ZM303.235 185.88V214H297.915V185.88H303.235ZM328.061 203.018C328.061 203.778 328.01 204.462 327.909 205.07H312.519C312.646 206.59 313.178 207.781 314.115 208.642C315.052 209.503 316.205 209.934 317.573 209.934C319.549 209.934 320.955 209.085 321.791 207.388H327.529C326.921 209.415 325.756 211.087 324.033 212.404C322.31 213.696 320.195 214.342 317.687 214.342C315.66 214.342 313.836 213.899 312.215 213.012C310.619 212.1 309.365 210.821 308.453 209.174C307.566 207.527 307.123 205.627 307.123 203.474C307.123 201.295 307.566 199.383 308.453 197.736C309.34 196.089 310.581 194.823 312.177 193.936C313.773 193.049 315.61 192.606 317.687 192.606C319.688 192.606 321.474 193.037 323.045 193.898C324.641 194.759 325.87 195.988 326.731 197.584C327.618 199.155 328.061 200.966 328.061 203.018ZM322.551 201.498C322.526 200.13 322.032 199.041 321.069 198.23C320.106 197.394 318.928 196.976 317.535 196.976C316.218 196.976 315.103 197.381 314.191 198.192C313.304 198.977 312.76 200.079 312.557 201.498H322.551ZM340 214.342C338.278 214.342 336.732 214.038 335.364 213.43C333.996 212.797 332.907 211.948 332.096 210.884C331.311 209.82 330.88 208.642 330.804 207.35H336.162C336.264 208.161 336.656 208.832 337.34 209.364C338.05 209.896 338.924 210.162 339.962 210.162C340.976 210.162 341.761 209.959 342.318 209.554C342.901 209.149 343.192 208.629 343.192 207.996C343.192 207.312 342.838 206.805 342.128 206.476C341.444 206.121 340.342 205.741 338.822 205.336C337.252 204.956 335.96 204.563 334.946 204.158C333.958 203.753 333.097 203.132 332.362 202.296C331.653 201.46 331.298 200.333 331.298 198.914C331.298 197.749 331.628 196.685 332.286 195.722C332.97 194.759 333.933 193.999 335.174 193.442C336.441 192.885 337.923 192.606 339.62 192.606C342.128 192.606 344.13 193.239 345.624 194.506C347.119 195.747 347.942 197.432 348.094 199.56H343.002C342.926 198.724 342.572 198.065 341.938 197.584C341.33 197.077 340.507 196.824 339.468 196.824C338.506 196.824 337.758 197.001 337.226 197.356C336.72 197.711 336.466 198.205 336.466 198.838C336.466 199.547 336.821 200.092 337.53 200.472C338.24 200.827 339.342 201.194 340.836 201.574C342.356 201.954 343.61 202.347 344.598 202.752C345.586 203.157 346.435 203.791 347.144 204.652C347.879 205.488 348.259 206.603 348.284 207.996C348.284 209.212 347.942 210.301 347.258 211.264C346.6 212.227 345.637 212.987 344.37 213.544C343.129 214.076 341.672 214.342 340 214.342ZM360.707 214.342C358.985 214.342 357.439 214.038 356.071 213.43C354.703 212.797 353.614 211.948 352.803 210.884C352.018 209.82 351.587 208.642 351.511 207.35H356.869C356.971 208.161 357.363 208.832 358.047 209.364C358.757 209.896 359.631 210.162 360.669 210.162C361.683 210.162 362.468 209.959 363.025 209.554C363.608 209.149 363.899 208.629 363.899 207.996C363.899 207.312 363.545 206.805 362.835 206.476C362.151 206.121 361.049 205.741 359.529 205.336C357.959 204.956 356.667 204.563 355.653 204.158C354.665 203.753 353.804 203.132 353.069 202.296C352.36 201.46 352.005 200.333 352.005 198.914C352.005 197.749 352.335 196.685 352.993 195.722C353.677 194.759 354.64 193.999 355.881 193.442C357.148 192.885 358.63 192.606 360.327 192.606C362.835 192.606 364.837 193.239 366.331 194.506C367.826 195.747 368.649 197.432 368.801 199.56H363.709C363.633 198.724 363.279 198.065 362.645 197.584C362.037 197.077 361.214 196.824 360.175 196.824C359.213 196.824 358.465 197.001 357.933 197.356C357.427 197.711 357.173 198.205 357.173 198.838C357.173 199.547 357.528 200.092 358.237 200.472C358.947 200.827 360.049 201.194 361.543 201.574C363.063 201.954 364.317 202.347 365.305 202.752C366.293 203.157 367.142 203.791 367.851 204.652C368.586 205.488 368.966 206.603 368.991 207.996C368.991 209.212 368.649 210.301 367.965 211.264C367.307 212.227 366.344 212.987 365.077 213.544C363.836 214.076 362.379 214.342 360.707 214.342Z" fill="white"/>
</svg>
