<svg width="589" height="255" viewBox="0 0 589 255" fill="none" xmlns="http://www.w3.org/2000/svg">
<rect width="589" height="255" rx="20" fill="#BD81BF"/>
<path d="M39.435 147.65C39.435 144.835 40.0637 142.32 41.321 140.106C42.6057 137.865 44.3413 136.129 46.528 134.899C48.742 133.642 51.2157 133.013 53.949 133.013C57.147 133.013 59.9487 133.833 62.354 135.473C64.7593 137.113 66.4403 139.382 67.397 142.279H60.796C60.14 140.912 59.2107 139.887 58.008 139.204C56.8327 138.521 55.466 138.179 53.908 138.179C52.2407 138.179 50.751 138.575 49.439 139.368C48.1543 140.133 47.143 141.227 46.405 142.648C45.6943 144.069 45.339 145.737 45.339 147.65C45.339 149.536 45.6943 151.203 46.405 152.652C47.143 154.073 48.1543 155.18 49.439 155.973C50.751 156.738 52.2407 157.121 53.908 157.121C55.466 157.121 56.8327 156.779 58.008 156.096C59.2107 155.385 60.14 154.347 60.796 152.98H67.397C66.4403 155.905 64.7593 158.187 62.354 159.827C59.976 161.44 57.1743 162.246 53.949 162.246C51.2157 162.246 48.742 161.631 46.528 160.401C44.3413 159.144 42.6057 157.408 41.321 155.194C40.0637 152.98 39.435 150.465 39.435 147.65ZM82.3857 162.369C80.199 162.369 78.231 161.891 76.4817 160.934C74.7324 159.95 73.352 158.57 72.3407 156.793C71.3567 155.016 70.8647 152.966 70.8647 150.643C70.8647 148.32 71.3704 146.27 72.3817 144.493C73.4204 142.716 74.828 141.35 76.6047 140.393C78.3814 139.409 80.363 138.917 82.5497 138.917C84.7364 138.917 86.718 139.409 88.4947 140.393C90.2714 141.35 91.6654 142.716 92.6767 144.493C93.7154 146.27 94.2347 148.32 94.2347 150.643C94.2347 152.966 93.7017 155.016 92.6357 156.793C91.597 158.57 90.1757 159.95 88.3717 160.934C86.595 161.891 84.5997 162.369 82.3857 162.369ZM82.3857 157.367C83.4244 157.367 84.3947 157.121 85.2967 156.629C86.226 156.11 86.964 155.344 87.5107 154.333C88.0574 153.322 88.3307 152.092 88.3307 150.643C88.3307 148.484 87.7567 146.83 86.6087 145.682C85.488 144.507 84.1077 143.919 82.4677 143.919C80.8277 143.919 79.4474 144.507 78.3267 145.682C77.2334 146.83 76.6867 148.484 76.6867 150.643C76.6867 152.802 77.2197 154.47 78.2857 155.645C79.379 156.793 80.7457 157.367 82.3857 157.367ZM111.032 138.958C113.738 138.958 115.925 139.819 117.592 141.541C119.26 143.236 120.093 145.614 120.093 148.675V162H114.353V149.454C114.353 147.65 113.902 146.27 113 145.313C112.098 144.329 110.868 143.837 109.31 143.837C107.725 143.837 106.468 144.329 105.538 145.313C104.636 146.27 104.185 147.65 104.185 149.454V162H98.4452V139.286H104.185V142.115C104.951 141.131 105.921 140.366 107.096 139.819C108.299 139.245 109.611 138.958 111.032 138.958ZM138.139 138.958C140.845 138.958 143.031 139.819 144.699 141.541C146.366 143.236 147.2 145.614 147.2 148.675V162H141.46V149.454C141.46 147.65 141.009 146.27 140.107 145.313C139.205 144.329 137.975 143.837 136.417 143.837C134.831 143.837 133.574 144.329 132.645 145.313C131.743 146.27 131.292 147.65 131.292 149.454V162H125.552V139.286H131.292V142.115C132.057 141.131 133.027 140.366 134.203 139.819C135.405 139.245 136.717 138.958 138.139 138.958ZM173.773 150.151C173.773 150.971 173.718 151.709 173.609 152.365H157.004C157.141 154.005 157.715 155.29 158.726 156.219C159.737 157.148 160.981 157.613 162.457 157.613C164.589 157.613 166.106 156.697 167.008 154.866H173.199C172.543 157.053 171.286 158.857 169.427 160.278C167.568 161.672 165.286 162.369 162.58 162.369C160.393 162.369 158.425 161.891 156.676 160.934C154.954 159.95 153.601 158.57 152.617 156.793C151.66 155.016 151.182 152.966 151.182 150.643C151.182 148.292 151.66 146.229 152.617 144.452C153.574 142.675 154.913 141.309 156.635 140.352C158.357 139.395 160.339 138.917 162.58 138.917C164.739 138.917 166.666 139.382 168.361 140.311C170.083 141.24 171.409 142.566 172.338 144.288C173.295 145.983 173.773 147.937 173.773 150.151ZM167.828 148.511C167.801 147.035 167.268 145.86 166.229 144.985C165.19 144.083 163.919 143.632 162.416 143.632C160.995 143.632 159.792 144.069 158.808 144.944C157.851 145.791 157.264 146.98 157.045 148.511H167.828ZM176.487 150.643C176.487 148.292 176.965 146.242 177.922 144.493C178.878 142.716 180.204 141.35 181.899 140.393C183.593 139.409 185.534 138.917 187.721 138.917C190.536 138.917 192.859 139.628 194.691 141.049C196.549 142.443 197.793 144.411 198.422 146.953H192.231C191.903 145.969 191.342 145.204 190.55 144.657C189.784 144.083 188.828 143.796 187.68 143.796C186.04 143.796 184.741 144.397 183.785 145.6C182.828 146.775 182.35 148.456 182.35 150.643C182.35 152.802 182.828 154.483 183.785 155.686C184.741 156.861 186.04 157.449 187.68 157.449C190.003 157.449 191.52 156.41 192.231 154.333H198.422C197.793 156.793 196.549 158.747 194.691 160.196C192.832 161.645 190.509 162.369 187.721 162.369C185.534 162.369 183.593 161.891 181.899 160.934C180.204 159.95 178.878 158.583 177.922 156.834C176.965 155.057 176.487 152.994 176.487 150.643ZM209.31 144.001V154.989C209.31 155.754 209.488 156.315 209.843 156.67C210.226 156.998 210.854 157.162 211.729 157.162H214.394V162H210.786C205.948 162 203.529 159.649 203.529 154.948V144.001H200.823V139.286H203.529V133.669H209.31V139.286H214.394V144.001H209.31ZM259.78 139.286L253.138 162H246.947L242.806 146.133L238.665 162H232.433L225.75 139.286H231.572L235.59 156.588L239.936 139.286H246.004L250.268 156.547L254.286 139.286H259.78ZM265.797 136.58C264.785 136.58 263.938 136.266 263.255 135.637C262.599 134.981 262.271 134.175 262.271 133.218C262.271 132.261 262.599 131.469 263.255 130.84C263.938 130.184 264.785 129.856 265.797 129.856C266.808 129.856 267.642 130.184 268.298 130.84C268.981 131.469 269.323 132.261 269.323 133.218C269.323 134.175 268.981 134.981 268.298 135.637C267.642 136.266 266.808 136.58 265.797 136.58ZM268.626 139.286V162H262.886V139.286H268.626ZM280.98 144.001V154.989C280.98 155.754 281.157 156.315 281.513 156.67C281.895 156.998 282.524 157.162 283.399 157.162H286.064V162H282.456C277.618 162 275.199 159.649 275.199 154.948V144.001H272.493V139.286H275.199V133.669H280.98V139.286H286.064V144.001H280.98ZM302.984 138.958C304.706 138.958 306.237 139.341 307.576 140.106C308.916 140.844 309.954 141.951 310.692 143.427C311.458 144.876 311.84 146.625 311.84 148.675V162H306.1V149.454C306.1 147.65 305.649 146.27 304.747 145.313C303.845 144.329 302.615 143.837 301.057 143.837C299.472 143.837 298.215 144.329 297.285 145.313C296.383 146.27 295.932 147.65 295.932 149.454V162H290.192V131.66H295.932V142.115C296.67 141.131 297.654 140.366 298.884 139.819C300.114 139.245 301.481 138.958 302.984 138.958ZM50.71 212.287C48.7147 212.287 46.9107 211.945 45.298 211.262C43.7127 210.579 42.4553 209.595 41.526 208.31C40.5967 207.025 40.1183 205.508 40.091 203.759H46.241C46.323 204.934 46.733 205.864 47.471 206.547C48.2363 207.23 49.275 207.572 50.587 207.572C51.9263 207.572 52.9787 207.258 53.744 206.629C54.5093 205.973 54.892 205.126 54.892 204.087C54.892 203.24 54.6323 202.543 54.113 201.996C53.5937 201.449 52.9377 201.026 52.145 200.725C51.3797 200.397 50.3137 200.042 48.947 199.659C47.0883 199.112 45.5713 198.579 44.396 198.06C43.248 197.513 42.2503 196.707 41.403 195.641C40.583 194.548 40.173 193.099 40.173 191.295C40.173 189.6 40.5967 188.124 41.444 186.867C42.2913 185.61 43.4803 184.653 45.011 183.997C46.5417 183.314 48.291 182.972 50.259 182.972C53.211 182.972 55.6027 183.696 57.434 185.145C59.2927 186.566 60.3177 188.562 60.509 191.131H54.195C54.1403 190.147 53.7167 189.341 52.924 188.712C52.1587 188.056 51.1337 187.728 49.849 187.728C48.7283 187.728 47.8263 188.015 47.143 188.589C46.487 189.163 46.159 189.997 46.159 191.09C46.159 191.855 46.405 192.498 46.897 193.017C47.4163 193.509 48.045 193.919 48.783 194.247C49.5483 194.548 50.6143 194.903 51.981 195.313C53.8397 195.86 55.3567 196.406 56.532 196.953C57.7073 197.5 58.7187 198.32 59.566 199.413C60.4133 200.506 60.837 201.941 60.837 203.718C60.837 205.249 60.4407 206.67 59.648 207.982C58.8553 209.294 57.6937 210.346 56.163 211.139C54.6323 211.904 52.8147 212.287 50.71 212.287ZM86.9284 200.151C86.9284 200.971 86.8737 201.709 86.7644 202.365H70.1594C70.296 204.005 70.87 205.29 71.8814 206.219C72.8927 207.148 74.1364 207.613 75.6124 207.613C77.7444 207.613 79.2614 206.697 80.1634 204.866H86.3544C85.6984 207.053 84.441 208.857 82.5824 210.278C80.7237 211.672 78.4414 212.369 75.7354 212.369C73.5487 212.369 71.5807 211.891 69.8314 210.934C68.1094 209.95 66.7564 208.57 65.7724 206.793C64.8157 205.016 64.3374 202.966 64.3374 200.643C64.3374 198.292 64.8157 196.229 65.7724 194.452C66.729 192.675 68.0684 191.309 69.7904 190.352C71.5124 189.395 73.494 188.917 75.7354 188.917C77.8947 188.917 79.8217 189.382 81.5164 190.311C83.2384 191.24 84.564 192.566 85.4934 194.288C86.45 195.983 86.9284 197.937 86.9284 200.151ZM80.9834 198.511C80.956 197.035 80.423 195.86 79.3844 194.985C78.3457 194.083 77.0747 193.632 75.5714 193.632C74.15 193.632 72.9474 194.069 71.9634 194.944C71.0067 195.791 70.419 196.98 70.2004 198.511H80.9834ZM89.6421 200.561C89.6421 198.265 90.0931 196.229 90.9951 194.452C91.9244 192.675 93.1681 191.309 94.7261 190.352C96.3114 189.395 98.0744 188.917 100.015 188.917C101.71 188.917 103.186 189.259 104.443 189.942C105.728 190.625 106.753 191.486 107.518 192.525V189.286H113.299V212H107.518V208.679C106.78 209.745 105.755 210.633 104.443 211.344C103.158 212.027 101.669 212.369 99.9741 212.369C98.0607 212.369 96.3114 211.877 94.7261 210.893C93.1681 209.909 91.9244 208.529 90.9951 206.752C90.0931 204.948 89.6421 202.884 89.6421 200.561ZM107.518 200.643C107.518 199.249 107.245 198.06 106.698 197.076C106.151 196.065 105.413 195.299 104.484 194.78C103.555 194.233 102.557 193.96 101.491 193.96C100.425 193.96 99.4411 194.22 98.5391 194.739C97.6371 195.258 96.8991 196.024 96.3251 197.035C95.7784 198.019 95.5051 199.194 95.5051 200.561C95.5051 201.928 95.7784 203.13 96.3251 204.169C96.8991 205.18 97.6371 205.959 98.5391 206.506C99.4684 207.053 100.452 207.326 101.491 207.326C102.557 207.326 103.555 207.066 104.484 206.547C105.413 206 106.151 205.235 106.698 204.251C107.245 203.24 107.518 202.037 107.518 200.643ZM127.597 212.369C125.739 212.369 124.071 212.041 122.595 211.385C121.119 210.702 119.944 209.786 119.069 208.638C118.222 207.49 117.757 206.219 117.675 204.825H123.456C123.566 205.7 123.989 206.424 124.727 206.998C125.493 207.572 126.436 207.859 127.556 207.859C128.65 207.859 129.497 207.64 130.098 207.203C130.727 206.766 131.041 206.205 131.041 205.522C131.041 204.784 130.659 204.237 129.893 203.882C129.155 203.499 127.966 203.089 126.326 202.652C124.632 202.242 123.238 201.818 122.144 201.381C121.078 200.944 120.149 200.274 119.356 199.372C118.591 198.47 118.208 197.254 118.208 195.723C118.208 194.466 118.564 193.318 119.274 192.279C120.012 191.24 121.051 190.42 122.39 189.819C123.757 189.218 125.356 188.917 127.187 188.917C129.893 188.917 132.053 189.6 133.665 190.967C135.278 192.306 136.166 194.124 136.33 196.42H130.836C130.754 195.518 130.372 194.807 129.688 194.288C129.032 193.741 128.144 193.468 127.023 193.468C125.985 193.468 125.178 193.659 124.604 194.042C124.058 194.425 123.784 194.958 123.784 195.641C123.784 196.406 124.167 196.994 124.932 197.404C125.698 197.787 126.887 198.183 128.499 198.593C130.139 199.003 131.492 199.427 132.558 199.864C133.624 200.301 134.54 200.985 135.305 201.914C136.098 202.816 136.508 204.019 136.535 205.522C136.535 206.834 136.166 208.009 135.428 209.048C134.718 210.087 133.679 210.907 132.312 211.508C130.973 212.082 129.401 212.369 127.597 212.369ZM151.333 212.369C149.146 212.369 147.178 211.891 145.429 210.934C143.68 209.95 142.299 208.57 141.288 206.793C140.304 205.016 139.812 202.966 139.812 200.643C139.812 198.32 140.318 196.27 141.329 194.493C142.368 192.716 143.775 191.35 145.552 190.393C147.329 189.409 149.31 188.917 151.497 188.917C153.684 188.917 155.665 189.409 157.442 190.393C159.219 191.35 160.613 192.716 161.624 194.493C162.663 196.27 163.182 198.32 163.182 200.643C163.182 202.966 162.649 205.016 161.583 206.793C160.544 208.57 159.123 209.95 157.319 210.934C155.542 211.891 153.547 212.369 151.333 212.369ZM151.333 207.367C152.372 207.367 153.342 207.121 154.244 206.629C155.173 206.11 155.911 205.344 156.458 204.333C157.005 203.322 157.278 202.092 157.278 200.643C157.278 198.484 156.704 196.83 155.556 195.682C154.435 194.507 153.055 193.919 151.415 193.919C149.775 193.919 148.395 194.507 147.274 195.682C146.181 196.83 145.634 198.484 145.634 200.643C145.634 202.802 146.167 204.47 147.233 205.645C148.326 206.793 149.693 207.367 151.333 207.367ZM179.979 188.958C182.685 188.958 184.872 189.819 186.539 191.541C188.207 193.236 189.04 195.614 189.04 198.675V212H183.3V199.454C183.3 197.65 182.849 196.27 181.947 195.313C181.045 194.329 179.815 193.837 178.257 193.837C176.672 193.837 175.415 194.329 174.485 195.313C173.583 196.27 173.132 197.65 173.132 199.454V212H167.392V189.286H173.132V192.115C173.898 191.131 174.868 190.366 176.043 189.819C177.246 189.245 178.558 188.958 179.979 188.958ZM215.614 200.151C215.614 200.971 215.559 201.709 215.45 202.365H198.845C198.982 204.005 199.556 205.29 200.567 206.219C201.578 207.148 202.822 207.613 204.298 207.613C206.43 207.613 207.947 206.697 208.849 204.866H215.04C214.384 207.053 213.127 208.857 211.268 210.278C209.409 211.672 207.127 212.369 204.421 212.369C202.234 212.369 200.266 211.891 198.517 210.934C196.795 209.95 195.442 208.57 194.458 206.793C193.501 205.016 193.023 202.966 193.023 200.643C193.023 198.292 193.501 196.229 194.458 194.452C195.415 192.675 196.754 191.309 198.476 190.352C200.198 189.395 202.18 188.917 204.421 188.917C206.58 188.917 208.507 189.382 210.202 190.311C211.924 191.24 213.25 192.566 214.179 194.288C215.136 195.983 215.614 197.937 215.614 200.151ZM209.669 198.511C209.642 197.035 209.109 195.86 208.07 194.985C207.031 194.083 205.76 193.632 204.257 193.632C202.836 193.632 201.633 194.069 200.649 194.944C199.692 195.791 199.105 196.98 198.886 198.511H209.669ZM218.328 200.561C218.328 198.265 218.779 196.229 219.681 194.452C220.61 192.675 221.867 191.309 223.453 190.352C225.038 189.395 226.801 188.917 228.742 188.917C230.218 188.917 231.625 189.245 232.965 189.901C234.304 190.53 235.37 191.377 236.163 192.443V181.66H241.985V212H236.163V208.638C235.452 209.759 234.454 210.661 233.17 211.344C231.885 212.027 230.395 212.369 228.701 212.369C226.787 212.369 225.038 211.877 223.453 210.893C221.867 209.909 220.61 208.529 219.681 206.752C218.779 204.948 218.328 202.884 218.328 200.561ZM236.204 200.643C236.204 199.249 235.93 198.06 235.384 197.076C234.837 196.065 234.099 195.299 233.17 194.78C232.24 194.233 231.243 193.96 230.177 193.96C229.111 193.96 228.127 194.22 227.225 194.739C226.323 195.258 225.585 196.024 225.011 197.035C224.464 198.019 224.191 199.194 224.191 200.561C224.191 201.928 224.464 203.13 225.011 204.169C225.585 205.18 226.323 205.959 227.225 206.506C228.154 207.053 229.138 207.326 230.177 207.326C231.243 207.326 232.24 207.066 233.17 206.547C234.099 206 234.837 205.235 235.384 204.251C235.93 203.24 236.204 202.037 236.204 200.643ZM263.1 188.015V195.19H272.735V199.741H263.1V207.326H273.965V212H257.36V183.341H273.965V188.015H263.1ZM291.728 212L287.054 204.948L282.913 212H276.763L284.184 200.602L276.681 189.286H283.159L287.792 196.297L291.974 189.286H298.124L290.662 200.602L298.206 212H291.728ZM307.063 192.566C307.801 191.527 308.812 190.666 310.097 189.983C311.409 189.272 312.899 188.917 314.566 188.917C316.507 188.917 318.256 189.395 319.814 190.352C321.399 191.309 322.643 192.675 323.545 194.452C324.474 196.201 324.939 198.238 324.939 200.561C324.939 202.884 324.474 204.948 323.545 206.752C322.643 208.529 321.399 209.909 319.814 210.893C318.256 211.877 316.507 212.369 314.566 212.369C312.899 212.369 311.423 212.027 310.138 211.344C308.881 210.661 307.856 209.8 307.063 208.761V222.824H301.323V189.286H307.063V192.566ZM319.076 200.561C319.076 199.194 318.789 198.019 318.215 197.035C317.668 196.024 316.93 195.258 316.001 194.739C315.099 194.22 314.115 193.96 313.049 193.96C312.01 193.96 311.026 194.233 310.097 194.78C309.195 195.299 308.457 196.065 307.883 197.076C307.336 198.087 307.063 199.276 307.063 200.643C307.063 202.01 307.336 203.199 307.883 204.21C308.457 205.221 309.195 206 310.097 206.547C311.026 207.066 312.01 207.326 313.049 207.326C314.115 207.326 315.099 207.053 316.001 206.506C316.93 205.959 317.668 205.18 318.215 204.169C318.789 203.158 319.076 201.955 319.076 200.561ZM334.85 181.66V212H329.11V181.66H334.85ZM350.607 212.369C348.421 212.369 346.453 211.891 344.703 210.934C342.954 209.95 341.574 208.57 340.562 206.793C339.578 205.016 339.086 202.966 339.086 200.643C339.086 198.32 339.592 196.27 340.603 194.493C341.642 192.716 343.05 191.35 344.826 190.393C346.603 189.409 348.585 188.917 350.771 188.917C352.958 188.917 354.94 189.409 356.716 190.393C358.493 191.35 359.887 192.716 360.898 194.493C361.937 196.27 362.456 198.32 362.456 200.643C362.456 202.966 361.923 205.016 360.857 206.793C359.819 208.57 358.397 209.95 356.593 210.934C354.817 211.891 352.821 212.369 350.607 212.369ZM350.607 207.367C351.646 207.367 352.616 207.121 353.518 206.629C354.448 206.11 355.186 205.344 355.732 204.333C356.279 203.322 356.552 202.092 356.552 200.643C356.552 198.484 355.978 196.83 354.83 195.682C353.71 194.507 352.329 193.919 350.689 193.919C349.049 193.919 347.669 194.507 346.548 195.682C345.455 196.83 344.908 198.484 344.908 200.643C344.908 202.802 345.441 204.47 346.507 205.645C347.601 206.793 348.967 207.367 350.607 207.367ZM372.407 192.812C373.145 191.609 374.102 190.666 375.277 189.983C376.48 189.3 377.846 188.958 379.377 188.958V194.985H377.86C376.056 194.985 374.689 195.409 373.76 196.256C372.858 197.103 372.407 198.579 372.407 200.684V212H366.667V189.286H372.407V192.812ZM404.358 200.151C404.358 200.971 404.303 201.709 404.194 202.365H387.589C387.726 204.005 388.3 205.29 389.311 206.219C390.322 207.148 391.566 207.613 393.042 207.613C395.174 207.613 396.691 206.697 397.593 204.866H403.784C403.128 207.053 401.871 208.857 400.012 210.278C398.153 211.672 395.871 212.369 393.165 212.369C390.978 212.369 389.01 211.891 387.261 210.934C385.539 209.95 384.186 208.57 383.202 206.793C382.245 205.016 381.767 202.966 381.767 200.643C381.767 198.292 382.245 196.229 383.202 194.452C384.159 192.675 385.498 191.309 387.22 190.352C388.942 189.395 390.924 188.917 393.165 188.917C395.324 188.917 397.251 189.382 398.946 190.311C400.668 191.24 401.994 192.566 402.923 194.288C403.88 195.983 404.358 197.937 404.358 200.151ZM398.413 198.511C398.386 197.035 397.853 195.86 396.814 194.985C395.775 194.083 394.504 193.632 393.001 193.632C391.58 193.632 390.377 194.069 389.393 194.944C388.436 195.791 387.849 196.98 387.63 198.511H398.413ZM414.288 192.812C415.026 191.609 415.982 190.666 417.158 189.983C418.36 189.3 419.727 188.958 421.258 188.958V194.985H419.741C417.937 194.985 416.57 195.409 415.641 196.256C414.739 197.103 414.288 198.579 414.288 200.684V212H408.548V189.286H414.288V192.812ZM433.816 212.369C431.957 212.369 430.29 212.041 428.814 211.385C427.338 210.702 426.163 209.786 425.288 208.638C424.441 207.49 423.976 206.219 423.894 204.825H429.675C429.784 205.7 430.208 206.424 430.946 206.998C431.711 207.572 432.654 207.859 433.775 207.859C434.868 207.859 435.716 207.64 436.317 207.203C436.946 206.766 437.26 206.205 437.26 205.522C437.26 204.784 436.877 204.237 436.112 203.882C435.374 203.499 434.185 203.089 432.545 202.652C430.85 202.242 429.456 201.818 428.363 201.381C427.297 200.944 426.368 200.274 425.575 199.372C424.81 198.47 424.427 197.254 424.427 195.723C424.427 194.466 424.782 193.318 425.493 192.279C426.231 191.24 427.27 190.42 428.609 189.819C429.976 189.218 431.575 188.917 433.406 188.917C436.112 188.917 438.271 189.6 439.884 190.967C441.497 192.306 442.385 194.124 442.549 196.42H437.055C436.973 195.518 436.59 194.807 435.907 194.288C435.251 193.741 434.363 193.468 433.242 193.468C432.203 193.468 431.397 193.659 430.823 194.042C430.276 194.425 430.003 194.958 430.003 195.641C430.003 196.406 430.386 196.994 431.151 197.404C431.916 197.787 433.105 198.183 434.718 198.593C436.358 199.003 437.711 199.427 438.777 199.864C439.843 200.301 440.759 200.985 441.524 201.914C442.317 202.816 442.727 204.019 442.754 205.522C442.754 206.834 442.385 208.009 441.647 209.048C440.936 210.087 439.898 210.907 438.531 211.508C437.192 212.082 435.62 212.369 433.816 212.369Z" fill="white"/>
<path d="M427.64 116.421C427.627 116.421 427.619 116.421 427.611 116.421C427.611 115.213 427.648 114.004 427.598 112.792C427.573 112.085 427.238 111.504 426.419 111.478C425.683 111.458 424.737 111.182 424.357 112.051C423.09 114.928 422.621 117.868 424.064 120.862C424.411 121.578 424.884 121.774 425.649 121.578C427.15 121.184 427.531 120.846 427.623 119.39C427.694 118.404 427.64 117.412 427.64 116.421ZM476.5 78.4418C476.417 78.1658 476.434 77.2082 475.965 76.7691C474.129 75.0546 472.239 73.3693 470.194 71.9224C466.543 69.3463 462.709 67.0254 459.062 64.4452C457.009 62.9941 454.859 61.6935 452.986 59.9497C449.95 57.1269 446.671 54.5719 443.476 51.9289C442.632 51.2264 441.649 50.6869 440.854 49.9342C437.668 46.9191 434.05 44.4476 430.534 41.859C430.002 41.4659 429.459 41.0812 428.878 40.7718C428.221 40.4163 427.631 40.8972 427.598 41.6918C427.531 43.0216 428.242 44.0461 429.07 44.8825C430.295 46.1161 431.663 47.2243 433.063 48.2656C437.613 51.6487 442.272 54.8896 446.763 58.3522C452.175 62.5299 457.615 66.6658 463.236 70.5633C465.118 71.8638 466.907 73.3065 468.718 74.7074C470.972 76.4471 473.193 78.2244 475.447 79.9599C475.881 80.2986 476.258 80.1188 476.409 79.5877C476.467 79.3786 476.446 79.1528 476.5 78.4418ZM495.825 76.4262C495.611 75.2385 495.448 74.168 495.21 73.1099C495.043 72.353 494.478 72.3531 493.972 72.7085C493.165 73.2772 492.4 73.9087 491.668 74.5694C490.689 75.4601 489.799 76.4429 488.812 77.3211C486.449 79.4413 484.036 81.503 481.669 83.6232C480.778 84.4261 479.98 85.3335 479.131 86.1908C477.801 87.5248 477.295 87.4704 476.513 85.8813C476.417 85.689 476.438 85.438 476.346 85.2499C475.714 83.9368 474.38 83.6399 473.226 83.0837C472.741 83.7862 472.256 84.4846 471.792 85.1955C471.612 85.4673 471.486 85.7768 471.311 86.057C470.111 87.9639 470.407 90.0423 470.612 92.1123C472.419 94.2868 474.113 96.5785 476.095 98.5774C476.965 99.4514 478.437 99.7316 479.637 100.271C480.607 100.714 481.594 100.334 481.924 99.2967C482.255 98.2596 482.531 97.1891 482.694 96.1102C483.191 92.8734 485.245 90.8745 487.942 89.3857C488.615 89.0135 489.326 88.6957 490.041 88.4114C491.76 87.7339 492.826 86.5212 493.763 84.8986C494.75 83.1757 494.503 81.2687 495.223 79.55C495.632 78.5798 495.645 77.4382 495.825 76.4262ZM430.584 128.394C430.35 129.235 431.529 129.824 432.34 130.431C433.82 131.543 435.485 132.392 437.024 133.421C441.39 136.344 445.747 139.279 450.075 142.257C451.485 143.231 453.421 143.52 454.203 145.351C454.24 145.439 454.525 145.443 454.696 145.46C456.386 145.623 457.619 146.673 458.928 147.61C460.622 148.822 462.374 149.951 464.068 151.16C464.804 151.687 465.452 151.67 466.192 151.206C469.069 149.399 472.13 147.844 474.79 145.765C477.63 143.536 480.331 141.115 483.313 139.045C484.659 138.108 485.981 137.138 487.315 136.176C490.422 133.935 493.525 131.693 496.636 129.456C497.97 128.499 499.342 127.595 500.63 126.587C500.864 126.403 500.801 125.847 500.881 125.463C500.584 125.437 500.195 125.283 500.011 125.412C495.95 128.344 491.651 130.907 487.436 133.6C484.948 135.194 482.493 136.841 479.992 138.409C477.416 140.024 474.798 141.571 472.193 143.131C470.19 144.327 468.35 145.665 467.476 147.957C467.396 148.157 467.275 148.45 467.121 148.496C466.623 148.626 466.071 148.797 465.594 148.684C465.276 148.617 464.917 148.136 464.829 147.777C464.616 146.94 464.871 145.744 464.377 145.272C462.654 143.616 460.86 141.897 458.786 140.76C456.214 139.346 453.672 137.87 451.096 136.469C446.968 134.219 442.74 132.17 438.789 129.607C437.697 128.896 436.501 128.331 435.372 127.675C434.427 127.131 433.524 126.512 432.562 125.998C431.767 125.575 431.01 125.964 430.805 126.83C430.734 127.148 430.713 127.478 430.584 128.394ZM519.176 41.4701C519.022 41.0812 518.8 40.5208 518.574 39.9604C518.093 40.1779 517.57 40.3327 517.144 40.6296C516.516 41.0561 515.939 41.5579 515.383 42.0765C511.833 45.3676 508.4 48.7842 504.732 51.9331C502.21 54.0951 499.94 56.4244 497.953 59.0674C497.226 60.0292 496.427 60.9533 495.57 61.8064C493.01 64.3657 490.401 66.8832 487.812 69.4216C485.496 71.6924 483.237 74.0258 480.67 76.0289C480.302 76.3216 480.03 76.9155 479.98 77.4006C479.863 78.6049 479.946 79.8344 479.127 80.8673C479.022 80.9927 479.056 81.227 479.022 81.4109C479.311 81.4151 479.666 81.528 479.871 81.4068C484.245 78.7722 487.842 75.1716 491.317 71.5501C494.269 68.4765 497.221 65.4153 500.354 62.534C502.123 60.9031 503.971 59.3559 505.665 57.658C508.136 55.1824 510.495 52.5939 512.933 50.0848C513.301 49.7084 513.803 49.4031 514.3 49.2191C515.396 48.8218 516.291 49.5996 516.111 50.7538C516.023 51.2974 515.839 51.8244 515.714 52.3597C514.722 56.5081 513.401 60.5938 513.485 64.9345C513.497 65.5702 513.23 66.2141 513.092 66.8497C512.853 67.9203 512.569 68.9784 512.389 70.0573C511.929 72.8549 511.54 75.6567 511.076 78.4502C510.365 82.7491 509.591 87.0397 508.906 91.3428C508.487 93.9356 507.998 96.5367 507.902 99.1462C507.81 101.58 507.128 103.901 506.961 106.297C506.756 109.254 506.543 112.185 505.807 115.079C505.435 116.534 505.096 118.128 506.539 119.365C506.748 119.545 506.723 119.976 506.857 120.269C506.999 120.595 507.199 120.896 507.379 121.21C507.584 120.858 507.927 120.528 507.986 120.152C508.341 117.893 508.726 115.635 508.918 113.364C509.11 111.06 509.081 108.739 509.173 106.427C509.198 105.774 509.106 104.984 509.424 104.495C510.336 103.085 510.173 101.555 510.302 100.029C510.44 98.4018 510.863 96.8043 511.026 95.1817C511.44 91.0417 512.698 87.0146 512.527 82.7868C512.456 80.9426 512.862 79.0775 513.142 77.2375C513.535 74.6489 514.225 72.0896 514.426 69.4927C514.911 63.1405 516.123 56.9346 517.508 50.7454C518.177 47.7596 518.599 44.7194 519.176 41.4701ZM486.068 116.359C486.842 116.02 487.649 115.74 488.377 115.326C489.422 114.724 490.342 113.841 491.446 113.427C492.676 112.963 493.278 112.365 493.144 111.035C492.864 108.212 494.332 105.703 494.658 102.985C494.712 102.479 495.131 102.015 495.377 101.53C496.958 98.4185 499.739 97.1681 502.988 96.6412C505.054 96.3067 505.397 95.9931 505.631 94.0234C506.079 90.2263 506.518 86.4292 506.94 82.6279C507.04 81.7539 507.003 80.8631 507.149 80.0017C507.747 76.5684 508.324 73.1351 509.027 69.7269C509.646 66.7201 510.482 63.7426 510.411 60.6564C510.386 59.5064 511.808 58.5404 510.754 57.3277C509.755 57.9758 508.751 58.6074 507.764 59.2806C507.501 59.4647 507.291 59.7364 507.074 59.979C505.317 61.9277 503.39 63.6757 501.324 65.3025C500.224 66.1681 499.291 67.2637 498.342 68.3092C497.439 69.3087 497.489 69.3213 498.468 70.58C498.706 70.8895 498.873 71.3202 498.911 71.7133C499.037 73.0306 498.974 74.3687 499.183 75.6651C499.701 78.8684 499.024 81.8458 497.799 84.7899C496.385 88.1772 494.215 90.6947 490.568 91.715C490.25 91.807 489.958 91.966 489.648 92.0914C487.791 92.8651 486.717 94.1781 486.416 96.2356C486.085 98.5021 485.579 100.748 485.069 102.981C484.496 105.494 482.899 106.184 480.707 104.938C479.854 104.445 479.03 103.897 478.136 103.495C477.922 103.395 477.274 103.725 477.186 103.985C476.877 104.905 477.032 106.234 476.438 106.757C475.02 107.995 475.271 109.772 474.556 111.207C474.322 111.671 474.489 112.741 474.857 113.005C475.61 113.557 475.902 112.645 476.266 112.135C476.521 111.78 476.772 111.412 477.086 111.11C478.261 109.969 478.83 109.998 480.268 110.734C482.067 111.658 482.899 113.335 483.831 114.937C484.333 115.798 484.956 116.262 486.068 116.359ZM414.078 98.8409C413.647 93.2957 413.313 89.5906 413.091 85.8771C412.966 83.9075 412.167 82.3351 410.728 81.068C409.583 80.0518 408.361 79.1276 407.191 78.1365C405.752 76.9238 405.388 75.456 406.162 73.7164C406.906 72.0186 407.638 70.3165 408.382 68.6228C409.39 66.3354 408.809 62.7808 406.831 61.4594C404.878 60.1588 402.82 58.9126 400.529 58.2476C399.952 58.0762 399.157 58.1766 398.622 58.4567C394.95 60.4138 391.316 62.4463 387.674 64.4661C386.587 65.0641 386.269 65.9381 386.365 67.2136C386.645 70.8267 386.762 74.4524 386.942 78.0738C386.95 78.1826 386.942 78.2913 386.955 78.4042C387.072 79.7925 387.385 79.9766 388.824 79.8846C390.798 79.7633 392.776 79.642 394.745 79.7257C396.155 79.7884 397.485 80.2484 398.538 81.3733C401.056 84.0539 402.369 87.2446 402.348 90.8787C402.335 92.5932 403.147 94.0025 403.439 95.5539C403.832 97.6574 405.238 98.4143 406.885 99.1629C407.354 99.3678 407.705 99.8947 408.023 100.338C409.139 101.894 409.838 103.617 409.67 105.561C409.528 107.251 410.001 108.806 410.528 110.353C410.59 110.537 411.427 110.696 411.489 110.6C412.02 109.781 412.744 108.936 412.861 108.028C413.334 104.378 414.404 100.765 414.078 98.8409ZM424.056 39.6092C422.446 40.3912 420.865 41.1272 419.322 41.9218C417.177 43.03 415.157 44.4518 412.915 45.2631C407.542 47.2118 402.569 50.0554 397.141 51.9122C392.399 53.5389 388.314 56.7506 383.488 58.3355C382.041 58.8081 380.653 59.4646 379.26 60.0877C377.232 60.9952 376.763 61.7354 377.027 63.8807C377.261 65.8336 377.537 67.7907 377.959 69.706C378.833 73.662 379.373 77.6682 379.854 81.687C380.017 82.9959 380.004 84.355 380.372 85.6012C380.974 87.6419 381.033 89.7119 381.204 91.7903C381.384 93.9607 381.669 96.1143 381.878 98.2805C382.129 100.907 382.078 103.596 382.643 106.151C383.55 110.232 383.739 114.389 384.249 118.504C384.667 121.849 384.705 125.27 385.257 128.628C385.871 132.417 385.633 136.273 386.411 140.078C387.189 143.925 387.352 147.894 387.816 151.808C387.929 152.783 388.155 153.744 388.33 154.719C388.481 155.538 389.125 155.484 389.572 155.208C391.224 154.163 392.813 153.013 394.448 151.925C396.527 150.541 398.71 149.291 400.692 147.773C403.54 145.581 406.132 143.06 409.018 140.935C415.019 136.524 420.748 131.719 427.41 128.277C427.602 128.172 427.928 128.08 427.953 127.934C428.091 127.307 428.284 126.642 428.179 126.035C428.041 125.216 427.33 125.554 426.87 125.705C426.26 125.906 425.678 126.199 425.126 126.525C423.717 127.357 422.333 128.227 420.949 129.097C417.269 131.409 413.468 133.559 409.942 136.093C405.217 139.484 400.257 142.512 395.385 145.678C395.113 145.857 394.816 146.016 394.511 146.133C393.721 146.447 392.96 146.401 392.437 145.669C391.998 145.042 391.475 144.385 391.325 143.67C390.957 141.964 390.618 140.224 390.576 138.489C390.451 132.659 389.535 126.947 388.314 121.268C388.176 120.624 388.004 119.976 387.921 119.328C387.536 116.283 387.118 113.243 386.825 110.19C386.474 106.485 385.37 102.851 385.666 99.0709C385.712 98.5314 385.579 97.9752 385.528 97.4316C385.269 94.383 384.454 91.4014 384.538 88.3026C384.588 86.4375 384.608 84.5097 384.211 82.7031C383.258 78.2996 382.605 73.8878 382.551 69.3756C382.534 67.9663 382.187 66.5528 381.932 65.1519C381.756 64.1775 382.024 63.0526 382.777 62.6428C384.993 61.4426 387.23 60.2801 389.476 59.1384C393.57 57.0559 397.652 54.9607 401.779 52.9535C405.409 51.1804 409.072 49.47 412.769 47.8265C416.357 46.229 420.012 44.7654 423.621 43.2097C424.763 42.7205 425.298 41.3237 424.817 40.1695C424.721 39.9312 424.336 39.8058 424.056 39.6092ZM430.91 115.485C430.91 116.919 430.801 118.031 430.943 119.119C431.04 119.83 431.311 120.72 431.822 121.139C433.519 122.514 435.288 123.827 437.162 124.957C440.896 127.202 444.702 129.335 448.511 131.455C452.028 133.416 455.579 135.311 459.129 137.209C460.526 137.958 461.529 139.187 463.144 139.773C466.033 140.831 466.33 140.881 467.15 137.912C467.271 137.49 467.267 137.034 467.367 136.607C467.698 135.227 468.003 133.835 468.408 132.475C468.881 130.903 469.764 130.238 470.633 130.673C471.328 131.02 471.687 132.082 471.11 133.333C470.24 135.194 470.286 137.473 468.555 138.962C468.266 139.212 468.183 139.76 468.116 140.183C468.07 140.48 468.141 140.885 468.329 141.078C468.484 141.241 468.927 141.266 469.17 141.17C469.881 140.881 470.583 140.555 471.231 140.153C474.493 138.15 477.743 136.118 480.992 134.09C484.321 132.011 487.67 129.958 490.97 127.834C494.349 125.659 497.673 123.393 501.052 121.205C502.072 120.545 502.524 119.804 502.428 118.496C502.223 115.652 502.386 112.85 503.394 110.077C504.372 107.393 504.611 104.516 504.506 101.639C504.452 100.087 503.967 99.7316 502.407 100.033C501.976 100.112 501.545 100.221 501.131 100.367C499.881 100.815 498.576 101.237 498.915 103.019C497.732 105.201 497.581 107.577 497.523 109.998C497.502 110.956 497.121 111.901 496.916 112.85C496.594 114.368 495.837 115.51 494.202 115.765C492.722 115.999 491.593 116.739 490.539 117.785C489.87 118.45 488.954 119.16 488.072 119.273C484.969 119.667 481.857 119.754 479.934 116.509C479.712 116.137 479.432 115.79 479.131 115.48C478.374 114.711 477.968 114.736 477.379 115.715C475.576 118.68 473.31 121.36 472.038 124.647C471.896 125.015 471.478 125.279 471.181 125.588C471.022 125.249 470.8 124.923 470.717 124.563C470.579 123.928 470.24 123.752 469.592 123.648C468.756 123.518 467.664 123.347 467.204 122.774C465.991 121.26 464.595 119.641 464.114 117.839C462.985 113.636 462.307 109.304 461.86 104.946C461.634 102.793 461.663 100.572 460.768 98.5063C460.521 97.9293 460.212 97.5822 459.597 97.5612C458.61 97.5236 457.603 97.419 456.628 97.5319C455.901 97.6239 454.981 97.8122 454.546 98.3098C452.906 100.175 450.895 101.705 449.916 104.185C449.122 106.209 447.825 108.058 445.843 109.237C444.534 110.011 443.982 110.094 442.895 109.015C441.82 107.957 440.47 107.284 439.583 105.912C438.362 104.018 435.828 103.985 434.59 105.954C432.717 108.944 430.069 111.767 430.91 115.485ZM417.419 96.0725C417.424 96.0725 417.428 96.0725 417.432 96.0725C417.432 98.498 417.302 100.932 417.461 103.345C417.691 106.908 416.035 109.726 414.137 112.44C412.518 114.744 409.528 114.845 407.642 112.842C406.68 111.821 406.877 110.583 406.902 109.396C406.944 107.497 406.551 105.825 405.635 104.068C404.757 102.383 404.138 100.819 402.147 100.196C401.595 100.024 401.123 99.3594 400.767 98.82C399.625 97.0929 398.852 95.2194 398.693 93.1118C398.308 87.9848 398.233 88.0141 396.079 84.2504C395.511 83.2552 394.795 82.6906 393.771 82.7031C391.826 82.7366 389.844 82.5735 387.983 83.3555C388.021 85.0868 387.971 86.8222 388.113 88.5493C388.305 90.8285 388.715 93.0909 388.907 95.3658C389.158 98.3098 388.962 101.291 389.999 104.139C390.179 104.641 390.246 105.222 390.233 105.762C390.166 108.522 390.639 111.207 391.132 113.904C391.705 117.019 392.625 120.097 392.491 123.313C394.156 128.281 393.566 133.525 394.398 138.606C394.921 141.818 395.126 141.5 397.522 140.141C401.135 138.088 404.723 135.896 407.998 133.349C411.836 130.376 415.788 127.679 420.209 125.672C420.405 125.58 420.572 125.429 420.748 125.299C421.61 124.651 421.819 123.991 421.104 123.108C418.9 120.398 419.176 117.274 419.836 114.276C420.221 112.536 421.442 110.952 422.425 109.388C423.136 108.254 424.629 108.827 425.632 108.242C425.72 108.187 425.85 108.208 425.95 108.175C427.255 107.757 427.184 107.765 427.038 106.377C426.9 105.08 426.854 103.75 426.958 102.454C426.987 102.082 427.623 101.622 428.075 101.467C428.376 101.375 428.94 101.668 429.191 101.961C429.547 102.354 429.739 102.901 429.969 103.399C430.726 105.017 430.843 105.13 432.081 103.725C433.281 102.358 434.849 101.864 436.43 101.626C439.106 101.212 441.649 101.634 443.33 104.156C443.573 104.516 443.769 104.93 444.07 105.231C444.539 105.699 445.613 105.528 445.768 104.9C446.742 100.94 449.921 98.6151 452.446 95.8216C453.069 95.1316 454.044 94.3997 454.893 94.3496C456.954 94.2325 459.116 94.1949 461.099 94.6799C464.381 95.487 464.984 97.1932 465.151 99.5225C465.381 102.684 465.741 105.841 466.071 108.994C466.125 109.538 466.238 110.107 466.464 110.596C467.041 111.826 467.049 113.134 467.204 114.435C467.33 115.497 467.627 116.605 468.133 117.534C468.513 118.236 469.291 119.081 469.985 119.177C471.135 119.336 471.499 118.132 471.863 117.216C472.156 116.501 472.49 115.794 472.657 115.05C473.519 111.198 474.351 107.326 473.925 103.341C473.858 102.734 473.561 102.107 473.214 101.597C471.428 98.9705 469.496 96.4363 467.819 93.7474C467.15 92.6768 466.514 91.2007 466.702 90.0507C467.192 87.0774 467.606 83.9535 469.927 81.6577C470.437 81.1558 470.524 80.7711 470.081 80.3027C469.483 79.6671 468.873 79.0273 468.191 78.492C466.644 77.2751 465.046 76.1293 463.482 74.9333C460.63 72.7545 457.95 70.3082 454.91 68.4472C451.911 66.6114 449.197 64.441 446.374 62.3919C444.601 61.1039 442.765 59.8995 441.03 58.5697C437.48 55.8431 433.979 53.0454 430.429 50.3147C430.124 50.0763 429.563 49.9133 429.246 50.0429C428.974 50.1516 428.719 50.7204 428.735 51.0758C428.911 55.128 428.484 59.2179 429.438 63.2283C429.58 63.8388 429.35 64.2779 428.71 64.4787C427.351 64.901 426.485 64.6167 426.051 63.3538C425.775 62.5508 425.703 61.6433 425.683 60.7819C425.574 56.922 425.528 53.0622 425.44 49.2024C425.381 46.7727 424.809 46.4465 422.73 47.5212C421.668 48.0732 420.572 48.6211 419.427 48.9681C414.873 50.3482 410.837 52.8448 406.584 54.8855C405.455 55.4333 405.434 56.4704 406.622 57.1269C408.487 58.1682 409.888 59.6695 411.243 61.2335C413.263 63.5712 413.53 66.1221 411.979 68.8361C411.544 69.593 411.121 70.3667 410.787 71.1696C408.838 75.8073 409.051 76.2882 413.091 78.4711C415.274 79.6546 416.491 81.5657 416.901 83.8908C417.265 85.9399 417.319 88.0434 417.403 90.1259C417.482 92.1039 417.419 94.0903 417.419 96.0725ZM387.599 161.071C386.152 161.092 385.027 160.13 385.366 159.03C386.03 156.864 385.148 154.94 384.801 152.921C384.671 152.164 384.575 151.402 384.496 150.641C384.211 148.036 383.939 145.427 383.668 142.821C383.655 142.713 383.668 142.591 383.63 142.495C382.02 137.954 382.714 133.128 381.89 128.494C381.271 125.019 381.443 121.473 380.916 118.036C380.343 114.251 380.347 110.408 379.632 106.682C379.001 103.416 379.36 100.083 378.587 96.888C377.654 93.0449 377.805 89.0804 376.926 85.2081C376.161 81.8249 376.199 78.2411 375.279 74.8664C374.384 71.5878 374.71 68.1294 373.43 64.8885C372.853 63.4248 373.025 61.6308 373.021 59.9874C373.017 59.1133 373.351 58.1056 374.371 57.9299C377.763 57.3445 380.732 55.6382 383.835 54.3335C387.452 52.8113 391.011 51.1219 394.486 49.2317C398.321 47.1449 402.386 45.4428 406.45 43.8203C412.343 41.4659 417.996 38.685 423.374 35.3228C424.947 34.3401 426.644 34.2648 428.25 35.5068C433.812 39.7848 439.75 43.5652 444.94 48.3367C446.926 50.1683 449.272 51.5651 451.301 53.3884C454.228 56.023 457.385 58.415 460.501 60.8279C462.307 62.2246 464.202 63.521 466.121 64.7672C469.6 67.0296 473.251 69.0327 476.3 71.914C477.859 73.3902 478.265 73.3233 479.892 71.8931C481.447 70.5256 482.945 69.0871 484.505 67.7238C485.567 66.7954 486.708 65.9632 487.796 65.0641C490.414 62.9104 492.312 60.0668 494.691 57.7208C496.866 55.5797 498.681 53.1082 501.023 51.1219C503.268 49.2233 505.384 47.1658 507.513 45.1292C509.562 43.1638 511.511 41.0854 513.589 39.1492C516.069 36.8408 518.616 34.6119 521.183 32.4081C521.547 32.0945 522.204 32.0526 522.731 32.0065C523.509 31.9396 523.998 32.3913 524.048 33.1566C524.086 33.6877 524.128 34.3568 523.856 34.7541C522.722 36.4393 522.898 38.3504 522.819 40.1863C522.722 42.4988 522.363 44.7361 521.865 46.9985C521.167 50.206 520.841 53.4888 520.355 56.7381C519.854 60.0919 519.356 63.4458 518.842 66.7912C518.712 67.6527 518.461 68.4932 518.377 69.3547C518.156 71.7592 518.101 74.1889 517.202 76.4805C517.161 76.5809 517.135 76.6938 517.123 76.7984C516.65 80.608 516.399 84.4553 515.668 88.2106C514.723 93.0616 515.249 98.0756 513.832 102.855C513.618 103.575 513.748 104.394 513.727 105.164C513.61 109.333 513 113.456 512.519 117.588C512.422 118.433 512.414 119.403 512.728 120.168C513.317 121.598 512.732 122.498 511.732 123.317C511.31 123.664 510.846 123.965 510.369 124.241C505.518 127.035 501.065 130.405 496.519 133.655C492.872 136.26 489.167 138.786 485.583 141.471C482.694 143.624 479.992 146.037 477.111 148.208C474.418 150.24 471.629 152.159 468.802 153.999C467.819 154.643 466.623 155.078 465.46 155.3C464.678 155.451 463.666 155.271 462.968 154.878C460.76 153.648 458.636 152.281 456.52 150.913C451.188 147.459 445.739 144.176 440.624 140.446C437.429 138.113 433.9 136.348 430.772 133.939C428.167 131.936 426.753 132.112 424.37 134.286C421.681 136.733 418.732 138.807 415.592 140.634C414.283 141.395 412.936 142.232 411.916 143.323C409.281 146.171 405.999 148.187 403.013 150.575C401.403 151.854 399.747 153.171 397.919 154.075C396.109 154.961 394.699 156.245 393.198 157.495C391.86 158.612 390.363 159.545 388.907 160.511C388.464 160.803 387.916 160.937 387.599 161.071Z" fill="#6C0070"/>
<path d="M447.529 80.3318C447.345 79.8341 447.148 79.0856 446.822 78.4081C445.676 76.0454 444.53 73.6868 443.28 71.3826C442.874 70.6341 442.209 69.9942 441.548 69.4338C440.712 68.7146 439.671 68.9363 439.102 69.9316C438.508 70.977 438.053 72.0977 437.484 73.1599C437.003 74.059 436.948 74.8201 437.237 75.9032C438.236 79.6376 438.283 83.4431 437.25 87.2151C436.777 88.938 436.836 89.122 438.228 89.8288C439.391 90.4226 440.528 91.0666 441.929 91.0457C442.678 91.0373 443.221 90.9286 443.518 90.226C444.848 87.1231 446.165 84.016 447.478 80.9047C447.52 80.8127 447.499 80.6914 447.529 80.3318ZM441.105 66.6111C442.753 66.7951 443.957 67.3263 444.852 68.6728C445.638 69.8479 446.475 70.9435 447.01 72.311C447.683 74.013 448.687 75.6063 449.666 77.1745C450.623 78.7092 450.836 80.2272 449.996 81.8498C448.52 84.6892 447.453 87.6709 446.525 90.7279C445.718 93.3917 443.618 94.5501 440.896 94.0566C438.931 93.7012 437.12 92.9735 435.589 91.6186C434.31 90.4895 433.783 89.143 434.209 87.4869C435.025 84.3213 434.878 81.164 434.272 77.9899C434.13 77.2372 434.159 76.451 434.051 75.6857C433.549 72.081 435.163 69.5301 438.124 67.7403C439.018 67.1966 440.106 66.9791 441.105 66.6111Z" fill="#6C0070"/>
<path d="M425.001 85.597C425.001 85.3754 424.984 85.1495 425.005 84.9321C425.097 84.2086 425.206 83.4894 425.31 82.7659C425.988 83.2301 426.824 83.5688 427.313 84.1878C428.639 85.8479 428.781 90.6571 427.598 92.3758C427.351 92.7396 426.728 92.9738 426.26 93.0031C426.021 93.0198 425.549 92.472 425.511 92.1416C425.264 89.9671 425.105 87.7841 424.913 85.6012C424.947 85.6012 424.976 85.597 425.001 85.597Z" fill="#6C0070"/>
<path d="M426.72 74.975C426.456 74.6321 425.925 74.2223 425.825 73.7246C425.72 73.2145 427.154 72.3322 427.836 72.558C428.208 72.6835 428.635 73.3399 428.635 73.7539C428.639 74.745 427.761 74.8161 426.72 74.975Z" fill="#6C0070"/>
</svg>
