<svg width="402" height="255" viewBox="0 0 402 255" fill="none" xmlns="http://www.w3.org/2000/svg">
<rect width="402" height="255" rx="20" fill="#BBBCD8"/>
<path d="M311.813 137.847C311.813 137.866 311.815 137.881 311.818 137.901C312.901 137.901 313.984 137.929 315.065 137.89C315.745 137.868 315.985 137.605 316.06 136.966C316.086 136.739 316.071 136.511 316.077 136.283C316.192 132.2 316.306 128.114 316.42 124.029C316.429 123.745 316.392 123.45 316.461 123.18C317.076 120.772 316.632 118.325 316.746 115.899C316.772 115.334 316.487 114.88 315.941 114.723C314.409 114.283 312.832 114.154 311.241 114.214C310.89 114.227 310.618 114.432 310.583 114.858C310.477 116.099 310.294 117.336 310.247 118.579C310.188 120.113 309.627 121.539 309.394 123.034C309.191 124.316 308.717 125.569 308.656 126.849C308.574 128.603 307.955 130.296 308.149 132.067C308.16 132.174 308.091 132.286 308.071 132.399C307.935 133.168 307.696 133.937 307.692 134.71C307.687 135.658 307.86 136.61 307.992 137.556C308.05 137.963 308.389 138.077 308.758 138.054C309.776 137.993 310.795 137.918 311.813 137.847ZM340.687 134.163C340.795 133.303 340.553 132.336 340.313 131.334C339.974 129.917 339.884 128.439 339.668 126.989C339.577 126.377 339.508 125.75 339.312 125.169C338.872 123.874 338.611 122.581 338.617 121.194C338.626 119.613 338.445 118.027 338.276 116.448C338.181 115.558 337.974 114.675 337.763 113.803C337.616 113.189 337.383 113.098 336.766 113.219C334.936 113.577 333.104 113.923 331.272 114.275C330.499 114.423 329.718 114.535 328.958 114.74C328.777 114.789 328.593 115.13 328.559 115.356C328.518 115.621 328.639 115.912 328.691 116.19C329.137 118.564 329.72 120.923 329.994 123.316C330.257 125.625 330.767 127.875 331.187 130.149C331.323 130.871 331.526 131.599 331.515 132.323C331.498 133.594 331.981 134.762 332.13 135.992C332.195 136.522 332.67 136.767 333.233 136.731C335.041 136.617 336.848 136.466 338.66 136.418C340.967 136.358 340.915 136.573 340.687 134.163ZM310.346 145.762C310.404 145.762 310.46 145.764 310.516 145.762C313.291 145.708 316.073 145.796 318.827 145.29C319.437 145.178 320.065 145.083 320.685 145.092C322.789 145.12 324.867 144.936 326.947 144.603C329.344 144.217 331.768 144.017 334.198 143.92C334.709 143.898 335.221 143.902 335.728 143.842C336.906 143.702 338.075 143.493 339.254 143.377C340.883 143.215 342.53 143.222 344.044 142.442C344.459 142.229 345.05 142.054 345.048 141.636C345.046 140.925 345.121 140.268 345.374 139.615C345.395 139.555 345.283 139.398 345.199 139.346C344.815 139.124 344.437 138.803 344.025 138.741C342.745 138.551 341.494 138.226 340.177 138.202C337.963 138.161 335.771 138.329 333.583 138.635C332.855 138.736 332.087 138.629 331.377 138.792C329.476 139.23 327.555 139.228 325.626 139.253C324.608 139.266 323.589 139.381 322.566 139.4C320.02 139.458 317.497 139.9 314.929 139.796C312.042 139.678 309.172 139.984 306.347 140.608C304.953 140.917 303.628 141.365 302.681 142.521C302.2 143.112 302.232 143.842 302.808 144.329C303.149 144.615 303.548 144.87 303.963 145.025C305.247 145.503 306.569 145.802 307.955 145.766C308.751 145.744 309.547 145.762 310.346 145.762ZM317.987 136.53C317.89 137.715 317.89 137.713 319.025 137.592C319.193 137.575 319.366 137.573 319.537 137.569C321.356 137.521 323.175 137.513 324.99 137.42C326.401 137.345 327.806 137.17 329.211 137.039C329.269 137.035 329.323 137.017 329.377 137.002C329.957 136.862 330.132 136.675 330.08 136.035C330.039 135.537 329.828 135.05 329.785 134.553C329.556 131.963 329.265 129.391 328.557 126.881C328.481 126.614 328.539 126.313 328.496 126.033C328.384 125.309 328.255 124.589 328.121 123.87C327.886 122.597 327.478 121.326 327.443 120.046C327.407 118.643 326.757 117.433 326.558 116.093C326.453 115.375 326.131 115.242 325.318 115.201C325.033 115.186 324.748 115.184 324.463 115.203C323.052 115.287 321.656 115.22 320.264 114.938C319.148 114.714 318.572 115.225 318.55 116.386C318.505 118.936 318.389 121.491 318.462 124.04C318.533 126.597 318.181 129.122 318.093 131.666C318.037 133.288 318.022 134.91 317.987 136.53ZM320.205 28.2863C320.201 28.2368 320.195 28.1872 320.188 28.1377C317.892 28.4458 315.598 28.7474 313.304 29.0576C313.192 29.0727 313.082 29.1114 312.979 29.1588C310.887 30.1218 308.792 31.074 306.714 32.0606C306.052 32.3752 305.417 32.75 304.798 33.1421C304.133 33.5686 303.486 34.0253 302.866 34.5122C302.733 34.6199 302.655 34.9431 302.715 35.1046C302.776 35.2705 303.028 35.4106 303.22 35.4644C303.868 35.6497 304.55 35.7337 305.178 35.962C306.77 36.5351 308.311 37.2891 310.065 37.2503C310.175 37.2503 310.294 37.2912 310.395 37.3386C311.925 38.0474 313.632 37.7802 315.214 38.2176C317.208 38.7691 319.267 38.0883 321.287 38.5084C322.044 38.6678 322.89 38.3942 323.654 38.5321C324.467 38.6786 325.223 38.433 325.991 38.3899C327.965 38.2736 329.974 38.1465 331.886 37.6812C333.859 37.2029 335.861 36.8711 337.819 36.2615C340.145 35.5355 342.415 34.7039 344.655 33.7625C344.903 33.6591 345.117 33.4781 345.35 33.3317C345.166 33.1399 345.02 32.875 344.793 32.7651C343.373 32.0649 341.968 31.3217 340.499 30.7444C338.186 29.8353 335.771 29.245 333.319 28.8335C332.035 28.6224 330.736 28.4953 329.465 28.226C327.676 27.8468 325.89 27.7155 324.073 27.9158C322.786 28.0558 321.496 28.1635 320.205 28.2863ZM324.196 113.613C326.213 113.387 328.35 113.163 330.484 112.909C331.097 112.835 331.71 112.708 332.312 112.573C334.183 112.15 336.047 111.707 337.918 111.282C338.908 111.056 339.92 110.901 340.9 110.634C342.506 110.196 343.011 109.524 343.091 107.894C343.095 107.838 343.086 107.782 343.093 107.723C343.354 105.548 342.702 103.471 342.381 101.357C342.284 100.718 341.91 100.603 341.254 100.922C340.952 101.071 340.661 101.263 340.341 101.353C337.629 102.116 334.951 103.014 332.091 103.15C330.969 103.206 329.856 103.471 328.738 103.626C328.345 103.682 327.946 103.721 327.551 103.738C326.707 103.775 325.864 103.665 325.035 104.031C324.713 104.173 324.254 104.033 323.863 103.986C323.365 103.925 322.875 103.772 322.374 103.751C320.849 103.682 319.338 103.622 317.84 103.217C316.423 102.835 314.96 102.594 313.503 102.391C311.645 102.133 309.871 101.575 308.145 100.896C306.93 100.425 306.882 100.364 306.496 101.553C306.375 101.926 306.237 102.327 306.257 102.706C306.345 104.369 305.916 105.963 305.691 107.583C305.449 109.315 306.464 110.856 308.153 111.254C308.755 111.399 309.364 111.528 309.962 111.696C311.757 112.202 313.587 112.558 315.428 112.831C316.66 113.016 317.92 113.01 319.165 113.12C320.799 113.266 322.428 113.439 324.196 113.613ZM289.038 67.2293C289.073 67.2315 289.105 67.2336 289.138 67.2358C289.138 67.9768 289.097 68.7179 289.148 69.4547C289.261 71.0833 289.418 72.7012 289.839 74.291C290.288 75.98 291.131 77.5591 291.239 79.3428C291.246 79.4484 291.311 79.5561 291.356 79.6595C292.625 82.5635 294.032 85.3813 295.998 87.8996C296.753 88.8712 297.584 89.8083 298.261 90.8144C299.14 92.1263 300.283 93.0828 301.481 94.0264C301.557 94.0824 301.705 94.1061 301.79 94.0695C301.85 94.048 301.91 93.8821 301.885 93.8088C301.496 92.7511 301.056 91.7106 300.695 90.6421C300.085 88.8238 299.472 86.9949 299.371 85.0625C299.25 82.682 299.161 80.3015 299.101 77.9189C299.06 76.2148 299.077 74.5065 299.096 72.8003C299.133 69.5301 298.991 66.2469 299.435 62.9897C299.796 60.314 300.329 57.66 300.488 54.9564C300.503 54.7388 300.624 54.5276 300.687 54.3079C301.205 52.4703 301.757 50.6392 302.228 48.7886C302.616 47.2569 303.015 45.6822 303.82 44.3659C304.739 42.8579 305.212 41.1603 306.151 39.6803C306.41 39.271 306.248 38.9371 305.799 38.7368C304.666 38.2327 303.518 37.7608 302.39 37.2481C300.909 36.5738 300.728 36.5976 299.675 37.832C299.53 38 299.44 38.2111 299.317 38.3964C298.667 39.3809 298.117 40.4516 297.338 41.3197C296.414 42.3495 295.872 43.5947 295.087 44.6933C294.828 45.0574 294.642 45.471 294.386 45.8373C292.156 48.9997 290.987 52.5673 290.469 56.348C290.301 57.5867 290.037 58.7867 289.712 59.9823C289.636 60.2516 289.515 60.5144 289.494 60.788C289.332 62.9336 289.187 65.0815 289.038 67.2293ZM300.998 79.3558C301.166 80.4631 301.412 81.5144 301.472 82.5786C301.591 84.6144 301.861 86.6243 302.327 88.6041C302.791 90.5645 303.257 92.5249 304.405 94.2483C304.964 95.0842 305.335 96.0428 305.875 96.8916C306.136 97.3009 306.537 97.6736 306.962 97.9192C308.337 98.7055 309.811 99.2441 311.326 99.7245C312.096 99.9701 312.858 100.071 313.635 100.179C314.148 100.254 314.306 99.9938 314.077 99.4768C313.43 98.0356 312.735 96.6137 312.113 95.1617C311.716 94.2332 311.246 93.2854 311.11 92.3052C310.9 90.8015 310.89 89.2741 310.635 87.7596C310.225 85.3102 310.359 82.8069 309.94 80.3424C309.504 77.7831 309.748 75.1571 309.263 72.5848C308.932 70.8226 308.848 69.0238 308.997 67.2228C309.025 66.8932 308.904 66.555 308.872 66.2211C308.844 65.9604 308.814 65.6955 308.835 65.4348C308.876 64.9307 308.958 64.4287 309.008 63.9246C309.142 62.6321 309.172 61.3158 309.416 60.0448C309.735 58.3903 310.171 56.7552 310.646 55.1373C311.039 53.7952 311.464 52.4423 312.057 51.182C312.562 50.1071 312.922 48.9954 313.339 47.8968C314.234 45.5206 314.97 43.0647 316.988 41.3047C317.085 41.2185 317.135 40.9815 317.087 40.8566C317.046 40.7445 316.854 40.6282 316.714 40.6131C315.372 40.4602 314.021 40.3546 312.681 40.178C311.79 40.0595 310.907 39.9259 310.02 39.689C308.721 39.3464 308.261 39.2775 307.517 40.9104C306.954 42.1405 306.362 43.3555 305.795 44.5835C305.251 45.7576 304.614 46.895 304.427 48.2113C304.349 48.7606 304.202 49.3251 303.963 49.8205C303.046 51.7228 302.711 53.7952 302.418 55.8288C302.107 58.0003 302.074 60.215 301.55 62.3693C301.431 62.8561 301.459 63.3839 301.453 63.8945C301.44 64.9156 301.496 65.9432 301.436 66.9622C301.377 67.9618 301.354 68.9506 301.429 69.9502C301.464 70.3853 301.265 70.8334 301.239 71.2772C301.207 71.8912 301.054 72.5892 301.28 73.1019C301.772 74.2092 300.909 75.31 301.425 76.3828C301.509 76.5573 301.418 76.8288 301.384 77.0485C301.261 77.8241 301.127 78.5975 300.998 79.3558ZM353.751 58.3149C353.643 60.2214 353.563 62.0892 353.421 63.9526C353.298 65.5813 353.177 67.2164 352.933 68.8299C352.579 71.1673 351.744 73.3906 351.125 75.6676C350.743 77.0701 350.205 78.4294 349.737 79.8017C348.829 82.4708 347.922 85.1292 346.791 87.7122C346.205 89.0543 345.46 90.3189 345.048 91.7536C344.731 92.876 344.116 93.9166 343.589 94.9722C343.091 95.9739 342.534 96.9476 342.009 97.9365C341.96 98.0291 341.897 98.2187 341.912 98.2273C342.048 98.2984 342.21 98.3996 342.34 98.3759C342.612 98.3199 342.886 98.2208 343.132 98.0937C344.323 97.4625 345.492 96.7839 346.699 96.1807C349.068 94.9958 350.704 92.9342 352.657 91.2474C353.25 90.7347 353.753 90.1143 354.297 89.5391C354.765 89.0457 355.309 88.6041 355.686 88.0526C357.838 84.8707 359.957 81.6759 361.291 78.0266C361.888 76.3936 362.458 74.7542 363 73.1019C363.805 70.6331 363.891 68.0544 363.984 65.5016C364.01 64.7389 364.292 63.9225 364.02 63.1922C363.598 62.0461 363.723 60.8483 363.5 59.6893C363.395 59.14 363.319 58.5799 363.147 58.0499C362.286 55.3786 361.688 52.6297 360.704 49.9886C360.35 49.0364 360.061 48.0691 359.541 47.1945C358.557 45.5421 357.583 43.8855 356.558 42.259C356.14 41.5912 355.663 40.9341 355.095 40.3913C353.628 38.9802 352.111 37.6122 350.577 36.2701C349.86 35.6432 349.059 35.1111 348.287 34.5488C347.939 34.2903 347.59 34.2278 347.199 34.523C346.494 35.0529 345.762 35.5463 345.044 36.0568C345.561 36.7936 346.06 37.5433 346.604 38.2563C347.318 39.1935 348.203 40.0272 348.772 41.0375C349.739 42.7545 350.51 44.5813 351.375 46.3564C351.692 47.0135 352.156 47.6253 352.344 48.3147C352.773 49.8873 353.179 51.4815 353.395 53.0907C353.632 54.8271 353.645 56.5914 353.751 58.3149ZM307.491 154.68C307.491 155.419 307.478 156.16 307.493 156.897C307.538 158.991 307.787 161.05 308.488 163.047C308.652 163.513 308.831 163.905 309.278 164.069C310.126 164.368 310.98 164.771 311.856 164.842C313.947 165.012 316.054 165.027 318.153 165.079C320.993 165.152 323.803 164.79 326.606 164.42C329.407 164.049 332.219 163.795 335.011 163.312C336.584 163.041 338.099 162.72 339.59 162.169C340.449 161.85 341.043 161.423 341.194 160.443C341.321 159.614 341.692 158.819 341.798 157.987C342.107 155.585 342.081 153.153 342.387 150.744C342.579 149.23 342.331 147.709 342.063 146.205C341.912 145.359 341.716 145.21 340.795 145.404C340.52 145.46 340.246 145.546 339.966 145.563C338.162 145.665 336.362 145.729 334.564 146.039C332.176 146.451 329.729 146.315 327.316 146.724C325.21 147.08 323.05 147.123 320.911 147.298C320.007 147.375 319.101 147.425 318.194 147.489C315.206 147.7 312.219 147.94 309.228 148.108C307.817 148.189 308.164 148.168 307.692 149.256C307.497 149.702 307.508 150.255 307.5 150.762C307.474 152.067 307.491 153.375 307.491 154.68ZM351.977 60.215C351.893 58.4894 351.765 57.0762 351.77 55.663C351.781 53.946 351.386 52.3152 350.991 50.665C350.566 48.8877 349.67 47.2979 349.064 45.596C348.563 44.2 347.892 42.9074 346.99 41.7334C345.989 40.4343 344.983 39.1396 344.006 37.8255C343.365 36.9681 342.661 36.507 341.591 37.1383C341.364 37.2697 341.004 37.162 340.762 37.2805C339.064 38.0969 337.273 38.601 335.436 38.991C334.776 39.1331 334.146 39.4046 333.505 39.6136C333.33 40.4322 334.23 40.7941 334.316 41.5222C334.353 41.8325 334.59 42.1341 334.78 42.4098C336.593 45.0122 337.43 48.0239 338.196 51.0183C338.699 52.9679 338.822 55.0361 338.924 57.0611C339.062 59.7647 339.096 62.4662 338.656 65.172C338.339 67.1194 338.352 69.1208 338.283 71.1005C338.248 72.1174 338.196 73.1105 337.931 74.1058C337.495 75.7366 337.176 77.3932 336.772 79.0326C336.381 80.6225 335.853 82.1865 335.551 83.7936C335.205 85.629 334.547 87.3611 333.921 89.0931C333.216 91.0406 332.622 93.0634 331.446 94.8192C331.384 94.9118 331.334 95.0152 331.293 95.1186C330.495 97.1523 329.791 99.2247 328.673 101.123C328.583 101.278 328.57 101.609 328.671 101.715C328.796 101.851 329.088 101.898 329.293 101.877C329.97 101.806 330.643 101.573 331.31 101.609C333.283 101.713 335.104 100.989 336.994 100.668C337.65 100.554 338.224 100.17 338.684 99.6168C339.517 98.615 340.305 97.5961 340.853 96.4026C341.75 94.4551 342.726 92.5443 343.578 90.5753C344.312 88.8798 345.251 87.2749 345.7 85.4481C345.965 84.3688 346.483 83.3369 346.999 82.3416C347.601 81.1869 348.116 80.0279 348.393 78.7375C348.768 76.9839 349.228 75.2411 349.769 73.5306C350.21 72.1324 350.838 70.7946 350.805 69.2823C350.801 69.0066 350.876 68.7093 350.989 68.4551C351.384 67.5417 351.407 66.583 351.416 65.6157C351.418 65.2194 351.362 64.7928 351.489 64.433C352.012 62.9552 351.586 61.3847 351.977 60.215ZM337.365 60.2731C337.221 58.875 337.063 57.4769 336.938 56.0787C336.714 53.5474 336.492 51.0291 335.583 48.612C334.53 45.8092 333.304 43.1121 331.535 40.6756C331.267 40.3051 331.008 40.1069 330.587 40.1047C330.247 40.1047 329.903 40.122 329.567 40.1694C326.923 40.5421 324.267 40.9083 321.6 40.7359C320.113 40.6411 319.105 41.2163 318.237 42.2827C317.989 42.5908 317.713 42.8816 317.499 43.2112C316.511 44.73 315.769 46.3758 315.126 48.0648C314.768 49.0084 314.623 50.0683 314.122 50.9214C313.587 51.837 313.389 52.8064 313.117 53.7801C312.935 54.4307 312.832 55.1179 312.551 55.7233C311.654 57.6449 311.261 59.7281 311.092 61.7682C310.836 64.8725 310.937 68.0113 311.023 71.1329C311.069 72.8714 311.507 74.5991 311.565 76.3376C311.634 78.494 311.932 80.6139 312.202 82.7444C312.273 83.3046 312.174 83.9056 312.327 84.4356C312.875 86.3012 312.756 88.2443 312.994 90.1423C313.24 92.15 313.775 94.007 314.541 95.8317C315.08 97.1178 315.937 98.2574 316.285 99.6426C316.423 100.196 316.837 100.636 317.417 100.838C318.007 101.043 318.587 101.295 319.189 101.422C319.852 101.56 320.577 101.463 321.209 101.674C322.376 102.058 323.578 101.879 324.752 102.058C325.587 102.183 326.181 101.79 326.567 101.071C327.284 99.7331 328.052 98.4212 328.691 97.0467C329.638 95.0045 330.492 92.917 331.377 90.8445C332.135 89.0802 332.836 87.2921 333.237 85.4071C333.684 83.3132 334.172 81.2343 334.774 79.1791C335.298 77.3997 335.715 75.5858 336.11 73.774C336.276 73.0049 336.153 72.1691 336.349 71.4172C336.643 70.2992 336.664 69.1811 336.714 68.0479C336.781 66.4645 336.738 64.8553 337.005 63.302C337.18 62.2917 337.268 61.2986 337.365 60.2731ZM305.249 154.633C305.249 154.348 305.264 154.064 305.247 153.78C305.141 151.962 305.318 150.169 305.79 148.409C305.929 147.894 305.667 147.573 305.247 147.545C304.112 147.468 303.216 146.858 302.292 146.332C300.704 145.43 300.257 143.319 301.095 141.727C301.988 140.018 303.516 139.286 305.191 138.698C305.458 138.605 305.859 138.616 305.978 138.435C306.146 138.178 306.144 137.791 306.153 137.457C306.203 135.583 306.252 133.708 306.267 131.832C306.278 130.582 306.358 129.348 306.751 128.152C306.787 128.047 306.82 127.933 306.824 127.823C306.93 124.585 307.862 121.494 308.516 118.353C308.771 117.135 308.855 115.882 308.993 114.643C309.055 114.102 308.978 113.63 308.326 113.449C307.948 113.344 307.614 113.085 307.234 112.988C305.829 112.629 304.819 111.84 304.204 110.509C303.671 109.352 303.188 108.223 303.825 106.943C303.919 106.754 303.863 106.495 303.896 106.274C304.17 104.208 304.342 102.12 304.988 100.123C305.119 99.7137 304.938 99.4552 304.666 99.2441C303.374 98.2337 302.064 97.2406 300.76 96.2432C300.443 96.0041 300.039 95.8296 299.819 95.5215C298.343 93.4598 296.224 91.9389 295.029 89.6145C294.396 88.3822 293.361 87.3503 292.579 86.1698C291.101 83.9401 290.089 81.5165 289.386 78.9529C289.297 78.6276 289.168 78.3131 289.032 78.0029C288.622 77.0722 288.173 76.161 288.084 75.1183C288.056 74.7951 287.879 74.4742 287.718 74.1812C287.118 73.104 286.975 71.9493 287.003 70.7386C287.062 68.2397 287.016 65.7364 287.146 63.2417C287.217 61.8457 287.556 60.4649 287.774 59.0753C287.862 58.5238 287.931 57.9637 288.048 57.4165C288.223 56.5893 288.374 55.7491 288.641 54.9499C288.889 54.211 288.587 53.3342 289.23 52.6944C289.336 52.5888 289.362 52.3841 289.388 52.2204C289.763 49.7861 290.685 47.5844 292.057 45.5335C293.246 43.7541 294.25 41.8497 295.434 40.0681C296.283 38.7949 297.279 37.6251 298.231 36.4252C298.861 35.6303 299.552 34.8827 300.171 34.0792C300.916 33.1098 301.973 32.5109 302.948 31.8775C304.595 30.809 306.36 29.9171 308.119 29.036C311.351 27.416 312.4 27.2437 316.502 26.5887C318.818 26.216 321.149 26.4595 323.442 26.1213C325.156 25.8692 326.852 26.0631 328.531 26.2247C330.374 26.4013 332.234 26.6232 334.025 27.1963C335.041 27.5194 336.097 27.7391 337.148 27.9287C338.77 28.2217 340.333 28.6547 341.763 29.5121C342.242 29.8008 342.806 29.9494 343.317 30.1886C344.081 30.5483 344.83 30.9361 345.585 31.3066C345.995 31.507 346.388 31.7482 346.817 31.8883C349.139 32.6487 350.937 34.1826 352.67 35.8112C353.164 36.2701 353.641 36.757 354.169 37.1727C355.637 38.3317 356.897 39.6825 358.073 41.1366C359.15 42.468 359.845 43.9932 360.661 45.471C361.593 47.1578 362.255 48.9481 363.082 50.6693C363.589 51.7314 363.58 52.8516 363.954 53.9137C364.493 55.4454 364.819 57.0632 365.199 58.6445C365.656 60.5532 365.831 62.548 365.939 64.5149C366.066 66.8889 366.042 69.278 365.393 71.6025C365.255 72.0872 365.076 72.5655 364.968 73.0566C364.349 75.8077 363.287 78.4122 362.273 81.0296C362.15 81.3399 361.925 81.6113 361.746 81.9C361.478 82.333 361.12 82.7358 360.961 83.2055C360.397 84.8449 359.342 86.1568 358.237 87.4386C358.162 87.5227 358.021 87.6023 358.015 87.6907C357.931 88.9359 356.811 89.371 356.109 90.1272C355.309 90.9932 354.433 91.7924 353.665 92.6865C351.42 95.3039 348.615 97.1781 345.65 98.8542C345.11 99.1601 344.577 99.4832 344.044 99.7999C344.198 100.446 344.355 101.092 344.5 101.741C344.623 102.288 344.839 102.846 344.817 103.391C344.782 104.333 345.151 105.231 344.942 106.211C344.754 107.084 344.916 108.023 344.869 108.932C344.8 110.289 343.727 111.465 342.227 111.898C341.63 112.069 341.028 112.217 340.441 112.415C339.718 112.661 339.595 112.835 339.713 113.536C339.983 115.138 340.3 116.735 340.574 118.335C340.65 118.779 340.641 119.238 340.659 119.69C340.704 120.826 340.734 121.963 340.784 123.096C340.792 123.323 340.81 123.557 340.885 123.766C341.485 125.425 341.709 127.151 341.807 128.9C341.83 129.294 341.882 129.693 341.971 130.074C342.402 131.95 342.674 133.846 342.724 135.774C342.745 136.574 342.858 136.664 343.699 136.886C345.577 137.381 346.41 138.383 346.593 140.352C346.651 140.97 346.772 141.584 346.807 142.203C346.852 143.058 346.595 143.76 345.719 144.124C345.41 144.249 345.11 144.437 344.86 144.656C344.366 145.087 344.137 145.598 344.241 146.311C344.579 148.622 344.469 150.94 344.267 153.258C344.122 154.887 343.764 156.49 343.772 158.142C343.779 159.456 343.211 160.673 342.717 161.871C342.279 162.938 341.334 163.487 340.277 163.81C336.804 164.868 333.24 165.409 329.627 165.73C327.944 165.878 326.284 166.242 324.614 166.507C324.446 166.531 324.275 166.546 324.105 166.553C322.4 166.617 320.697 166.68 318.993 166.74C318.766 166.749 318.509 166.677 318.315 166.757C317.018 167.276 315.743 166.815 314.459 166.725C314.068 166.697 313.667 166.632 313.285 166.684C311.725 166.893 310.247 166.626 308.775 166.107C307.797 165.764 307.031 165.2 306.643 164.278C306.276 163.405 306.073 162.464 305.827 161.542C305.756 161.275 305.866 160.951 305.773 160.697C305.07 158.717 305.275 156.667 305.249 154.633Z" fill="#36385F"/>
<path d="M50.589 167L44.275 155.848H41.569V167H35.829V138.382H46.571C48.785 138.382 50.671 138.778 52.229 139.571C53.787 140.336 54.9487 141.389 55.714 142.728C56.5067 144.04 56.903 145.516 56.903 147.156C56.903 149.042 56.3563 150.75 55.263 152.281C54.1697 153.784 52.5433 154.823 50.384 155.397L57.231 167H50.589ZM41.569 151.543H46.366C47.924 151.543 49.0857 151.174 49.851 150.436C50.6163 149.671 50.999 148.618 50.999 147.279C50.999 145.967 50.6163 144.956 49.851 144.245C49.0857 143.507 47.924 143.138 46.366 143.138H41.569V151.543ZM83.2096 155.151C83.2096 155.971 83.155 156.709 83.0456 157.365H66.4406C66.5773 159.005 67.1513 160.29 68.1626 161.219C69.174 162.148 70.4176 162.613 71.8936 162.613C74.0256 162.613 75.5426 161.697 76.4446 159.866H82.6356C81.9796 162.053 80.7223 163.857 78.8636 165.278C77.005 166.672 74.7226 167.369 72.0166 167.369C69.83 167.369 67.862 166.891 66.1126 165.934C64.3906 164.95 63.0376 163.57 62.0536 161.793C61.097 160.016 60.6186 157.966 60.6186 155.643C60.6186 153.292 61.097 151.229 62.0536 149.452C63.0103 147.675 64.3496 146.309 66.0716 145.352C67.7936 144.395 69.7753 143.917 72.0166 143.917C74.176 143.917 76.103 144.382 77.7976 145.311C79.5196 146.24 80.8453 147.566 81.7746 149.288C82.7313 150.983 83.2096 152.937 83.2096 155.151ZM77.2646 153.511C77.2373 152.035 76.7043 150.86 75.6656 149.985C74.627 149.083 73.356 148.632 71.8526 148.632C70.4313 148.632 69.2286 149.069 68.2446 149.944C67.288 150.791 66.7003 151.98 66.4816 153.511H77.2646ZM85.9233 155.561C85.9233 153.265 86.3743 151.229 87.2763 149.452C88.2056 147.675 89.4493 146.309 91.0073 145.352C92.5926 144.395 94.3556 143.917 96.2963 143.917C97.991 143.917 99.467 144.259 100.724 144.942C102.009 145.625 103.034 146.486 103.799 147.525V144.286H109.58V167H103.799V163.679C103.061 164.745 102.036 165.633 100.724 166.344C99.4396 167.027 97.95 167.369 96.2553 167.369C94.342 167.369 92.5926 166.877 91.0073 165.893C89.4493 164.909 88.2056 163.529 87.2763 161.752C86.3743 159.948 85.9233 157.884 85.9233 155.561ZM103.799 155.643C103.799 154.249 103.526 153.06 102.979 152.076C102.433 151.065 101.695 150.299 100.765 149.78C99.836 149.233 98.8383 148.96 97.7723 148.96C96.7063 148.96 95.7223 149.22 94.8203 149.739C93.9183 150.258 93.1803 151.024 92.6063 152.035C92.0596 153.019 91.7863 154.194 91.7863 155.561C91.7863 156.928 92.0596 158.13 92.6063 159.169C93.1803 160.18 93.9183 160.959 94.8203 161.506C95.7496 162.053 96.7336 162.326 97.7723 162.326C98.8383 162.326 99.836 162.066 100.765 161.547C101.695 161 102.433 160.235 102.979 159.251C103.526 158.24 103.799 157.037 103.799 155.643ZM120.926 136.66V167H115.186V136.66H120.926ZM144.064 149.944V154.782H126.68V149.944H144.064ZM169.976 138.382V143.015H162.35V167H156.61V143.015H148.984V138.382H169.976ZM177.075 141.58C176.064 141.58 175.216 141.266 174.533 140.637C173.877 139.981 173.549 139.175 173.549 138.218C173.549 137.261 173.877 136.469 174.533 135.84C175.216 135.184 176.064 134.856 177.075 134.856C178.086 134.856 178.92 135.184 179.576 135.84C180.259 136.469 180.601 137.261 180.601 138.218C180.601 139.175 180.259 139.981 179.576 140.637C178.92 141.266 178.086 141.58 177.075 141.58ZM179.904 144.286V167H174.164V144.286H179.904ZM213.783 143.958C216.571 143.958 218.812 144.819 220.507 146.541C222.229 148.236 223.09 150.614 223.09 153.675V167H217.35V154.454C217.35 152.677 216.899 151.324 215.997 150.395C215.095 149.438 213.865 148.96 212.307 148.96C210.749 148.96 209.505 149.438 208.576 150.395C207.674 151.324 207.223 152.677 207.223 154.454V167H201.483V154.454C201.483 152.677 201.032 151.324 200.13 150.395C199.228 149.438 197.998 148.96 196.44 148.96C194.855 148.96 193.597 149.438 192.668 150.395C191.766 151.324 191.315 152.677 191.315 154.454V167H185.575V144.286H191.315V147.033C192.053 146.076 192.996 145.325 194.144 144.778C195.319 144.231 196.604 143.958 197.998 143.958C199.775 143.958 201.36 144.341 202.754 145.106C204.148 145.844 205.228 146.91 205.993 148.304C206.731 146.992 207.797 145.94 209.191 145.147C210.612 144.354 212.143 143.958 213.783 143.958ZM249.652 155.151C249.652 155.971 249.597 156.709 249.488 157.365H232.883C233.02 159.005 233.594 160.29 234.605 161.219C235.616 162.148 236.86 162.613 238.336 162.613C240.468 162.613 241.985 161.697 242.887 159.866H249.078C248.422 162.053 247.165 163.857 245.306 165.278C243.447 166.672 241.165 167.369 238.459 167.369C236.272 167.369 234.304 166.891 232.555 165.934C230.833 164.95 229.48 163.57 228.496 161.793C227.539 160.016 227.061 157.966 227.061 155.643C227.061 153.292 227.539 151.229 228.496 149.452C229.453 147.675 230.792 146.309 232.514 145.352C234.236 144.395 236.218 143.917 238.459 143.917C240.618 143.917 242.545 144.382 244.24 145.311C245.962 146.24 247.288 147.566 248.217 149.288C249.174 150.983 249.652 152.937 249.652 155.151ZM243.707 153.511C243.68 152.035 243.147 150.86 242.108 149.985C241.069 149.083 239.798 148.632 238.295 148.632C236.874 148.632 235.671 149.069 234.687 149.944C233.73 150.791 233.143 151.98 232.924 153.511H243.707ZM55.304 188.382V193.015H47.678V217H41.938V193.015H34.312V188.382H55.304ZM65.2321 197.812C65.9701 196.609 66.9268 195.666 68.1021 194.983C69.3048 194.3 70.6714 193.958 72.2021 193.958V199.985H70.6851C68.8811 199.985 67.5144 200.409 66.5851 201.256C65.6831 202.103 65.2321 203.579 65.2321 205.684V217H59.4921V194.286H65.2321V197.812ZM74.5923 205.561C74.5923 203.265 75.0433 201.229 75.9453 199.452C76.8746 197.675 78.1183 196.309 79.6763 195.352C81.2616 194.395 83.0246 193.917 84.9653 193.917C86.6599 193.917 88.1359 194.259 89.3933 194.942C90.6779 195.625 91.7029 196.486 92.4683 197.525V194.286H98.2493V217H92.4683V213.679C91.7303 214.745 90.7053 215.633 89.3933 216.344C88.1086 217.027 86.6189 217.369 84.9243 217.369C83.0109 217.369 81.2616 216.877 79.6763 215.893C78.1183 214.909 76.8746 213.529 75.9453 211.752C75.0433 209.948 74.5923 207.884 74.5923 205.561ZM92.4683 205.643C92.4683 204.249 92.1949 203.06 91.6483 202.076C91.1016 201.065 90.3636 200.299 89.4343 199.78C88.5049 199.233 87.5073 198.96 86.4413 198.96C85.3753 198.96 84.3913 199.22 83.4893 199.739C82.5873 200.258 81.8493 201.024 81.2753 202.035C80.7286 203.019 80.4553 204.194 80.4553 205.561C80.4553 206.928 80.7286 208.13 81.2753 209.169C81.8493 210.18 82.5873 210.959 83.4893 211.506C84.4186 212.053 85.4026 212.326 86.4413 212.326C87.5073 212.326 88.5049 212.066 89.4343 211.547C90.3636 211 91.1016 210.235 91.6483 209.251C92.1949 208.24 92.4683 207.037 92.4683 205.643ZM113.326 211.711L119.066 194.286H125.175L116.77 217H109.8L101.436 194.286H107.586L113.326 211.711ZM149.514 205.151C149.514 205.971 149.46 206.709 149.35 207.365H132.745C132.882 209.005 133.456 210.29 134.467 211.219C135.479 212.148 136.722 212.613 138.198 212.613C140.33 212.613 141.847 211.697 142.749 209.866H148.94C148.284 212.053 147.027 213.857 145.168 215.278C143.31 216.672 141.027 217.369 138.321 217.369C136.135 217.369 134.167 216.891 132.417 215.934C130.695 214.95 129.342 213.57 128.358 211.793C127.402 210.016 126.923 207.966 126.923 205.643C126.923 203.292 127.402 201.229 128.358 199.452C129.315 197.675 130.654 196.309 132.376 195.352C134.098 194.395 136.08 193.917 138.321 193.917C140.481 193.917 142.408 194.382 144.102 195.311C145.824 196.24 147.15 197.566 148.079 199.288C149.036 200.983 149.514 202.937 149.514 205.151ZM143.569 203.511C143.542 202.035 143.009 200.86 141.97 199.985C140.932 199.083 139.661 198.632 138.157 198.632C136.736 198.632 135.533 199.069 134.549 199.944C133.593 200.791 133.005 201.98 132.786 203.511H143.569ZM159.444 186.66V217H153.704V186.66H159.444ZM184.766 217.287C182.77 217.287 180.966 216.945 179.354 216.262C177.768 215.579 176.511 214.595 175.582 213.31C174.652 212.025 174.174 210.508 174.147 208.759H180.297C180.379 209.934 180.789 210.864 181.527 211.547C182.292 212.23 183.331 212.572 184.643 212.572C185.982 212.572 187.034 212.258 187.8 211.629C188.565 210.973 188.948 210.126 188.948 209.087C188.948 208.24 188.688 207.543 188.169 206.996C187.649 206.449 186.993 206.026 186.201 205.725C185.435 205.397 184.369 205.042 183.003 204.659C181.144 204.112 179.627 203.579 178.452 203.06C177.304 202.513 176.306 201.707 175.459 200.641C174.639 199.548 174.229 198.099 174.229 196.295C174.229 194.6 174.652 193.124 175.5 191.867C176.347 190.61 177.536 189.653 179.067 188.997C180.597 188.314 182.347 187.972 184.315 187.972C187.267 187.972 189.658 188.696 191.49 190.145C193.348 191.566 194.373 193.562 194.565 196.131H188.251C188.196 195.147 187.772 194.341 186.98 193.712C186.214 193.056 185.189 192.728 183.905 192.728C182.784 192.728 181.882 193.015 181.199 193.589C180.543 194.163 180.215 194.997 180.215 196.09C180.215 196.855 180.461 197.498 180.953 198.017C181.472 198.509 182.101 198.919 182.839 199.247C183.604 199.548 184.67 199.903 186.037 200.313C187.895 200.86 189.412 201.406 190.588 201.953C191.763 202.5 192.774 203.32 193.622 204.413C194.469 205.506 194.893 206.941 194.893 208.718C194.893 210.249 194.496 211.67 193.704 212.982C192.911 214.294 191.749 215.346 190.219 216.139C188.688 216.904 186.87 217.287 184.766 217.287ZM221.312 194.286V217H215.531V214.13C214.793 215.114 213.823 215.893 212.62 216.467C211.445 217.014 210.16 217.287 208.766 217.287C206.989 217.287 205.418 216.918 204.051 216.18C202.684 215.415 201.605 214.308 200.812 212.859C200.047 211.383 199.664 209.634 199.664 207.611V194.286H205.404V206.791C205.404 208.595 205.855 209.989 206.757 210.973C207.659 211.93 208.889 212.408 210.447 212.408C212.032 212.408 213.276 211.93 214.178 210.973C215.08 209.989 215.531 208.595 215.531 206.791V194.286H221.312ZM232.715 197.566C233.453 196.527 234.465 195.666 235.749 194.983C237.061 194.272 238.551 193.917 240.218 193.917C242.159 193.917 243.908 194.395 245.466 195.352C247.052 196.309 248.295 197.675 249.197 199.452C250.127 201.201 250.591 203.238 250.591 205.561C250.591 207.884 250.127 209.948 249.197 211.752C248.295 213.529 247.052 214.909 245.466 215.893C243.908 216.877 242.159 217.369 240.218 217.369C238.551 217.369 237.075 217.027 235.79 216.344C234.533 215.661 233.508 214.8 232.715 213.761V227.824H226.975V194.286H232.715V197.566ZM244.728 205.561C244.728 204.194 244.441 203.019 243.867 202.035C243.321 201.024 242.583 200.258 241.653 199.739C240.751 199.22 239.767 198.96 238.701 198.96C237.663 198.96 236.679 199.233 235.749 199.78C234.847 200.299 234.109 201.065 233.535 202.076C232.989 203.087 232.715 204.276 232.715 205.643C232.715 207.01 232.989 208.199 233.535 209.21C234.109 210.221 234.847 211 235.749 211.547C236.679 212.066 237.663 212.326 238.701 212.326C239.767 212.326 240.751 212.053 241.653 211.506C242.583 210.959 243.321 210.18 243.867 209.169C244.441 208.158 244.728 206.955 244.728 205.561ZM260.503 197.566C261.241 196.527 262.252 195.666 263.537 194.983C264.849 194.272 266.338 193.917 268.006 193.917C269.946 193.917 271.696 194.395 273.254 195.352C274.839 196.309 276.083 197.675 276.985 199.452C277.914 201.201 278.379 203.238 278.379 205.561C278.379 207.884 277.914 209.948 276.985 211.752C276.083 213.529 274.839 214.909 273.254 215.893C271.696 216.877 269.946 217.369 268.006 217.369C266.338 217.369 264.862 217.027 263.578 216.344C262.32 215.661 261.295 214.8 260.503 213.761V227.824H254.763V194.286H260.503V197.566ZM272.516 205.561C272.516 204.194 272.229 203.019 271.655 202.035C271.108 201.024 270.37 200.258 269.441 199.739C268.539 199.22 267.555 198.96 266.489 198.96C265.45 198.96 264.466 199.233 263.537 199.78C262.635 200.299 261.897 201.065 261.323 202.076C260.776 203.087 260.503 204.276 260.503 205.643C260.503 207.01 260.776 208.199 261.323 209.21C261.897 210.221 262.635 211 263.537 211.547C264.466 212.066 265.45 212.326 266.489 212.326C267.555 212.326 268.539 212.053 269.441 211.506C270.37 210.959 271.108 210.18 271.655 209.169C272.229 208.158 272.516 206.955 272.516 205.561ZM292.636 217.369C290.449 217.369 288.481 216.891 286.732 215.934C284.982 214.95 283.602 213.57 282.591 211.793C281.607 210.016 281.115 207.966 281.115 205.643C281.115 203.32 281.62 201.27 282.632 199.493C283.67 197.716 285.078 196.35 286.855 195.393C288.631 194.409 290.613 193.917 292.8 193.917C294.986 193.917 296.968 194.409 298.745 195.393C300.521 196.35 301.915 197.716 302.927 199.493C303.965 201.27 304.485 203.32 304.485 205.643C304.485 207.966 303.952 210.016 302.886 211.793C301.847 213.57 300.426 214.95 298.622 215.934C296.845 216.891 294.85 217.369 292.636 217.369ZM292.636 212.367C293.674 212.367 294.645 212.121 295.547 211.629C296.476 211.11 297.214 210.344 297.761 209.333C298.307 208.322 298.581 207.092 298.581 205.643C298.581 203.484 298.007 201.83 296.859 200.682C295.738 199.507 294.358 198.919 292.718 198.919C291.078 198.919 289.697 199.507 288.577 200.682C287.483 201.83 286.937 203.484 286.937 205.643C286.937 207.802 287.47 209.47 288.536 210.645C289.629 211.793 290.996 212.367 292.636 212.367ZM314.435 197.812C315.173 196.609 316.13 195.666 317.305 194.983C318.508 194.3 319.875 193.958 321.405 193.958V199.985H319.888C318.084 199.985 316.718 200.409 315.788 201.256C314.886 202.103 314.435 203.579 314.435 205.684V217H308.695V194.286H314.435V197.812ZM331.954 199.001V209.989C331.954 210.754 332.132 211.315 332.487 211.67C332.87 211.998 333.499 212.162 334.373 212.162H337.038V217H333.43C328.592 217 326.173 214.649 326.173 209.948V199.001H323.467V194.286H326.173V188.669H331.954V194.286H337.038V199.001H331.954Z" fill="white"/>
<path d="M52.4083 93.4764C52.4061 93.49 52.4061 93.5058 52.4038 93.5194C55.6594 93.9315 58.9173 94.3571 62.1774 94.7398C62.9947 94.8348 63.8302 94.7895 64.6611 94.8122C65.4919 94.8371 66.3477 94.7533 67.1514 94.9186C69.4471 95.3895 71.7744 95.179 74.0837 95.3647C74.7289 95.4167 75.3924 95.4189 76.0331 95.3306C77.6858 95.0997 79.3362 95.059 81.0025 95.0681C82.1231 95.0726 83.2461 94.8688 84.3623 94.7171C85.7546 94.5269 86.9341 93.8093 88.0254 92.9942C88.5234 92.6207 89.0532 92.0478 89.1891 91.4728C89.5468 89.974 89.8162 88.4278 89.8773 86.8905C89.9136 85.9827 89.6011 85.0001 88.6842 84.4386C86.6217 83.1821 84.3984 83.1866 82.139 83.6665C81.7496 83.7503 81.3625 83.9858 81.041 84.2371C80.3913 84.7465 79.7958 85.3239 79.1642 85.8559C78.7499 86.2023 77.7899 86.0777 77.353 85.6475C77.0111 85.3102 77.1515 84.4794 77.6609 84.0832C78.5959 83.3519 79.5377 82.6319 80.4999 81.9392C81.1248 81.4886 81.4757 80.9135 81.4779 80.1483C81.4802 79.8608 81.3602 79.5688 81.3783 79.2835C81.5617 76.5871 81.2719 74.1601 80.2554 72.0184C78.8155 68.9711 76.3772 67.1983 72.9721 67.1802C69.1098 67.1576 66.2435 69.1567 63.9931 72.1565C63.5992 72.6794 63.2551 73.2047 63.1193 73.8839C62.9857 74.5495 62.5125 75.163 61.8084 75.1427C61.2605 75.1291 60.6809 74.7827 60.1919 74.4635C59.7708 74.1873 59.7482 73.6598 59.7459 73.164C59.7437 72.8085 59.6418 72.4576 59.5807 72.1044C59.1188 69.5212 57.4253 68.0994 55.0549 67.35C54.7425 67.2527 54.3531 67.3161 54.018 67.3908C51.6499 67.9387 49.3995 70.5966 49.2772 73.0145C49.2614 73.3496 49.361 73.7096 49.4878 74.0243C49.9474 75.1812 50.382 76.3517 50.9389 77.461C51.4891 78.5568 51.1246 79.6888 51.2243 80.7959C51.2695 81.294 50.7488 81.4592 50.339 81.5226C49.9111 81.5883 49.6916 81.2192 49.5965 80.8886C49.4833 80.4947 49.3994 80.0532 49.4628 79.657C49.6643 78.3915 49.1912 77.2866 48.6365 76.2384C47.6675 74.4046 46.1868 73.207 44.0428 73.0372C43.4044 72.9896 42.7207 72.9851 42.1117 73.1549C40.5677 73.5783 38.9466 73.9631 37.9821 75.4121C37.0675 76.7818 36.0171 78.0814 35.4783 79.6775C35.4081 79.8903 35.2269 80.1167 35.2586 80.3114C35.4692 81.5882 35.2224 82.8764 35.5507 84.1714C35.8948 85.523 36.4291 86.7637 37.1106 87.9433C37.3596 88.3757 37.8237 88.7266 38.2606 89.0051C39.9133 90.0578 41.6476 90.9204 43.5131 91.5996C45.2677 92.238 47.029 92.6931 48.8583 92.9603C50.0424 93.1324 51.2243 93.3044 52.4083 93.4764ZM51.2809 95.3511C49.6621 95.0477 47.3687 94.6538 45.0911 94.1761C44.2286 93.995 43.3976 93.6485 42.5667 93.3338C41.5185 92.9399 40.468 92.5437 39.4515 92.075C37.8192 91.3234 36.2933 90.3409 35.2247 88.9032C34.4979 87.9252 34.113 86.6913 33.6081 85.5593C32.5418 83.164 33.0875 80.7709 33.658 78.3824C33.6852 78.267 33.6964 78.138 33.7553 78.0406C35.2925 75.5321 37.0766 73.2749 39.8658 72.0433C40.0741 71.9527 40.3028 71.8237 40.5156 71.835C42.4627 71.9323 44.4323 71.2825 46.3657 72.0161C46.4925 72.0659 46.8049 71.878 46.9 71.7195C47.1377 71.321 47.3301 70.8864 47.4954 70.4472C48.6501 67.3704 51.1925 66.0844 54.1402 65.4732C55.5666 65.1788 56.9227 65.7244 58.1815 66.5168C59.6553 67.4451 60.4545 68.9099 61.4461 70.2275C61.8061 70.7052 62.0348 70.7777 62.3993 70.3725C63.966 68.6156 65.9243 67.427 67.937 66.2543C69.1414 65.5547 70.432 65.5434 71.6794 65.2649C73.7329 64.8053 73.7509 64.8913 76.4677 65.9418C79.789 67.2277 82.0484 69.6095 83.0672 72.9625C83.717 75.0974 83.9208 77.375 83.7034 79.6412C83.6808 79.8789 83.6287 80.1144 83.6129 80.3521C83.5631 81.0585 83.6581 81.183 84.3418 81.3098C85.2791 81.4841 86.2142 81.6675 87.156 81.8147C88.5665 82.0365 89.6985 82.7972 90.749 83.6756C91.1927 84.0469 91.6048 84.5473 91.8289 85.0748C92.8817 87.5697 92.7096 90.0533 91.5708 92.4848C91.4757 92.6841 91.2675 92.8335 91.1067 93.0033C89.3702 94.8688 87.3461 96.2521 84.7946 96.7366C84.1585 96.8588 83.5177 97.0332 82.8748 97.0491C81.0319 97.0921 79.1913 97.049 77.3485 97.0807C76.5289 97.0965 75.7002 97.3252 74.8875 97.2595C72.1073 97.0354 69.2977 97.3569 66.5356 96.7977C66.1937 96.7275 65.8248 96.7841 65.4716 96.7819C64.5818 96.7773 63.6807 96.8544 62.8 96.7525C59.1844 96.3427 55.5711 95.8786 51.2809 95.3511Z" fill="#36385F"/>
<path d="M78.5299 75.5887C78.4733 76.0256 78.1042 76.3607 78.2242 76.8633C78.2559 76.9991 77.6605 77.4248 77.3277 77.4565C77.099 77.4791 76.6213 77.0761 76.6009 76.8339C76.4651 75.2129 75.7225 73.7888 75.2425 72.2832C75.1135 71.887 75.3196 71.5633 75.7067 71.5044C76.7685 71.346 77.3051 71.5836 77.7171 72.53C78.1428 73.5035 78.4778 74.5133 78.5299 75.5887Z" fill="#36385F"/>
<path d="M87.4439 88.7765C87.2673 89.8383 86.7352 90.3657 86.0447 90.3453C85.4176 90.325 85.1414 90.1031 85.2433 89.4805C85.404 88.5387 85.1664 87.7191 84.6932 86.9448C84.5392 86.6913 84.2517 86.4491 84.5437 86.1865C84.8358 85.9239 85.241 85.5775 85.5625 85.6114C85.9836 85.6544 86.5791 85.942 86.7308 86.2861C87.0975 87.1306 87.2537 88.0678 87.4439 88.7765Z" fill="#36385F"/>
<path d="M76.8614 79.9447C77.287 79.9673 77.7783 80.5198 77.6765 80.925C77.5474 81.4412 77.3981 81.9574 77.183 82.4396C76.9 83.0735 76.0532 83.377 75.3513 83.1302C75.2178 83.0849 75.0321 82.8811 75.0435 82.7702C75.1159 82.0638 75.2065 81.3552 75.3582 80.6647C75.4397 80.2911 76.3294 79.9153 76.8614 79.9447Z" fill="#36385F"/>
<path d="M57.2372 72.881C57.1376 72.9942 56.9745 73.3496 56.7639 73.3768C56.3813 73.4311 55.7746 73.4288 55.6161 73.2002C55.1882 72.5843 54.8894 71.8577 54.6539 71.1355C54.5317 70.7664 55.6342 70.2955 56.0938 70.5015C56.8319 70.832 57.3775 71.8803 57.2372 72.881Z" fill="#36385F"/>
<path d="M85.6461 92.5053C85.6484 92.9331 85.0553 93.5807 84.7632 93.5988C84.3127 93.6259 83.7557 93.1618 83.7648 92.7679C83.7738 92.3944 84.3466 91.9596 84.8289 92.0615C85.1413 92.1272 85.413 92.3717 85.6461 92.5053Z" fill="#36385F"/>
</svg>
