<svg width="589" height="255" viewBox="0 0 589 255" fill="none" xmlns="http://www.w3.org/2000/svg">
<mask id="mask0_147_187" style="mask-type:alpha" maskUnits="userSpaceOnUse" x="0" y="0" width="589" height="255">
<rect width="589" height="255" rx="20" fill="#EFCB59"/>
</mask>
<g mask="url(#mask0_147_187)">
<rect width="589" height="255" rx="20" fill="#EFCB59"/>
<path d="M45.569 143.015V150.19H55.204V154.741H45.569V162.326H56.434V167H39.829V138.341H56.434V143.015H45.569ZM74.1963 167L69.5223 159.948L65.3813 167H59.2313L66.6523 155.602L59.1493 144.286H65.6273L70.2603 151.297L74.4423 144.286H80.5923L73.1303 155.602L80.6743 167H74.1963ZM89.5319 147.566C90.2699 146.527 91.2812 145.666 92.5659 144.983C93.8779 144.272 95.3676 143.917 97.0349 143.917C98.9756 143.917 100.725 144.395 102.283 145.352C103.868 146.309 105.112 147.675 106.014 149.452C106.943 151.201 107.408 153.238 107.408 155.561C107.408 157.884 106.943 159.948 106.014 161.752C105.112 163.529 103.868 164.909 102.283 165.893C100.725 166.877 98.9756 167.369 97.0349 167.369C95.3676 167.369 93.8916 167.027 92.6069 166.344C91.3496 165.661 90.3246 164.8 89.5319 163.761V177.824H83.7919V144.286H89.5319V147.566ZM101.545 155.561C101.545 154.194 101.258 153.019 100.684 152.035C100.137 151.024 99.3992 150.258 98.4699 149.739C97.5679 149.22 96.5839 148.96 95.5179 148.96C94.4792 148.96 93.4952 149.233 92.5659 149.78C91.6639 150.299 90.9259 151.065 90.3519 152.076C89.8052 153.087 89.5319 154.276 89.5319 155.643C89.5319 157.01 89.8052 158.199 90.3519 159.21C90.9259 160.221 91.6639 161 92.5659 161.547C93.4952 162.066 94.4792 162.326 95.5179 162.326C96.5839 162.326 97.5679 162.053 98.4699 161.506C99.3992 160.959 100.137 160.18 100.684 159.169C101.258 158.158 101.545 156.955 101.545 155.561ZM110.103 155.561C110.103 153.265 110.554 151.229 111.456 149.452C112.385 147.675 113.629 146.309 115.187 145.352C116.772 144.395 118.535 143.917 120.476 143.917C122.171 143.917 123.647 144.259 124.904 144.942C126.189 145.625 127.214 146.486 127.979 147.525V144.286H133.76V167H127.979V163.679C127.241 164.745 126.216 165.633 124.904 166.344C123.619 167.027 122.13 167.369 120.435 167.369C118.522 167.369 116.772 166.877 115.187 165.893C113.629 164.909 112.385 163.529 111.456 161.752C110.554 159.948 110.103 157.884 110.103 155.561ZM127.979 155.643C127.979 154.249 127.706 153.06 127.159 152.076C126.612 151.065 125.874 150.299 124.945 149.78C124.016 149.233 123.018 148.96 121.952 148.96C120.886 148.96 119.902 149.22 119 149.739C118.098 150.258 117.36 151.024 116.786 152.035C116.239 153.019 115.966 154.194 115.966 155.561C115.966 156.928 116.239 158.13 116.786 159.169C117.36 160.18 118.098 160.959 119 161.506C119.929 162.053 120.913 162.326 121.952 162.326C123.018 162.326 124.016 162.066 124.945 161.547C125.874 161 126.612 160.235 127.159 159.251C127.706 158.24 127.979 157.037 127.979 155.643ZM151.953 143.958C154.659 143.958 156.846 144.819 158.513 146.541C160.18 148.236 161.014 150.614 161.014 153.675V167H155.274V154.454C155.274 152.65 154.823 151.27 153.921 150.313C153.019 149.329 151.789 148.837 150.231 148.837C148.646 148.837 147.388 149.329 146.459 150.313C145.557 151.27 145.106 152.65 145.106 154.454V167H139.366V144.286H145.106V147.115C145.871 146.131 146.842 145.366 148.017 144.819C149.22 144.245 150.532 143.958 151.953 143.958ZM164.997 155.561C164.997 153.265 165.448 151.229 166.35 149.452C167.279 147.675 168.536 146.309 170.122 145.352C171.707 144.395 173.47 143.917 175.411 143.917C176.887 143.917 178.294 144.245 179.634 144.901C180.973 145.53 182.039 146.377 182.832 147.443V136.66H188.654V167H182.832V163.638C182.121 164.759 181.123 165.661 179.839 166.344C178.554 167.027 177.064 167.369 175.37 167.369C173.456 167.369 171.707 166.877 170.122 165.893C168.536 164.909 167.279 163.529 166.35 161.752C165.448 159.948 164.997 157.884 164.997 155.561ZM182.873 155.643C182.873 154.249 182.599 153.06 182.053 152.076C181.506 151.065 180.768 150.299 179.839 149.78C178.909 149.233 177.912 148.96 176.846 148.96C175.78 148.96 174.796 149.22 173.894 149.739C172.992 150.258 172.254 151.024 171.68 152.035C171.133 153.019 170.86 154.194 170.86 155.561C170.86 156.928 171.133 158.13 171.68 159.169C172.254 160.18 172.992 160.959 173.894 161.506C174.823 162.053 175.807 162.326 176.846 162.326C177.912 162.326 178.909 162.066 179.839 161.547C180.768 161 181.506 160.235 182.053 159.251C182.599 158.24 182.873 157.037 182.873 155.643ZM226.784 138.382L217.108 157.037V167H211.368V157.037L201.651 138.382H208.129L214.279 151.461L220.388 138.382H226.784ZM240.181 167.369C237.994 167.369 236.026 166.891 234.277 165.934C232.527 164.95 231.147 163.57 230.136 161.793C229.152 160.016 228.66 157.966 228.66 155.643C228.66 153.32 229.165 151.27 230.177 149.493C231.215 147.716 232.623 146.35 234.4 145.393C236.176 144.409 238.158 143.917 240.345 143.917C242.531 143.917 244.513 144.409 246.29 145.393C248.066 146.35 249.46 147.716 250.472 149.493C251.51 151.27 252.03 153.32 252.03 155.643C252.03 157.966 251.497 160.016 250.431 161.793C249.392 163.57 247.971 164.95 246.167 165.934C244.39 166.891 242.395 167.369 240.181 167.369ZM240.181 162.367C241.219 162.367 242.19 162.121 243.092 161.629C244.021 161.11 244.759 160.344 245.306 159.333C245.852 158.322 246.126 157.092 246.126 155.643C246.126 153.484 245.552 151.83 244.404 150.682C243.283 149.507 241.903 148.919 240.263 148.919C238.623 148.919 237.242 149.507 236.122 150.682C235.028 151.83 234.482 153.484 234.482 155.643C234.482 157.802 235.015 159.47 236.081 160.645C237.174 161.793 238.541 162.367 240.181 162.367ZM277.683 144.286V167H271.902V164.13C271.164 165.114 270.194 165.893 268.991 166.467C267.816 167.014 266.531 167.287 265.137 167.287C263.36 167.287 261.789 166.918 260.422 166.18C259.055 165.415 257.976 164.308 257.183 162.859C256.418 161.383 256.035 159.634 256.035 157.611V144.286H261.775V156.791C261.775 158.595 262.226 159.989 263.128 160.973C264.03 161.93 265.26 162.408 266.818 162.408C268.403 162.408 269.647 161.93 270.549 160.973C271.451 159.989 271.902 158.595 271.902 156.791V144.286H277.683ZM289.087 147.812C289.825 146.609 290.781 145.666 291.957 144.983C293.159 144.3 294.526 143.958 296.057 143.958V149.985H294.54C292.736 149.985 291.369 150.409 290.44 151.256C289.538 152.103 289.087 153.579 289.087 155.684V167H283.347V144.286H289.087V147.812ZM324.452 167L318.138 155.848H315.432V167H309.692V138.382H320.434C322.648 138.382 324.534 138.778 326.092 139.571C327.65 140.336 328.812 141.389 329.577 142.728C330.37 144.04 330.766 145.516 330.766 147.156C330.766 149.042 330.22 150.75 329.126 152.281C328.033 153.784 326.407 154.823 324.247 155.397L331.094 167H324.452ZM315.432 151.543H320.229C321.787 151.543 322.949 151.174 323.714 150.436C324.48 149.671 324.862 148.618 324.862 147.279C324.862 145.967 324.48 144.956 323.714 144.245C322.949 143.507 321.787 143.138 320.229 143.138H315.432V151.543ZM357.073 155.151C357.073 155.971 357.018 156.709 356.909 157.365H340.304C340.441 159.005 341.015 160.29 342.026 161.219C343.037 162.148 344.281 162.613 345.757 162.613C347.889 162.613 349.406 161.697 350.308 159.866H356.499C355.843 162.053 354.586 163.857 352.727 165.278C350.868 166.672 348.586 167.369 345.88 167.369C343.693 167.369 341.725 166.891 339.976 165.934C338.254 164.95 336.901 163.57 335.917 161.793C334.96 160.016 334.482 157.966 334.482 155.643C334.482 153.292 334.96 151.229 335.917 149.452C336.874 147.675 338.213 146.309 339.935 145.352C341.657 144.395 343.639 143.917 345.88 143.917C348.039 143.917 349.966 144.382 351.661 145.311C353.383 146.24 354.709 147.566 355.638 149.288C356.595 150.983 357.073 152.937 357.073 155.151ZM351.128 153.511C351.101 152.035 350.568 150.86 349.529 149.985C348.49 149.083 347.219 148.632 345.716 148.632C344.295 148.632 343.092 149.069 342.108 149.944C341.151 150.791 340.564 151.98 340.345 153.511H351.128ZM370.734 161.711L376.474 144.286H382.583L374.178 167H367.208L358.844 144.286H364.994L370.734 161.711ZM406.922 155.151C406.922 155.971 406.867 156.709 406.758 157.365H390.153C390.289 159.005 390.863 160.29 391.875 161.219C392.886 162.148 394.13 162.613 395.606 162.613C397.738 162.613 399.255 161.697 400.157 159.866H406.348C405.692 162.053 404.434 163.857 402.576 165.278C400.717 166.672 398.435 167.369 395.729 167.369C393.542 167.369 391.574 166.891 389.825 165.934C388.103 164.95 386.75 163.57 385.766 161.793C384.809 160.016 384.331 157.966 384.331 155.643C384.331 153.292 384.809 151.229 385.766 149.452C386.722 147.675 388.062 146.309 389.784 145.352C391.506 144.395 393.487 143.917 395.729 143.917C397.888 143.917 399.815 144.382 401.51 145.311C403.232 146.24 404.557 147.566 405.487 149.288C406.443 150.983 406.922 152.937 406.922 155.151ZM400.977 153.511C400.949 152.035 400.416 150.86 399.378 149.985C398.339 149.083 397.068 148.632 395.565 148.632C394.143 148.632 392.941 149.069 391.957 149.944C391 150.791 390.412 151.98 390.194 153.511H400.977ZM423.698 143.958C426.404 143.958 428.591 144.819 430.258 146.541C431.926 148.236 432.759 150.614 432.759 153.675V167H427.019V154.454C427.019 152.65 426.568 151.27 425.666 150.313C424.764 149.329 423.534 148.837 421.976 148.837C420.391 148.837 419.134 149.329 418.204 150.313C417.302 151.27 416.851 152.65 416.851 154.454V167H411.111V144.286H416.851V147.115C417.617 146.131 418.587 145.366 419.762 144.819C420.965 144.245 422.277 143.958 423.698 143.958ZM459.661 144.286V167H453.88V164.13C453.142 165.114 452.171 165.893 450.969 166.467C449.793 167.014 448.509 167.287 447.115 167.287C445.338 167.287 443.766 166.918 442.4 166.18C441.033 165.415 439.953 164.308 439.161 162.859C438.395 161.383 438.013 159.634 438.013 157.611V144.286H443.753V156.791C443.753 158.595 444.204 159.989 445.106 160.973C446.008 161.93 447.238 162.408 448.796 162.408C450.381 162.408 451.625 161.93 452.527 160.973C453.429 159.989 453.88 158.595 453.88 156.791V144.286H459.661ZM486.439 155.151C486.439 155.971 486.384 156.709 486.275 157.365H469.67C469.807 159.005 470.381 160.29 471.392 161.219C472.403 162.148 473.647 162.613 475.123 162.613C477.255 162.613 478.772 161.697 479.674 159.866H485.865C485.209 162.053 483.952 163.857 482.093 165.278C480.234 166.672 477.952 167.369 475.246 167.369C473.059 167.369 471.091 166.891 469.342 165.934C467.62 164.95 466.267 163.57 465.283 161.793C464.326 160.016 463.848 157.966 463.848 155.643C463.848 153.292 464.326 151.229 465.283 149.452C466.24 147.675 467.579 146.309 469.301 145.352C471.023 144.395 473.005 143.917 475.246 143.917C477.405 143.917 479.332 144.382 481.027 145.311C482.749 146.24 484.075 147.566 485.004 149.288C485.961 150.983 486.439 152.937 486.439 155.151ZM480.494 153.511C480.467 152.035 479.934 150.86 478.895 149.985C477.856 149.083 476.585 148.632 475.082 148.632C473.661 148.632 472.458 149.069 471.474 149.944C470.517 150.791 469.93 151.98 469.711 153.511H480.494ZM49.71 217.287C47.7147 217.287 45.9107 216.945 44.298 216.262C42.7127 215.579 41.4553 214.595 40.526 213.31C39.5967 212.025 39.1183 210.508 39.091 208.759H45.241C45.323 209.934 45.733 210.864 46.471 211.547C47.2363 212.23 48.275 212.572 49.587 212.572C50.9263 212.572 51.9787 212.258 52.744 211.629C53.5093 210.973 53.892 210.126 53.892 209.087C53.892 208.24 53.6323 207.543 53.113 206.996C52.5937 206.449 51.9377 206.026 51.145 205.725C50.3797 205.397 49.3137 205.042 47.947 204.659C46.0883 204.112 44.5713 203.579 43.396 203.06C42.248 202.513 41.2503 201.707 40.403 200.641C39.583 199.548 39.173 198.099 39.173 196.295C39.173 194.6 39.5967 193.124 40.444 191.867C41.2913 190.61 42.4803 189.653 44.011 188.997C45.5417 188.314 47.291 187.972 49.259 187.972C52.211 187.972 54.6027 188.696 56.434 190.145C58.2927 191.566 59.3177 193.562 59.509 196.131H53.195C53.1403 195.147 52.7167 194.341 51.924 193.712C51.1587 193.056 50.1337 192.728 48.849 192.728C47.7283 192.728 46.8263 193.015 46.143 193.589C45.487 194.163 45.159 194.997 45.159 196.09C45.159 196.855 45.405 197.498 45.897 198.017C46.4163 198.509 47.045 198.919 47.783 199.247C48.5483 199.548 49.6143 199.903 50.981 200.313C52.8397 200.86 54.3567 201.406 55.532 201.953C56.7073 202.5 57.7187 203.32 58.566 204.413C59.4133 205.506 59.837 206.941 59.837 208.718C59.837 210.249 59.4407 211.67 58.648 212.982C57.8553 214.294 56.6937 215.346 55.163 216.139C53.6323 216.904 51.8147 217.287 49.71 217.287ZM71.4964 199.001V209.989C71.4964 210.754 71.674 211.315 72.0294 211.67C72.412 211.998 73.0407 212.162 73.9154 212.162H76.5804V217H72.9724C68.1344 217 65.7154 214.649 65.7154 209.948V199.001H63.0094V194.286H65.7154V188.669H71.4964V194.286H76.5804V199.001H71.4964ZM86.4489 197.812C87.1869 196.609 88.1436 195.666 89.3189 194.983C90.5216 194.3 91.8882 193.958 93.4189 193.958V199.985H91.9019C90.0979 199.985 88.7312 200.409 87.8019 201.256C86.8999 202.103 86.4489 203.579 86.4489 205.684V217H80.7089V194.286H86.4489V197.812ZM118.4 205.151C118.4 205.971 118.345 206.709 118.236 207.365H101.631C101.768 209.005 102.342 210.29 103.353 211.219C104.364 212.148 105.608 212.613 107.084 212.613C109.216 212.613 110.733 211.697 111.635 209.866H117.826C117.17 212.053 115.913 213.857 114.054 215.278C112.195 216.672 109.913 217.369 107.207 217.369C105.02 217.369 103.052 216.891 101.303 215.934C99.5811 214.95 98.2281 213.57 97.2441 211.793C96.2874 210.016 95.8091 207.966 95.8091 205.643C95.8091 203.292 96.2874 201.229 97.2441 199.452C98.2007 197.675 99.5401 196.309 101.262 195.352C102.984 194.395 104.966 193.917 107.207 193.917C109.366 193.917 111.293 194.382 112.988 195.311C114.71 196.24 116.036 197.566 116.965 199.288C117.922 200.983 118.4 202.937 118.4 205.151ZM112.455 203.511C112.428 202.035 111.895 200.86 110.856 199.985C109.817 199.083 108.546 198.632 107.043 198.632C105.622 198.632 104.419 199.069 103.435 199.944C102.478 200.791 101.891 201.98 101.672 203.511H112.455ZM121.114 205.561C121.114 203.265 121.565 201.229 122.467 199.452C123.396 197.675 124.64 196.309 126.198 195.352C127.783 194.395 129.546 193.917 131.487 193.917C133.181 193.917 134.657 194.259 135.915 194.942C137.199 195.625 138.224 196.486 138.99 197.525V194.286H144.771V217H138.99V213.679C138.252 214.745 137.227 215.633 135.915 216.344C134.63 217.027 133.14 217.369 131.446 217.369C129.532 217.369 127.783 216.877 126.198 215.893C124.64 214.909 123.396 213.529 122.467 211.752C121.565 209.948 121.114 207.884 121.114 205.561ZM138.99 205.643C138.99 204.249 138.716 203.06 138.17 202.076C137.623 201.065 136.885 200.299 135.956 199.78C135.026 199.233 134.029 198.96 132.963 198.96C131.897 198.96 130.913 199.22 130.011 199.739C129.109 200.258 128.371 201.024 127.797 202.035C127.25 203.019 126.977 204.194 126.977 205.561C126.977 206.928 127.25 208.13 127.797 209.169C128.371 210.18 129.109 210.959 130.011 211.506C130.94 212.053 131.924 212.326 132.963 212.326C134.029 212.326 135.026 212.066 135.956 211.547C136.885 211 137.623 210.235 138.17 209.251C138.716 208.24 138.99 207.037 138.99 205.643ZM178.585 193.958C181.373 193.958 183.614 194.819 185.309 196.541C187.031 198.236 187.892 200.614 187.892 203.675V217H182.152V204.454C182.152 202.677 181.701 201.324 180.799 200.395C179.897 199.438 178.667 198.96 177.109 198.96C175.551 198.96 174.307 199.438 173.378 200.395C172.476 201.324 172.025 202.677 172.025 204.454V217H166.285V204.454C166.285 202.677 165.834 201.324 164.932 200.395C164.03 199.438 162.8 198.96 161.242 198.96C159.657 198.96 158.399 199.438 157.47 200.395C156.568 201.324 156.117 202.677 156.117 204.454V217H150.377V194.286H156.117V197.033C156.855 196.076 157.798 195.325 158.946 194.778C160.121 194.231 161.406 193.958 162.8 193.958C164.577 193.958 166.162 194.341 167.556 195.106C168.95 195.844 170.03 196.91 170.795 198.304C171.533 196.992 172.599 195.94 173.993 195.147C175.414 194.354 176.945 193.958 178.585 193.958ZM202.031 217.369C200.172 217.369 198.505 217.041 197.029 216.385C195.553 215.702 194.377 214.786 193.503 213.638C192.655 212.49 192.191 211.219 192.109 209.825H197.89C197.999 210.7 198.423 211.424 199.161 211.998C199.926 212.572 200.869 212.859 201.99 212.859C203.083 212.859 203.93 212.64 204.532 212.203C205.16 211.766 205.475 211.205 205.475 210.522C205.475 209.784 205.092 209.237 204.327 208.882C203.589 208.499 202.4 208.089 200.76 207.652C199.065 207.242 197.671 206.818 196.578 206.381C195.512 205.944 194.582 205.274 193.79 204.372C193.024 203.47 192.642 202.254 192.642 200.723C192.642 199.466 192.997 198.318 193.708 197.279C194.446 196.24 195.484 195.42 196.824 194.819C198.19 194.218 199.789 193.917 201.621 193.917C204.327 193.917 206.486 194.6 208.099 195.967C209.711 197.306 210.6 199.124 210.764 201.42H205.27C205.188 200.518 204.805 199.807 204.122 199.288C203.466 198.741 202.577 198.468 201.457 198.468C200.418 198.468 199.612 198.659 199.038 199.042C198.491 199.425 198.218 199.958 198.218 200.641C198.218 201.406 198.6 201.994 199.366 202.404C200.131 202.787 201.32 203.183 202.933 203.593C204.573 204.003 205.926 204.427 206.992 204.864C208.058 205.301 208.973 205.985 209.739 206.914C210.531 207.816 210.941 209.019 210.969 210.522C210.969 211.834 210.6 213.009 209.862 214.048C209.151 215.087 208.112 215.907 206.746 216.508C205.406 217.082 203.835 217.369 202.031 217.369ZM241.686 202.322C243.299 202.623 244.624 203.429 245.663 204.741C246.702 206.053 247.221 207.556 247.221 209.251C247.221 210.782 246.838 212.135 246.073 213.31C245.335 214.458 244.255 215.36 242.834 216.016C241.413 216.672 239.732 217 237.791 217H225.45V188.382H237.258C239.199 188.382 240.866 188.696 242.26 189.325C243.681 189.954 244.747 190.828 245.458 191.949C246.196 193.07 246.565 194.341 246.565 195.762C246.565 197.429 246.114 198.823 245.212 199.944C244.337 201.065 243.162 201.857 241.686 202.322ZM231.19 200.19H236.438C237.805 200.19 238.857 199.889 239.595 199.288C240.333 198.659 240.702 197.771 240.702 196.623C240.702 195.475 240.333 194.587 239.595 193.958C238.857 193.329 237.805 193.015 236.438 193.015H231.19V200.19ZM236.971 212.326C238.365 212.326 239.445 211.998 240.21 211.342C241.003 210.686 241.399 209.757 241.399 208.554C241.399 207.324 240.989 206.367 240.169 205.684C239.349 204.973 238.242 204.618 236.848 204.618H231.19V212.326H236.971ZM272.911 205.151C272.911 205.971 272.856 206.709 272.747 207.365H256.142C256.278 209.005 256.852 210.29 257.864 211.219C258.875 212.148 260.119 212.613 261.595 212.613C263.727 212.613 265.244 211.697 266.146 209.866H272.337C271.681 212.053 270.423 213.857 268.565 215.278C266.706 216.672 264.424 217.369 261.718 217.369C259.531 217.369 257.563 216.891 255.814 215.934C254.092 214.95 252.739 213.57 251.755 211.793C250.798 210.016 250.32 207.966 250.32 205.643C250.32 203.292 250.798 201.229 251.755 199.452C252.711 197.675 254.051 196.309 255.773 195.352C257.495 194.395 259.476 193.917 261.718 193.917C263.877 193.917 265.804 194.382 267.499 195.311C269.221 196.24 270.546 197.566 271.476 199.288C272.432 200.983 272.911 202.937 272.911 205.151ZM266.966 203.511C266.938 202.035 266.405 200.86 265.367 199.985C264.328 199.083 263.057 198.632 261.554 198.632C260.132 198.632 258.93 199.069 257.946 199.944C256.989 200.791 256.401 201.98 256.183 203.511H266.966ZM298.83 194.286L284.767 227.742H278.658L283.578 216.426L274.476 194.286H280.913L286.776 210.153L292.721 194.286H298.83ZM312.011 217.369C309.824 217.369 307.856 216.891 306.107 215.934C304.357 214.95 302.977 213.57 301.966 211.793C300.982 210.016 300.49 207.966 300.49 205.643C300.49 203.32 300.995 201.27 302.007 199.493C303.045 197.716 304.453 196.35 306.23 195.393C308.006 194.409 309.988 193.917 312.175 193.917C314.361 193.917 316.343 194.409 318.12 195.393C319.896 196.35 321.29 197.716 322.302 199.493C323.34 201.27 323.86 203.32 323.86 205.643C323.86 207.966 323.327 210.016 322.261 211.793C321.222 213.57 319.801 214.95 317.997 215.934C316.22 216.891 314.225 217.369 312.011 217.369ZM312.011 212.367C313.049 212.367 314.02 212.121 314.922 211.629C315.851 211.11 316.589 210.344 317.136 209.333C317.682 208.322 317.956 207.092 317.956 205.643C317.956 203.484 317.382 201.83 316.234 200.682C315.113 199.507 313.733 198.919 312.093 198.919C310.453 198.919 309.072 199.507 307.952 200.682C306.858 201.83 306.312 203.484 306.312 205.643C306.312 207.802 306.845 209.47 307.911 210.645C309.004 211.793 310.371 212.367 312.011 212.367ZM340.657 193.958C343.363 193.958 345.55 194.819 347.217 196.541C348.885 198.236 349.718 200.614 349.718 203.675V217H343.978V204.454C343.978 202.65 343.527 201.27 342.625 200.313C341.723 199.329 340.493 198.837 338.935 198.837C337.35 198.837 336.093 199.329 335.163 200.313C334.261 201.27 333.81 202.65 333.81 204.454V217H328.07V194.286H333.81V197.115C334.576 196.131 335.546 195.366 336.721 194.819C337.924 194.245 339.236 193.958 340.657 193.958ZM353.701 205.561C353.701 203.265 354.152 201.229 355.054 199.452C355.983 197.675 357.24 196.309 358.826 195.352C360.411 194.395 362.174 193.917 364.115 193.917C365.591 193.917 366.998 194.245 368.338 194.901C369.677 195.53 370.743 196.377 371.536 197.443V186.66H377.358V217H371.536V213.638C370.825 214.759 369.827 215.661 368.543 216.344C367.258 217.027 365.768 217.369 364.074 217.369C362.16 217.369 360.411 216.877 358.826 215.893C357.24 214.909 355.983 213.529 355.054 211.752C354.152 209.948 353.701 207.884 353.701 205.561ZM371.577 205.643C371.577 204.249 371.303 203.06 370.757 202.076C370.21 201.065 369.472 200.299 368.543 199.78C367.613 199.233 366.616 198.96 365.55 198.96C364.484 198.96 363.5 199.22 362.598 199.739C361.696 200.258 360.958 201.024 360.384 202.035C359.837 203.019 359.564 204.194 359.564 205.561C359.564 206.928 359.837 208.13 360.384 209.169C360.958 210.18 361.696 210.959 362.598 211.506C363.527 212.053 364.511 212.326 365.55 212.326C366.616 212.326 367.613 212.066 368.543 211.547C369.472 211 370.21 210.235 370.757 209.251C371.303 208.24 371.577 207.037 371.577 205.643ZM408.969 202.322C410.582 202.623 411.908 203.429 412.946 204.741C413.985 206.053 414.504 207.556 414.504 209.251C414.504 210.782 414.122 212.135 413.356 213.31C412.618 214.458 411.539 215.36 410.117 216.016C408.696 216.672 407.015 217 405.074 217H392.733V188.382H404.541C406.482 188.382 408.149 188.696 409.543 189.325C410.965 189.954 412.031 190.828 412.741 191.949C413.479 193.07 413.848 194.341 413.848 195.762C413.848 197.429 413.397 198.823 412.495 199.944C411.621 201.065 410.445 201.857 408.969 202.322ZM398.473 200.19H403.721C405.088 200.19 406.14 199.889 406.878 199.288C407.616 198.659 407.985 197.771 407.985 196.623C407.985 195.475 407.616 194.587 406.878 193.958C406.14 193.329 405.088 193.015 403.721 193.015H398.473V200.19ZM404.254 212.326C405.648 212.326 406.728 211.998 407.493 211.342C408.286 210.686 408.682 209.757 408.682 208.554C408.682 207.324 408.272 206.367 407.452 205.684C406.632 204.973 405.525 204.618 404.131 204.618H398.473V212.326H404.254ZM429.165 217.369C426.978 217.369 425.01 216.891 423.261 215.934C421.512 214.95 420.131 213.57 419.12 211.793C418.136 210.016 417.644 207.966 417.644 205.643C417.644 203.32 418.15 201.27 419.161 199.493C420.2 197.716 421.607 196.35 423.384 195.393C425.161 194.409 427.142 193.917 429.329 193.917C431.516 193.917 433.497 194.409 435.274 195.393C437.051 196.35 438.445 197.716 439.456 199.493C440.495 201.27 441.014 203.32 441.014 205.643C441.014 207.966 440.481 210.016 439.415 211.793C438.376 213.57 436.955 214.95 435.151 215.934C433.374 216.891 431.379 217.369 429.165 217.369ZM429.165 212.367C430.204 212.367 431.174 212.121 432.076 211.629C433.005 211.11 433.743 210.344 434.29 209.333C434.837 208.322 435.11 207.092 435.11 205.643C435.11 203.484 434.536 201.83 433.388 200.682C432.267 199.507 430.887 198.919 429.247 198.919C427.607 198.919 426.227 199.507 425.106 200.682C424.013 201.83 423.466 203.484 423.466 205.643C423.466 207.802 423.999 209.47 425.065 210.645C426.158 211.793 427.525 212.367 429.165 212.367ZM450.965 197.812C451.703 196.609 452.659 195.666 453.835 194.983C455.037 194.3 456.404 193.958 457.935 193.958V199.985H456.418C454.614 199.985 453.247 200.409 452.318 201.256C451.416 202.103 450.965 203.579 450.965 205.684V217H445.225V194.286H450.965V197.812ZM460.325 205.561C460.325 203.265 460.776 201.229 461.678 199.452C462.607 197.675 463.864 196.309 465.45 195.352C467.035 194.395 468.798 193.917 470.739 193.917C472.215 193.917 473.622 194.245 474.962 194.901C476.301 195.53 477.367 196.377 478.16 197.443V186.66H483.982V217H478.16V213.638C477.449 214.759 476.451 215.661 475.167 216.344C473.882 217.027 472.392 217.369 470.698 217.369C468.784 217.369 467.035 216.877 465.45 215.893C463.864 214.909 462.607 213.529 461.678 211.752C460.776 209.948 460.325 207.884 460.325 205.561ZM478.201 205.643C478.201 204.249 477.927 203.06 477.381 202.076C476.834 201.065 476.096 200.299 475.167 199.78C474.237 199.233 473.24 198.96 472.174 198.96C471.108 198.96 470.124 199.22 469.222 199.739C468.32 200.258 467.582 201.024 467.008 202.035C466.461 203.019 466.188 204.194 466.188 205.561C466.188 206.928 466.461 208.13 467.008 209.169C467.582 210.18 468.32 210.959 469.222 211.506C470.151 212.053 471.135 212.326 472.174 212.326C473.24 212.326 474.237 212.066 475.167 211.547C476.096 211 476.834 210.235 477.381 209.251C477.927 208.24 478.201 207.037 478.201 205.643ZM510.703 205.151C510.703 205.971 510.648 206.709 510.539 207.365H493.934C494.07 209.005 494.644 210.29 495.656 211.219C496.667 212.148 497.911 212.613 499.387 212.613C501.519 212.613 503.036 211.697 503.938 209.866H510.129C509.473 212.053 508.215 213.857 506.357 215.278C504.498 216.672 502.216 217.369 499.51 217.369C497.323 217.369 495.355 216.891 493.606 215.934C491.884 214.95 490.531 213.57 489.547 211.793C488.59 210.016 488.112 207.966 488.112 205.643C488.112 203.292 488.59 201.229 489.547 199.452C490.503 197.675 491.843 196.309 493.565 195.352C495.287 194.395 497.268 193.917 499.51 193.917C501.669 193.917 503.596 194.382 505.291 195.311C507.013 196.24 508.338 197.566 509.268 199.288C510.224 200.983 510.703 202.937 510.703 205.151ZM504.758 203.511C504.73 202.035 504.197 200.86 503.159 199.985C502.12 199.083 500.849 198.632 499.346 198.632C497.924 198.632 496.722 199.069 495.738 199.944C494.781 200.791 494.193 201.98 493.975 203.511H504.758ZM520.632 197.812C521.37 196.609 522.327 195.666 523.502 194.983C524.705 194.3 526.072 193.958 527.602 193.958V199.985H526.085C524.281 199.985 522.915 200.409 521.985 201.256C521.083 202.103 520.632 203.579 520.632 205.684V217H514.892V194.286H520.632V197.812ZM540.161 217.369C538.302 217.369 536.635 217.041 535.159 216.385C533.683 215.702 532.507 214.786 531.633 213.638C530.785 212.49 530.321 211.219 530.239 209.825H536.02C536.129 210.7 536.553 211.424 537.291 211.998C538.056 212.572 538.999 212.859 540.12 212.859C541.213 212.859 542.06 212.64 542.662 212.203C543.29 211.766 543.605 211.205 543.605 210.522C543.605 209.784 543.222 209.237 542.457 208.882C541.719 208.499 540.53 208.089 538.89 207.652C537.195 207.242 535.801 206.818 534.708 206.381C533.642 205.944 532.712 205.274 531.92 204.372C531.154 203.47 530.772 202.254 530.772 200.723C530.772 199.466 531.127 198.318 531.838 197.279C532.576 196.24 533.614 195.42 534.954 194.819C536.32 194.218 537.919 193.917 539.751 193.917C542.457 193.917 544.616 194.6 546.229 195.967C547.841 197.306 548.73 199.124 548.894 201.42H543.4C543.318 200.518 542.935 199.807 542.252 199.288C541.596 198.741 540.707 198.468 539.587 198.468C538.548 198.468 537.742 198.659 537.168 199.042C536.621 199.425 536.348 199.958 536.348 200.641C536.348 201.406 536.73 201.994 537.496 202.404C538.261 202.787 539.45 203.183 541.063 203.593C542.703 204.003 544.056 204.427 545.122 204.864C546.188 205.301 547.103 205.985 547.869 206.914C548.661 207.816 549.071 209.019 549.099 210.522C549.099 211.834 548.73 213.009 547.992 214.048C547.281 215.087 546.242 215.907 544.876 216.508C543.536 217.082 541.965 217.369 540.161 217.369Z" fill="white"/>
<path d="M486 62C486 66.5963 486.905 71.1475 488.664 75.3939C490.423 79.6403 493.001 83.4987 496.251 86.7487C499.501 89.9988 503.36 92.5769 507.606 94.3358C511.852 96.0947 516.404 97 521 97C525.596 97 530.148 96.0947 534.394 94.3358C538.64 92.5769 542.499 89.9988 545.749 86.7487C548.999 83.4987 551.577 79.6403 553.336 75.3939C555.095 71.1475 556 66.5963 556 62C556 57.4037 555.095 52.8525 553.336 48.6061C551.577 44.3597 548.999 40.5013 545.749 37.2513C542.499 34.0012 538.64 31.4231 534.394 29.6642C530.148 27.9053 525.596 27 521 27C516.404 27 511.852 27.9053 507.606 29.6642C503.36 31.4231 499.501 34.0012 496.251 37.2513C493.001 40.5013 490.423 44.3597 488.664 48.6061C486.905 52.8525 486 57.4037 486 62Z" stroke="#7D5F00" stroke-width="5" stroke-linecap="round" stroke-linejoin="round"/>
<path d="M532.666 46.4444H509.333H513.222C516.316 46.4444 519.284 47.6736 521.471 49.8615C523.659 52.0495 524.889 55.0169 524.889 58.1111C524.889 61.2053 523.659 64.1728 521.471 66.3607C519.284 68.5486 516.316 69.7778 513.222 69.7778H509.333L521 81.4444M509.333 58.1111H532.666" stroke="#7D5F00" stroke-width="5" stroke-linecap="round" stroke-linejoin="round"/>
<path d="M441 31C441 33.6264 441.517 36.2272 442.522 38.6537C443.528 41.0802 445.001 43.285 446.858 45.1421C448.715 46.9993 450.92 48.4725 453.346 49.4776C455.773 50.4827 458.374 51 461 51C463.626 51 466.227 50.4827 468.654 49.4776C471.08 48.4725 473.285 46.9993 475.142 45.1421C476.999 43.285 478.473 41.0802 479.478 38.6537C480.483 36.2272 481 33.6264 481 31C481 28.3736 480.483 25.7728 479.478 23.3463C478.473 20.9198 476.999 18.715 475.142 16.8579C473.285 15.0007 471.08 13.5275 468.654 12.5224C466.227 11.5173 463.626 11 461 11C458.374 11 455.773 11.5173 453.346 12.5224C450.92 13.5275 448.715 15.0007 446.858 16.8579C445.001 18.715 443.528 20.9198 442.522 23.3463C441.517 25.7728 441 28.3736 441 31Z" stroke="#7D5F00" stroke-width="2" stroke-linecap="round" stroke-linejoin="round"/>
<path d="M467.666 22.1111H454.333H456.555C458.323 22.1111 460.019 22.8135 461.269 24.0637C462.52 25.314 463.222 27.0097 463.222 28.7778C463.222 30.5459 462.52 32.2416 461.269 33.4918C460.019 34.7421 458.323 35.4444 456.555 35.4444H454.333L461 42.1111M454.333 28.7778H467.666" stroke="#7D5F00" stroke-width="2" stroke-linecap="round" stroke-linejoin="round"/>
<path d="M541 117C541 119.626 541.517 122.227 542.522 124.654C543.528 127.08 545.001 129.285 546.858 131.142C548.715 132.999 550.92 134.473 553.346 135.478C555.773 136.483 558.374 137 561 137C563.626 137 566.227 136.483 568.654 135.478C571.08 134.473 573.285 132.999 575.142 131.142C576.999 129.285 578.473 127.08 579.478 124.654C580.483 122.227 581 119.626 581 117C581 114.374 580.483 111.773 579.478 109.346C578.473 106.92 576.999 104.715 575.142 102.858C573.285 101.001 571.08 99.5275 568.654 98.5224C566.227 97.5173 563.626 97 561 97C558.374 97 555.773 97.5173 553.346 98.5224C550.92 99.5275 548.715 101.001 546.858 102.858C545.001 104.715 543.528 106.92 542.522 109.346C541.517 111.773 541 114.374 541 117Z" stroke="#7D5F00" stroke-width="2" stroke-linecap="round" stroke-linejoin="round"/>
<path d="M567.666 108.111H554.333H556.555C558.323 108.111 560.019 108.813 561.269 110.064C562.52 111.314 563.222 113.01 563.222 114.778C563.222 116.546 562.52 118.242 561.269 119.492C560.019 120.742 558.323 121.444 556.555 121.444H554.333L561 128.111M554.333 114.778H567.666" stroke="#7D5F00" stroke-width="2" stroke-linecap="round" stroke-linejoin="round"/>
<path d="M561 26C561 28.6264 561.517 31.2272 562.522 33.6537C563.528 36.0802 565.001 38.285 566.858 40.1421C568.715 41.9993 570.92 43.4725 573.346 44.4776C575.773 45.4827 578.374 46 581 46C583.626 46 586.227 45.4827 588.654 44.4776C591.08 43.4725 593.285 41.9993 595.142 40.1421C596.999 38.285 598.473 36.0802 599.478 33.6537C600.483 31.2272 601 28.6264 601 26C601 23.3736 600.483 20.7728 599.478 18.3463C598.473 15.9198 596.999 13.715 595.142 11.8579C593.285 10.0007 591.08 8.5275 588.654 7.52241C586.227 6.51732 583.626 6 581 6C578.374 6 575.773 6.51732 573.346 7.52241C570.92 8.5275 568.715 10.0007 566.858 11.8579C565.001 13.715 563.528 15.9198 562.522 18.3463C561.517 20.7728 561 23.3736 561 26Z" stroke="#7D5F00" stroke-width="2" stroke-linecap="round" stroke-linejoin="round"/>
<path d="M587.666 17.1111H574.333H576.555C578.323 17.1111 580.019 17.8135 581.269 19.0637C582.52 20.314 583.222 22.0097 583.222 23.7778C583.222 25.5459 582.52 27.2416 581.269 28.4918C580.019 29.7421 578.323 30.4444 576.555 30.4444H574.333L581 37.1111M574.333 23.7778H587.666" stroke="#7D5F00" stroke-width="2" stroke-linecap="round" stroke-linejoin="round"/>
<path d="M493 9.53674e-07C493 2.62644 493.517 5.22716 494.522 7.65367C495.528 10.0802 497.001 12.285 498.858 14.1421C500.715 15.9993 502.92 17.4725 505.346 18.4776C507.773 19.4827 510.374 20 513 20C515.626 20 518.227 19.4827 520.654 18.4776C523.08 17.4725 525.285 15.9993 527.142 14.1421C528.999 12.285 530.473 10.0802 531.478 7.65367C532.483 5.22716 533 2.62644 533 9.53674e-07C533 -2.62644 532.483 -5.22716 531.478 -7.65367C530.473 -10.0802 528.999 -12.285 527.142 -14.1421C525.285 -15.9993 523.08 -17.4725 520.654 -18.4776C518.227 -19.4827 515.626 -20 513 -20C510.374 -20 507.773 -19.4827 505.346 -18.4776C502.92 -17.4725 500.715 -15.9993 498.858 -14.1421C497.001 -12.285 495.528 -10.0802 494.522 -7.65367C493.517 -5.22716 493 -2.62644 493 9.53674e-07Z" stroke="#7D5F00" stroke-width="2" stroke-linecap="round" stroke-linejoin="round"/>
<path d="M519.666 -8.88889H506.333H508.555C510.323 -8.88889 512.019 -8.18651 513.269 -6.93626C514.52 -5.68602 515.222 -3.99033 515.222 -2.22222C515.222 -0.454108 514.52 1.24159 513.269 2.49183C512.019 3.74207 510.323 4.44445 508.555 4.44445H506.333L513 11.1111M506.333 -2.22222H519.666" stroke="#7D5F00" stroke-width="2" stroke-linecap="round" stroke-linejoin="round"/>
<path d="M100.95 51.9749C100.968 51.9604 100.989 51.9439 101.009 51.928C100.857 51.7442 100.713 51.5523 100.554 51.374C100.361 51.1614 100.162 50.9474 99.9513 50.7536C97.9214 48.8723 95.4142 47.9089 92.7365 47.288C92.2188 47.1682 91.6469 47.2228 91.1451 47.0669C89.7649 46.6334 88.3573 46.7958 86.9523 46.8758C86.4145 46.9078 85.8045 46.7963 85.3583 47.0171C84.6226 47.3827 83.839 47.4428 83.0967 47.6878C82.3111 47.9457 81.5187 48.28 80.8368 48.7331C80.0429 49.2629 80.16 50.1843 81.0169 50.5837C81.4469 50.7848 81.9418 50.9786 82.4078 50.9653C83.7745 50.9303 85.1535 50.8874 86.5025 50.6703C89.1957 50.2363 91.8546 50.1093 94.5226 50.6882C95.4882 50.8968 96.3902 51.2175 97.2521 51.641C98.0492 52.033 98.6483 52.6815 99.0895 53.4433C99.6271 54.3734 99.6675 55.3299 99.2001 56.3505C98.6082 57.6387 97.471 58.3353 96.3368 59.0366C95.9016 59.3069 95.4107 59.5312 94.915 59.6584C93.4783 60.0257 92.0186 60.2256 90.5375 60.2999C89.5074 60.3519 88.481 60.5442 87.4523 60.6767C87.0158 60.7326 86.9199 60.9699 86.9607 61.3884C87.0023 61.8268 87.2072 62.1109 87.561 62.3063C87.859 62.4679 88.1657 62.6355 88.4926 62.7182C91.0974 63.3825 93.629 63.2524 96.0265 61.8216C97.0367 61.2212 98.0657 60.6481 99.0483 60.0023C99.9244 59.4284 100.643 58.7263 100.851 57.6203C100.939 57.1677 101.255 56.7401 101.517 56.3329C101.833 55.8402 102.278 55.6808 102.905 55.7052C103.979 55.7477 105.065 55.6703 106.144 55.5904C106.572 55.559 107.006 55.4293 107.413 55.2741C107.821 55.1187 107.996 54.7534 108.006 54.3348C108.013 53.9438 107.776 53.7724 107.422 53.622C106.549 53.2528 105.665 53.1381 104.721 53.3066C104.336 53.374 103.924 53.3225 103.549 53.4218C102.644 53.6602 102.039 53.2441 101.499 52.6439C101.307 52.4306 101.132 52.1992 100.95 51.9749ZM108.935 52.8624C110.1 54.2709 109.322 56.084 108.212 56.5727C107.104 57.0624 105.907 57.463 104.65 57.4247C104.255 57.4135 103.863 57.3707 103.471 57.3825C102.557 57.4064 102.302 57.5732 102.173 58.4393C102.047 59.2635 101.609 59.8541 101.013 60.3992C99.5846 61.7041 97.9005 62.6462 96.2745 63.6656C96.1071 63.7713 95.9011 63.8126 95.741 63.9269C95.4892 64.104 94.9149 63.9366 95.0047 64.4105C95.0434 64.6109 95.5363 64.7468 95.8455 64.8543C96.0681 64.9308 96.3277 64.9224 96.5723 64.9355C97.5446 64.9927 98.5204 65.0625 99.4955 65.094C102.016 65.1782 104.491 64.7671 106.877 63.957C107.638 63.6966 108.621 63.4911 108.994 62.5262C109.06 62.3646 109.262 62.2358 109.426 62.1298C110.077 61.7019 110.451 61.0656 110.717 60.3864C111.14 59.3059 111.512 58.208 111.857 57.1029C111.934 56.8582 111.821 56.5521 111.775 56.2761C111.629 55.3912 111.195 54.5647 111.347 53.6122C111.389 53.3625 111.229 53.0547 111.086 52.8157C110.55 51.9155 110.013 51.0132 109.424 50.1447C108.547 48.852 107.282 47.9587 105.969 47.1455C104.625 46.311 103.29 45.4335 101.846 44.7958C100.218 44.0771 98.5201 43.4996 96.6958 43.2576C93.1287 42.7849 89.7895 43.9325 86.3853 44.6673C86.3226 44.6794 86.2397 44.8111 86.2424 44.8808C86.2453 44.9504 86.3332 45.0538 86.4044 45.076C86.6386 45.1449 86.8791 45.2147 87.1194 45.2238C87.8012 45.2497 88.4814 45.2703 89.1659 45.2462C90.8986 45.1836 92.539 45.7544 94.2489 45.8429C94.4352 45.8518 94.6218 45.9438 94.7984 46.0183C95.8582 46.4673 96.9445 46.8751 97.9661 47.3955C98.5544 47.6941 99.184 47.9097 99.7069 48.3842C100.63 49.2224 101.593 49.9945 102.217 51.1019C102.555 51.6964 103.108 51.8702 103.835 51.8053C104.758 51.7221 105.708 51.6743 106.614 51.8045C107.519 51.9351 108.352 52.3602 108.935 52.8624ZM64.0008 64.4389C64.9343 65.6414 66.0833 66.3982 67.4894 66.754C67.8077 66.8328 68.2619 67.02 68.4596 66.4409C68.5273 66.2457 68.7397 66.2175 68.9231 66.4186C69.0755 66.5861 69.2759 66.8358 69.4568 66.8331C70.1788 66.8192 70.9591 66.8764 71.6085 66.6217C72.7457 66.1807 73.8087 65.5425 74.8912 64.9617C75.9262 64.404 76.9029 63.7183 77.9797 63.2601C80.0495 62.3842 82.2409 62.2023 84.4569 62.3331C85.2137 62.3774 85.3821 62.2772 85.3152 61.5852C85.2391 60.8003 85.3611 60.1139 86.0598 59.6587C86.545 59.3418 87.0824 59.0502 87.6366 58.9007C88.6713 58.6232 89.7408 58.5277 90.8148 58.5741C92.0864 58.628 93.3254 58.3303 94.5554 58.0716C95.3985 57.8933 95.9923 57.1502 96.771 56.7738C97.3244 56.507 97.7163 56.0568 97.8843 55.4617C98.1077 54.6834 97.6919 53.7368 96.8165 53.2895C95.203 52.4682 93.4966 51.8625 91.6415 51.8729C90.28 51.883 88.9125 52.0239 87.5535 52.1546C86.336 52.2713 85.1281 52.5253 83.9102 52.5874C82.5379 52.6555 81.181 52.5172 79.9588 51.8163C78.9602 51.2442 78.5682 50.0648 79.0578 48.9725C79.1783 48.7049 79.3537 48.4593 79.4557 48.1885C79.4977 48.0768 79.4362 47.9119 79.38 47.7911C79.3608 47.7517 79.1942 47.7393 79.1207 47.773C77.7772 48.371 76.3596 48.7696 75.039 49.4538C73.7695 50.1133 72.5355 50.8042 71.3814 51.6491C71.2289 51.7618 71.0211 51.7978 70.8463 51.8848C70.0059 52.2972 69.1672 52.7047 68.497 53.3896C68.0522 53.8452 67.5556 54.2508 67.111 54.7084C66.1174 55.7208 65.1349 56.7442 64.1696 57.7795C63.9749 57.9857 63.8755 58.2714 63.7205 58.5152C63.0454 59.5697 63.0981 60.7151 63.0998 61.8874C63.0992 62.9145 63.3208 63.7871 64.0008 64.4389ZM109.303 64.0321C108.429 64.9927 107.405 65.529 106.237 65.8141C105.999 65.8711 105.732 65.8671 105.524 65.9763C104.154 66.6842 102.673 66.5821 101.218 66.7048C99.5952 66.8396 97.9793 66.8637 96.3742 66.6614C95.7033 66.5754 95.0476 66.3704 94.3959 66.1898C93.4594 65.9305 92.5265 65.6532 91.6 65.3626C88.9317 64.5242 86.1732 64.0867 83.3742 64.0139C81.3678 63.9619 79.3656 64.3483 77.5648 65.3308C76.9954 65.642 76.3114 65.7227 75.8317 66.3211C75.4671 66.7804 74.7744 67.0093 74.1956 67.2764C72.5417 68.0435 70.8748 68.7926 68.9777 68.4845C68.211 68.3598 67.4322 68.4216 66.6633 68.16C65.4969 67.7668 64.5243 67.1577 63.6233 66.3616C61.748 64.6994 61.2885 62.6537 61.6741 60.2218C61.9364 58.5642 62.6245 57.207 63.7659 56.003C63.9983 55.7541 64.144 55.4275 64.364 55.1664C64.7082 54.7557 65.0786 54.3626 65.4494 53.9713C65.8495 53.5435 66.2281 53.0897 66.6742 52.7126C67.4484 52.0563 68.1186 51.2518 69.1508 50.9369C69.4289 50.8525 69.7001 50.7086 69.9473 50.5519C71.986 49.2549 74.1741 48.2465 76.3741 47.2729C78.7035 46.2445 81.0834 45.3317 83.4365 44.3568C85.439 43.5279 87.5009 42.8913 89.5962 42.3603C90.3536 42.1688 91.1317 42.0281 91.9066 41.95C93.1299 41.8284 94.3598 41.7707 95.5911 41.7061C96.8278 41.641 97.9601 42.1319 99.1495 42.317C101.161 42.6304 102.811 43.7465 104.601 44.5448C105.29 44.8535 105.854 45.4115 106.488 45.8361C106.928 46.1298 107.421 46.3529 107.838 46.6739C108.59 47.2482 109.286 47.8597 109.793 48.6989C110.264 49.4771 110.93 50.1337 111.513 50.8428C112.323 51.833 112.816 52.9551 112.926 54.2415C112.953 54.5772 112.968 54.9294 113.081 55.2374C113.43 56.1863 113.22 57.1223 113.013 58.0632C112.93 58.4426 112.837 58.8203 112.727 59.1924C112.225 60.8958 111.373 62.3911 109.934 63.5286C109.7 63.7135 109.468 63.9016 109.303 64.0321Z" fill="#7D5F00"/>
<path d="M85.7603 84.5788C86.2321 83.9149 86.7814 83.4234 87.6951 83.5448C88.0722 83.5962 88.4706 83.4924 88.8568 83.5129C89.7998 83.5608 90.6578 83.3337 91.4753 82.8569C91.8105 82.6614 92.0245 82.4614 91.9776 82.072C91.9272 81.6557 91.72 81.3136 91.3025 81.2124C90.8878 81.1098 90.4493 81.0331 90.0265 81.0569C88.9601 81.1159 87.8854 81.1748 86.8336 81.3533C86.2233 81.4559 85.7682 81.3546 85.4087 80.9028C85.1118 80.5287 84.7571 80.146 84.628 79.7067C84.3122 78.6296 83.5378 78.0222 82.6195 77.5603C81.5902 77.0441 80.5224 76.6038 79.4696 76.1317C76.974 75.0117 74.4747 75.2016 71.9831 76.1919C71.6716 76.3167 71.3865 76.5226 71.1129 76.7209C70.7817 76.9593 70.612 77.2704 70.6135 77.7104C70.6139 78.1347 70.7331 78.3584 71.1697 78.3585C72.1909 78.3603 73.2167 78.421 74.2343 78.3408C75.6962 78.2285 77.1482 78.2433 78.5958 78.4256C79.0948 78.4913 79.598 78.6529 80.0531 78.8664C81.2371 79.4217 82.4233 79.9698 83.1328 81.1801C83.6953 82.1373 83.7508 83.096 83.3148 84.0915C82.9563 84.9045 82.4358 85.6288 81.6908 86.1174C80.8876 86.6505 80.0342 87.0835 79.1073 87.4135C76.5446 88.3281 73.9213 88.5375 71.2344 88.4471C69.8898 88.4005 68.53 88.5327 67.186 88.6694C66.7255 88.7177 66.2601 88.9744 65.8558 89.228C65.0559 89.733 65.0335 90.6663 65.8667 91.092C66.5827 91.4604 67.3901 91.6905 68.1891 91.8472C68.9429 91.9972 69.7176 91.9596 70.4761 92.2298C70.9359 92.392 71.525 92.2058 72.0559 92.1683C73.4445 92.069 74.8419 92.0553 76.154 91.4463C76.6297 91.2274 77.1949 91.212 77.6927 91.0252C80.2587 90.0661 82.6244 88.7921 84.4301 86.6617C84.6182 86.4397 84.7896 86.2034 84.9574 85.9647C85.0969 85.7684 85.2199 85.5597 85.3492 85.356C85.3287 85.3435 85.3073 85.3295 85.2874 85.3167C85.444 85.0712 85.5924 84.8175 85.7603 84.5788ZM90.865 84.7697C89.9904 85.0151 89.0489 85.0868 88.1352 85.1207C87.4191 85.1462 86.8899 85.3911 86.6184 86.027C86.1175 87.2071 85.2504 88.0999 84.4267 89.0491C83.9589 89.5907 83.3646 89.8834 82.8158 90.2583C81.8642 90.9043 80.8411 91.4464 79.8433 92.0292C79.6787 92.1255 79.5048 92.2426 79.3223 92.2741C77.6525 92.5773 76.0983 93.357 74.3914 93.513C73.7193 93.5742 73.0514 93.6824 72.3843 93.7923C72.1484 93.8334 71.9201 93.9342 71.6975 94.0322C71.6282 94.0617 71.5533 94.1757 71.5575 94.2471C71.5629 94.3179 71.6558 94.4361 71.7183 94.4424C75.1327 94.7425 78.5288 95.4616 81.982 94.5409C83.7507 94.0671 85.3567 93.2766 86.8869 92.3535C88.2384 91.5356 89.4624 90.4919 90.698 89.4915C91.905 88.5153 93.0583 87.4651 93.792 86.0658C94.283 85.1272 94.7187 84.1604 95.1558 83.195C95.2703 82.9394 95.3957 82.6132 95.3315 82.3668C95.0873 81.4406 95.4305 80.5616 95.4857 79.6593C95.5029 79.3816 95.5828 79.0632 95.4823 78.8263C95.0329 77.7692 94.5587 76.7221 94.0359 75.7007C93.707 75.0585 93.2777 74.4712 92.5938 74.128C92.4225 74.0418 92.2083 73.9398 92.1303 73.7879C91.6669 72.8723 90.6836 72.793 89.9091 72.6305C87.4867 72.128 85.0158 72.0287 82.5484 72.4317C81.5947 72.587 80.6458 72.7786 79.696 72.9585C79.4572 73.0052 79.2006 73.0278 78.9887 73.1348C78.6976 73.2804 78.2276 73.4781 78.2077 73.6837C78.1655 74.1675 78.7171 73.926 78.9793 74.072C79.1478 74.1636 79.3562 74.1787 79.5285 74.2623C81.2277 75.0734 82.9746 75.7959 84.5073 76.9164C85.1468 77.3853 85.6373 77.9163 85.8419 78.723C86.0557 79.5701 86.3215 79.7021 87.2223 79.6114C87.6094 79.5723 87.9895 79.4794 88.3743 79.4189C89.6075 79.2197 90.8213 79.4687 91.9594 79.8157C93.0977 80.1625 94.0407 81.8716 93.0379 83.4201C92.5159 83.9941 91.741 84.5257 90.865 84.7697ZM47.1378 80.2359C47.2551 81.4054 47.3184 82.5521 48.0841 83.5188C48.2611 83.7389 48.3873 84.0123 48.5963 84.1924C49.6505 85.1025 50.7182 85.996 51.7926 86.88C52.2761 87.2777 52.8047 87.6208 53.2874 88.0168C54.0116 88.6139 54.8784 88.9151 55.7437 89.2212C55.9228 89.2852 56.1313 89.2941 56.2936 89.3867C57.5081 90.0822 58.7894 90.6126 60.1026 91.1092C61.4664 91.6241 62.8975 91.8409 64.2762 92.2669C64.3515 92.2915 64.515 92.259 64.5314 92.2164C64.5729 92.0901 64.6183 91.917 64.5648 91.8103C64.4377 91.5538 64.2391 91.3319 64.0942 91.0798C63.5063 90.0553 63.7729 88.8299 64.697 88.134C65.8264 87.2811 67.1441 86.9694 68.4972 86.865C69.6994 86.7707 70.9118 86.8733 72.1185 86.836C73.4674 86.7907 74.8235 86.7603 76.1592 86.595C77.9824 86.3723 79.5978 85.5548 81.0972 84.5303C81.9126 83.9729 82.2268 82.9795 81.9305 82.2337C81.7047 81.6597 81.2751 81.2624 80.7058 81.0655C79.9023 80.7887 79.2477 80.1231 78.4007 80.053C77.168 79.9519 75.9201 79.8114 74.6769 80.0277C73.6305 80.2076 72.5693 80.2478 71.5269 80.1033C70.969 80.0254 70.4118 79.8023 69.9009 79.5485C69.1716 79.1825 68.9817 78.5156 68.9801 77.7246C68.9754 77.0248 68.8001 76.9488 68.061 77.0875C65.8982 77.4997 63.7296 77.5942 61.6079 76.9823C60.5077 76.6659 59.4778 76.1052 58.4051 75.6815C57.2874 75.241 56.179 74.7388 55.0203 74.4426C54.3574 74.2729 53.5944 74.4273 52.885 74.5047C52.7078 74.5255 52.5359 74.7988 52.4026 74.986C52.2437 75.2102 52.0303 75.2077 51.9464 75.022C51.6953 74.4705 51.2673 74.7132 50.9621 74.8349C49.6161 75.3645 48.5634 76.2658 47.7698 77.5799C47.1639 78.3172 47.036 79.214 47.1378 80.2359ZM92.9539 72.6694C94.4802 73.6195 95.4639 75.0007 96.1278 76.6352C96.2736 76.9929 96.4028 77.3566 96.5229 77.7227C96.8179 78.6345 97.1178 79.5397 96.8695 80.5297C96.7898 80.8521 96.8111 81.2051 96.8188 81.5421C96.8383 82.8367 96.4692 84.018 95.7696 85.1069C95.2687 85.885 94.6801 86.6261 94.2982 87.4585C93.883 88.3582 93.2593 89.0572 92.5801 89.726C92.2025 90.0972 91.7418 90.3823 91.3388 90.7311C90.758 91.2337 90.2626 91.8622 89.616 92.256C87.9388 93.277 86.4283 94.5966 84.4859 95.165C83.3357 95.5014 82.2734 96.1319 81.0522 96.2232C79.838 96.3173 78.6253 96.4147 77.4103 96.4479C76.6426 96.4679 75.8625 96.4266 75.1029 96.3324C72.9936 96.0676 70.9026 95.6959 68.8568 95.1247C66.4482 94.4502 64.0204 93.8421 61.6325 93.1127C59.3744 92.4222 57.1229 91.6958 54.9935 90.6592C54.7334 90.5345 54.4545 90.4272 54.1733 90.3781C53.1281 90.1962 52.3897 89.4775 51.562 88.9226C51.0889 88.6055 50.6735 88.1992 50.2351 87.8265C49.8345 87.4804 49.4309 87.1377 49.0509 86.7714C48.8082 86.5383 48.6348 86.2327 48.3813 86.0151C47.139 84.9576 46.3294 83.6939 45.903 82.0767C45.2833 79.7024 45.5307 77.6067 47.2056 75.7154C48.0108 74.8058 48.9053 74.0752 50.0104 73.5362C50.7406 73.1793 51.5097 73.1404 52.2514 72.9207C54.0805 72.3728 55.793 72.9101 57.4938 73.4632C58.0896 73.6553 58.7911 73.7981 59.1951 74.2059C59.7266 74.7456 60.4063 74.7377 60.9955 74.9759C62.8601 75.725 64.8643 75.8552 66.8283 75.5498C69.5704 75.1235 72.2358 74.3386 74.7706 73.1661C75.6529 72.7578 76.5376 72.3647 77.4358 71.9875C78.0559 71.7229 78.6783 71.4368 79.3266 71.2667C80.8834 70.8612 82.4735 70.6804 84.0784 70.6107C85.5218 70.5481 86.966 70.2587 88.3771 70.7914C88.5946 70.8734 88.8568 70.8338 89.0944 70.8612C90.2697 70.9962 91.3294 71.4016 92.2842 72.2479C92.4616 72.3596 92.7057 72.5145 92.9539 72.6694Z" fill="#7D5F00"/>
</g>
</svg>
