<svg width="367" height="550" viewBox="0 0 367 550" fill="none" xmlns="http://www.w3.org/2000/svg">
<rect width="367" height="550" rx="20" fill="#B1D573"/>
<path d="M65.03 422.382V451H59.29V432.386L51.623 451H47.277L39.569 432.386V451H33.829V422.382H40.348L49.45 443.661L58.552 422.382H65.03ZM80.791 451.369C78.6043 451.369 76.6363 450.891 74.887 449.934C73.1376 448.95 71.7573 447.57 70.746 445.793C69.762 444.016 69.27 441.966 69.27 439.643C69.27 437.32 69.7756 435.27 70.787 433.493C71.8256 431.716 73.2333 430.35 75.01 429.393C76.7866 428.409 78.7683 427.917 80.955 427.917C83.1416 427.917 85.1233 428.409 86.9 429.393C88.6766 430.35 90.0706 431.716 91.082 433.493C92.1206 435.27 92.64 437.32 92.64 439.643C92.64 441.966 92.107 444.016 91.041 445.793C90.0023 447.57 88.581 448.95 86.777 449.934C85.0003 450.891 83.005 451.369 80.791 451.369ZM80.791 446.367C81.8296 446.367 82.8 446.121 83.702 445.629C84.6313 445.11 85.3693 444.344 85.916 443.333C86.4626 442.322 86.736 441.092 86.736 439.643C86.736 437.484 86.162 435.83 85.014 434.682C83.8933 433.507 82.513 432.919 80.873 432.919C79.233 432.919 77.8526 433.507 76.732 434.682C75.6386 435.83 75.092 437.484 75.092 439.643C75.092 441.802 75.625 443.47 76.691 444.645C77.7843 445.793 79.151 446.367 80.791 446.367ZM109.437 427.958C112.143 427.958 114.33 428.819 115.997 430.541C117.665 432.236 118.498 434.614 118.498 437.675V451H112.758V438.454C112.758 436.65 112.307 435.27 111.405 434.313C110.503 433.329 109.273 432.837 107.715 432.837C106.13 432.837 104.873 433.329 103.943 434.313C103.041 435.27 102.59 436.65 102.59 438.454V451H96.8505V428.286H102.59V431.115C103.356 430.131 104.326 429.366 105.501 428.819C106.704 428.245 108.016 427.958 109.437 427.958ZM145.072 439.151C145.072 439.971 145.017 440.709 144.908 441.365H128.303C128.44 443.005 129.014 444.29 130.025 445.219C131.036 446.148 132.28 446.613 133.756 446.613C135.888 446.613 137.405 445.697 138.307 443.866H144.498C143.842 446.053 142.585 447.857 140.726 449.278C138.867 450.672 136.585 451.369 133.879 451.369C131.692 451.369 129.724 450.891 127.975 449.934C126.253 448.95 124.9 447.57 123.916 445.793C122.959 444.016 122.481 441.966 122.481 439.643C122.481 437.292 122.959 435.229 123.916 433.452C124.873 431.675 126.212 430.309 127.934 429.352C129.656 428.395 131.638 427.917 133.879 427.917C136.038 427.917 137.965 428.382 139.66 429.311C141.382 430.24 142.708 431.566 143.637 433.288C144.594 434.983 145.072 436.937 145.072 439.151ZM139.127 437.511C139.1 436.035 138.567 434.86 137.528 433.985C136.489 433.083 135.218 432.632 133.715 432.632C132.294 432.632 131.091 433.069 130.107 433.944C129.15 434.791 128.563 435.98 128.344 437.511H139.127ZM155.945 433.001V443.989C155.945 444.754 156.122 445.315 156.478 445.67C156.86 445.998 157.489 446.162 158.364 446.162H161.029V451H157.421C152.583 451 150.164 448.649 150.164 443.948V433.001H147.458V428.286H150.164V422.669H155.945V428.286H161.029V433.001H155.945ZM168.068 425.58C167.057 425.58 166.209 425.266 165.526 424.637C164.87 423.981 164.542 423.175 164.542 422.218C164.542 421.261 164.87 420.469 165.526 419.84C166.209 419.184 167.057 418.856 168.068 418.856C169.079 418.856 169.913 419.184 170.569 419.84C171.252 420.469 171.594 421.261 171.594 422.218C171.594 423.175 171.252 423.981 170.569 424.637C169.913 425.266 169.079 425.58 168.068 425.58ZM170.897 428.286V451H165.157V428.286H170.897ZM181.816 446.285H191.943V451H175.297V446.367L185.219 433.001H175.338V428.286H191.82V432.919L181.816 446.285ZM217.503 439.151C217.503 439.971 217.448 440.709 217.339 441.365H200.734C200.87 443.005 201.444 444.29 202.456 445.219C203.467 446.148 204.711 446.613 206.187 446.613C208.319 446.613 209.836 445.697 210.738 443.866H216.929C216.273 446.053 215.015 447.857 213.157 449.278C211.298 450.672 209.016 451.369 206.31 451.369C204.123 451.369 202.155 450.891 200.406 449.934C198.684 448.95 197.331 447.57 196.347 445.793C195.39 444.016 194.912 441.966 194.912 439.643C194.912 437.292 195.39 435.229 196.347 433.452C197.303 431.675 198.643 430.309 200.365 429.352C202.087 428.395 204.068 427.917 206.31 427.917C208.469 427.917 210.396 428.382 212.091 429.311C213.813 430.24 215.138 431.566 216.068 433.288C217.024 434.983 217.503 436.937 217.503 439.151ZM211.558 437.511C211.53 436.035 210.997 434.86 209.959 433.985C208.92 433.083 207.649 432.632 206.146 432.632C204.724 432.632 203.522 433.069 202.538 433.944C201.581 434.791 200.993 435.98 200.775 437.511H211.558ZM254.217 422.382L244.541 441.037V451H238.801V441.037L229.084 422.382H235.562L241.712 435.461L247.821 422.382H254.217ZM267.613 451.369C265.427 451.369 263.459 450.891 261.709 449.934C259.96 448.95 258.58 447.57 257.568 445.793C256.584 444.016 256.092 441.966 256.092 439.643C256.092 437.32 256.598 435.27 257.609 433.493C258.648 431.716 260.056 430.35 261.832 429.393C263.609 428.409 265.591 427.917 267.777 427.917C269.964 427.917 271.946 428.409 273.722 429.393C275.499 430.35 276.893 431.716 277.904 433.493C278.943 435.27 279.462 437.32 279.462 439.643C279.462 441.966 278.929 444.016 277.863 445.793C276.825 447.57 275.403 448.95 273.599 449.934C271.823 450.891 269.827 451.369 267.613 451.369ZM267.613 446.367C268.652 446.367 269.622 446.121 270.524 445.629C271.454 445.11 272.192 444.344 272.738 443.333C273.285 442.322 273.558 441.092 273.558 439.643C273.558 437.484 272.984 435.83 271.836 434.682C270.716 433.507 269.335 432.919 267.695 432.919C266.055 432.919 264.675 433.507 263.554 434.682C262.461 435.83 261.914 437.484 261.914 439.643C261.914 441.802 262.447 443.47 263.513 444.645C264.607 445.793 265.973 446.367 267.613 446.367ZM305.116 428.286V451H299.335V448.13C298.597 449.114 297.626 449.893 296.424 450.467C295.248 451.014 293.964 451.287 292.57 451.287C290.793 451.287 289.221 450.918 287.855 450.18C286.488 449.415 285.408 448.308 284.616 446.859C283.85 445.383 283.468 443.634 283.468 441.611V428.286H289.208V440.791C289.208 442.595 289.659 443.989 290.561 444.973C291.463 445.93 292.693 446.408 294.251 446.408C295.836 446.408 297.08 445.93 297.982 444.973C298.884 443.989 299.335 442.595 299.335 440.791V428.286H305.116ZM316.519 431.812C317.257 430.609 318.214 429.666 319.389 428.983C320.592 428.3 321.959 427.958 323.489 427.958V433.985H321.972C320.168 433.985 318.802 434.409 317.872 435.256C316.97 436.103 316.519 437.579 316.519 439.684V451H310.779V428.286H316.519V431.812ZM72.082 472.382L64.087 501H57.322L51.951 480.623L46.334 501L39.61 501.041L31.902 472.382H38.052L43.095 494.604L48.917 472.382H55.313L60.807 494.481L65.891 472.382H72.082ZM74.354 489.561C74.354 487.265 74.805 485.229 75.707 483.452C76.6363 481.675 77.88 480.309 79.438 479.352C81.0233 478.395 82.7863 477.917 84.727 477.917C86.4216 477.917 87.8976 478.259 89.155 478.942C90.4396 479.625 91.4646 480.486 92.23 481.525V478.286H98.011V501H92.23V497.679C91.492 498.745 90.467 499.633 89.155 500.344C87.8703 501.027 86.3806 501.369 84.686 501.369C82.7726 501.369 81.0233 500.877 79.438 499.893C77.88 498.909 76.6363 497.529 75.707 495.752C74.805 493.948 74.354 491.884 74.354 489.561ZM92.23 489.643C92.23 488.249 91.9566 487.06 91.41 486.076C90.8633 485.065 90.1253 484.299 89.196 483.78C88.2666 483.233 87.269 482.96 86.203 482.96C85.137 482.96 84.153 483.22 83.251 483.739C82.349 484.258 81.611 485.024 81.037 486.035C80.4903 487.019 80.217 488.194 80.217 489.561C80.217 490.928 80.4903 492.13 81.037 493.169C81.611 494.18 82.349 494.959 83.251 495.506C84.1803 496.053 85.1643 496.326 86.203 496.326C87.269 496.326 88.2666 496.066 89.196 495.547C90.1253 495 90.8633 494.235 91.41 493.251C91.9566 492.24 92.23 491.037 92.23 489.643ZM116.204 477.958C118.91 477.958 121.097 478.819 122.764 480.541C124.431 482.236 125.265 484.614 125.265 487.675V501H119.525V488.454C119.525 486.65 119.074 485.27 118.172 484.313C117.27 483.329 116.04 482.837 114.482 482.837C112.897 482.837 111.639 483.329 110.71 484.313C109.808 485.27 109.357 486.65 109.357 488.454V501H103.617V478.286H109.357V481.115C110.122 480.131 111.093 479.366 112.268 478.819C113.471 478.245 114.783 477.958 116.204 477.958ZM129.248 489.561C129.248 487.265 129.699 485.229 130.601 483.452C131.53 481.675 132.787 480.309 134.373 479.352C135.958 478.395 137.721 477.917 139.662 477.917C141.138 477.917 142.545 478.245 143.885 478.901C145.224 479.53 146.29 480.377 147.083 481.443V470.66H152.905V501H147.083V497.638C146.372 498.759 145.374 499.661 144.09 500.344C142.805 501.027 141.315 501.369 139.621 501.369C137.707 501.369 135.958 500.877 134.373 499.893C132.787 498.909 131.53 497.529 130.601 495.752C129.699 493.948 129.248 491.884 129.248 489.561ZM147.124 489.643C147.124 488.249 146.85 487.06 146.304 486.076C145.757 485.065 145.019 484.299 144.09 483.78C143.16 483.233 142.163 482.96 141.097 482.96C140.031 482.96 139.047 483.22 138.145 483.739C137.243 484.258 136.505 485.024 135.931 486.035C135.384 487.019 135.111 488.194 135.111 489.561C135.111 490.928 135.384 492.13 135.931 493.169C136.505 494.18 137.243 494.959 138.145 495.506C139.074 496.053 140.058 496.326 141.097 496.326C142.163 496.326 143.16 496.066 144.09 495.547C145.019 495 145.757 494.235 146.304 493.251C146.85 492.24 147.124 491.037 147.124 489.643ZM179.626 489.151C179.626 489.971 179.571 490.709 179.462 491.365H162.857C162.993 493.005 163.567 494.29 164.579 495.219C165.59 496.148 166.834 496.613 168.31 496.613C170.442 496.613 171.959 495.697 172.861 493.866H179.052C178.396 496.053 177.138 497.857 175.28 499.278C173.421 500.672 171.139 501.369 168.433 501.369C166.246 501.369 164.278 500.891 162.529 499.934C160.807 498.95 159.454 497.57 158.47 495.793C157.513 494.016 157.035 491.966 157.035 489.643C157.035 487.292 157.513 485.229 158.47 483.452C159.426 481.675 160.766 480.309 162.488 479.352C164.21 478.395 166.191 477.917 168.433 477.917C170.592 477.917 172.519 478.382 174.214 479.311C175.936 480.24 177.261 481.566 178.191 483.288C179.147 484.983 179.626 486.937 179.626 489.151ZM173.681 487.511C173.653 486.035 173.12 484.86 172.082 483.985C171.043 483.083 169.772 482.632 168.269 482.632C166.847 482.632 165.645 483.069 164.661 483.944C163.704 484.791 163.116 485.98 162.898 487.511H173.681ZM189.555 481.812C190.293 480.609 191.25 479.666 192.425 478.983C193.628 478.3 194.995 477.958 196.525 477.958V483.985H195.008C193.204 483.985 191.838 484.409 190.908 485.256C190.006 486.103 189.555 487.579 189.555 489.684V501H183.815V478.286H189.555V481.812ZM206.132 470.66V501H200.392V470.66H206.132ZM233.246 478.286V501H227.465V498.13C226.727 499.114 225.756 499.893 224.554 500.467C223.378 501.014 222.094 501.287 220.7 501.287C218.923 501.287 217.351 500.918 215.985 500.18C214.618 499.415 213.538 498.308 212.746 496.859C211.98 495.383 211.598 493.634 211.598 491.611V478.286H217.338V490.791C217.338 492.595 217.789 493.989 218.691 494.973C219.593 495.93 220.823 496.408 222.381 496.408C223.966 496.408 225.21 495.93 226.112 494.973C227.014 493.989 227.465 492.595 227.465 490.791V478.286H233.246ZM247.601 501.369C245.742 501.369 244.075 501.041 242.599 500.385C241.123 499.702 239.948 498.786 239.073 497.638C238.226 496.49 237.761 495.219 237.679 493.825H243.46C243.569 494.7 243.993 495.424 244.731 495.998C245.496 496.572 246.439 496.859 247.56 496.859C248.653 496.859 249.501 496.64 250.102 496.203C250.731 495.766 251.045 495.205 251.045 494.522C251.045 493.784 250.662 493.237 249.897 492.882C249.159 492.499 247.97 492.089 246.33 491.652C244.635 491.242 243.241 490.818 242.148 490.381C241.082 489.944 240.153 489.274 239.36 488.372C238.595 487.47 238.212 486.254 238.212 484.723C238.212 483.466 238.567 482.318 239.278 481.279C240.016 480.24 241.055 479.42 242.394 478.819C243.761 478.218 245.36 477.917 247.191 477.917C249.897 477.917 252.056 478.6 253.669 479.967C255.282 481.306 256.17 483.124 256.334 485.42H250.84C250.758 484.518 250.375 483.807 249.692 483.288C249.036 482.741 248.148 482.468 247.027 482.468C245.988 482.468 245.182 482.659 244.608 483.042C244.061 483.425 243.788 483.958 243.788 484.641C243.788 485.406 244.171 485.994 244.936 486.404C245.701 486.787 246.89 487.183 248.503 487.593C250.143 488.003 251.496 488.427 252.562 488.864C253.628 489.301 254.544 489.985 255.309 490.914C256.102 491.816 256.512 493.019 256.539 494.522C256.539 495.834 256.17 497.009 255.432 498.048C254.721 499.087 253.683 499.907 252.316 500.508C250.977 501.082 249.405 501.369 247.601 501.369ZM267.934 483.001V493.989C267.934 494.754 268.112 495.315 268.467 495.67C268.85 495.998 269.478 496.162 270.353 496.162H273.018V501H269.41C264.572 501 262.153 498.649 262.153 493.948V483.001H259.447V478.286H262.153V472.669H267.934V478.286H273.018V483.001H267.934Z" fill="white"/>
<path d="M331.247 250.136C330.121 261.553 328.394 272.943 326.622 284.276C324.869 295.485 322.859 306.652 320.682 317.785C319.618 323.219 318.537 328.649 317.393 334.065C317.113 335.387 316.803 336.713 316.487 338.043C314.467 338.573 312.785 341.495 311.915 343.036C310.389 345.746 309.579 348.691 309.409 351.756C306.875 353.063 304.339 354.365 301.802 355.67C299.361 356.925 296.753 358.063 294.309 359.42C296.954 354.373 297.953 347.201 298.646 343.613C301.318 329.788 303.854 315.941 306.421 302.097C308.861 288.935 312.299 275.623 312.921 262.209C313.041 259.637 313.027 257.043 312.835 254.461C315.163 252.004 315.987 248.143 316.425 244.915C316.895 241.441 317.403 237.085 316.697 233.541C317.61 232.965 318.493 232.401 319.327 231.915C320.626 231.156 322.234 230.369 323.825 229.489C325.801 232.1 328.526 234.243 331.345 235.647C331.89 240.403 331.727 245.289 331.247 250.136ZM314.131 349.305C313.59 349.589 313.046 349.867 312.505 350.149C312.817 348.024 313.482 345.971 314.557 344.063C314.755 343.711 315.026 343.346 315.327 342.973C314.851 345.079 314.423 347.189 314.131 349.305ZM270.182 361.628C267.185 361.063 264.287 360.425 261.655 359.988C260.153 359.739 258.646 359.505 257.142 359.264C257.174 359.179 257.206 359.096 257.226 358.999C261.903 336.377 267.015 313.853 271.961 291.289C274.405 280.141 276.881 269 279.391 257.868C280.617 252.438 281.849 247.009 283.089 241.583C283.771 238.597 284.457 235.612 285.142 232.629C285.546 230.88 286.043 229.517 285.913 227.967C288.522 228.467 291.093 229.111 293.569 230.005C293.917 230.132 294.237 230.273 294.57 230.408C293.674 234.767 294.998 239.9 296.682 243.732C299.122 249.28 303.585 253.831 309.059 256.409C309.081 256.42 309.103 256.424 309.126 256.434C309.209 258.897 309.161 261.368 308.979 263.843C308.093 276.041 305.034 288.212 302.671 300.189C300.329 312.06 297.905 323.913 295.643 335.8C294.835 340.049 294.19 344.38 293.234 348.616C284.083 347.84 273.002 352.324 270.182 361.628ZM290.054 357.8C288.871 359.795 287.066 360.879 285.575 362.517C281.663 363.182 277.406 362.827 273.234 362.163C275.047 359.348 276.849 356.855 279.959 354.887C283.702 352.519 288.034 351.622 292.367 352.075C291.811 354.052 291.105 356.027 290.054 357.8ZM253.913 358.746C252.273 358.484 250.633 358.212 248.991 357.955C255.223 332.625 260.581 307.132 264.419 281.322C266.293 268.719 267.742 256.048 268.915 243.365C269.219 240.091 269.505 236.815 269.761 233.538C269.889 231.9 269.95 230.251 270.115 228.617C270.214 227.653 270.411 226.848 270.699 226.125C271.075 226.16 271.451 226.197 271.827 226.231C275.855 226.604 279.994 226.973 284.063 227.644C281.926 230.997 281.666 236.475 280.794 240.084C279.425 245.764 278.063 251.444 276.71 257.128C274.069 268.224 271.459 279.328 268.881 290.44C263.662 312.936 258.886 335.537 253.934 358.092C253.882 358.325 253.883 358.543 253.913 358.746ZM231.829 355.291C211.475 352.127 191.131 348.907 170.759 345.877C172.043 332.958 175.594 320.467 179.087 307.991C182.871 294.485 185.765 280.956 188.134 267.133C190.507 253.295 192.819 239.448 195.257 225.621C196.018 221.296 196.209 215.499 197.983 210.9C208.885 213.879 219.661 217.319 230.618 220.095C243.073 223.251 255.503 224.68 268.206 225.891C267.67 227.607 267.478 229.556 267.266 231.897C265.945 246.519 264.259 261.09 262.162 275.619C258.185 303.155 253.029 330.56 245.961 357.48C241.251 356.747 236.539 356.024 231.829 355.291ZM161.546 344.635C168.189 317.395 171.393 289.587 173.757 261.68C174.99 247.12 175.818 232.452 177.687 217.957C178.149 214.381 178.785 210.607 180.655 207.457C180.787 207.235 180.926 207.027 181.07 206.827C184.225 207.457 187.363 208.167 190.483 208.936C192.058 209.324 193.626 209.729 195.194 210.144C193.865 214.06 193.586 218.599 192.927 222.367C190.363 237.016 187.739 251.655 185.039 266.279C182.454 280.284 179.141 294.068 175.314 307.783C171.859 320.16 168.577 332.591 167.395 345.404C165.453 345.14 163.503 344.883 161.546 344.635ZM141.437 341.307C140.945 341.187 140.47 341.051 139.999 340.912C140.738 335.495 139.167 330.611 136.255 326.015C134.154 322.699 131.243 318.047 127.077 317.411C127.926 310.251 129.782 303.116 130.595 295.983C131.714 286.17 132.182 276.295 132.714 266.438C133.341 254.876 133.971 243.275 135.799 231.827C136.347 228.396 136.925 224.068 137.977 219.821C147.801 220.619 156.975 213.036 160.467 204.265C163.319 204.42 166.173 204.579 169.006 204.901C172.378 205.285 175.734 205.815 179.073 206.44C178.073 207.855 177.305 209.563 176.674 211.763C174.826 218.207 174.623 225.319 173.939 231.956C173.167 239.449 172.463 246.948 171.751 254.448C168.897 284.547 166.213 314.92 158.473 344.236C152.735 343.489 146.998 342.658 141.437 341.307ZM137.137 339.875C130.261 336.904 126.41 331.279 126.659 322.815C126.687 321.807 126.751 320.798 126.837 319.789C133.198 323.307 137.887 332.892 137.137 339.875ZM150.359 203.465C152.626 203.763 154.907 203.937 157.193 204.079C153.651 211.764 146.778 215.392 138.819 216.8C140.801 210.489 144.125 204.899 150.359 203.465ZM166.441 197.403C171.754 195.539 177.042 193.511 182.417 191.833C182.489 191.812 182.559 191.793 182.629 191.772C186.914 194.88 193.245 194.195 197.782 191.76C198.391 191.9 199.009 192.048 199.642 192.209C199.943 192.284 200.246 192.353 200.549 192.428C195.961 195.605 191.374 198.596 186.245 201.04C184.838 201.711 183.625 202.375 182.563 203.095C174.081 201.288 165.011 199.963 156.651 200.959C159.97 199.892 163.241 198.525 166.441 197.403ZM210.277 194.648C208.058 197.351 205.545 199.521 202.593 201.525C200.783 202.755 198.897 203.897 197.526 205.644C197.306 205.924 197.099 206.213 196.905 206.512C195.599 206.176 194.293 205.839 192.983 205.52C190.47 204.909 187.833 204.269 185.122 203.657C186.446 203.025 187.87 202.521 189.279 201.891C194.21 199.683 199.029 196.735 203.027 193.025C205.438 193.593 207.855 194.124 210.277 194.648ZM213.21 195.275C214.135 195.473 215.062 195.672 215.987 195.871C215.301 199.3 215.346 202.957 216.063 205.781C215.575 206.191 215.713 207.188 216.421 207.46C218.002 208.067 219.533 208.444 221.175 208.853C222.001 209.057 222.698 208.467 222.751 207.652C222.954 204.601 222.875 201.119 224.477 198.419C224.723 198.004 224.995 197.633 225.287 197.293C229.814 198.648 235.05 198.625 239.667 199.328C244.801 200.111 249.99 201.005 254.959 202.547C255.161 202.608 255.346 202.621 255.518 202.607C256.399 204.788 256.523 207.193 256.229 209.773C256.043 211.388 255.595 212.967 256.347 214.524C257.809 217.552 261.695 217.853 264.634 217.743C265.701 217.703 266.047 216.569 265.667 215.859C266.389 212.719 266.794 209.555 266.783 206.359C270.785 208.269 275.605 208.856 279.835 209.772C282.002 210.243 284.174 210.689 286.347 211.132C281.738 214.093 277.117 217.048 272.623 220.175C271.834 220.724 271.178 221.279 270.621 221.847C259.338 220.636 248.047 219.791 236.893 217.248C224.455 214.412 212.275 210.584 199.953 207.307C200.522 206.571 201.175 205.907 201.939 205.349C206.233 202.215 210.001 199.553 213.21 195.275ZM253.586 199.507C248.742 198.944 243.923 198.081 239.093 197.424C235.13 196.884 230.753 195.921 226.646 196.063C228.786 194.548 231.571 194.199 234.274 194.139C240.654 193.996 248.217 194.124 253.055 198.943C253.241 199.128 253.418 199.317 253.586 199.507ZM219.026 195.047C219.143 194.785 219.201 194.501 219.198 194.223C219.735 191.988 220.823 190.027 223.131 188.684C228.914 185.321 236.459 187.285 242.366 189.197C245.117 190.087 247.826 191.095 250.569 192.004C253.234 192.891 256.306 193.199 258.861 194.249C265.583 197.011 263.757 209.537 262.415 215.232C262.406 215.269 262.407 215.301 262.402 215.336C261.218 215.313 260.009 215.149 259.242 214.521C257.113 212.772 258.286 210.787 258.507 208.652C258.803 205.784 258.395 202.891 256.959 200.364C254.143 195.413 248.595 192.968 243.187 192.196C238.011 191.457 230.514 191.116 225.857 194.04C221.767 196.607 220.617 201.581 220.33 206.147C219.606 206.004 218.887 205.877 218.158 205.773C218.854 202.435 218.413 198.481 219.026 195.047ZM296.738 213.256C298.085 213.54 299.431 213.824 300.777 214.115C296.331 217.804 290.638 220.157 286.382 223.993C285.405 223.819 284.434 223.653 283.482 223.5C280.31 222.996 277.131 222.585 273.951 222.217C278.793 218.385 284.406 215.2 289.625 211.799C291.997 212.277 294.37 212.757 296.738 213.256ZM308.802 251.829C305.241 249.651 302.405 246.736 300.285 242.995C298.13 239.199 297.794 235.636 297.417 231.717C301.074 233.7 303.763 236.361 305.889 239.915C306.765 242.084 307.543 244.299 308.034 246.763C308.37 248.445 308.618 250.136 308.802 251.829ZM308.495 234.659C307.686 234.019 306.767 233.447 306.045 233.067C305.733 232.903 305.438 232.857 305.175 232.893C304.473 232.029 303.709 231.24 302.915 230.549C304.133 230.812 305.378 231.007 306.625 231.304C308.253 231.692 309.993 232.085 311.558 232.715C310.463 233.311 309.413 233.944 308.495 234.659ZM310.057 239.596C310.169 238.572 310.755 237.664 311.001 236.656C311.834 236.321 312.659 235.911 313.474 235.465C313.479 235.721 313.483 236.001 313.499 236.318C313.642 239.354 313.791 242.42 313.298 245.436C313.075 246.803 312.653 248.047 312.167 249.264C311.953 248.112 311.701 246.968 311.386 245.839C311.047 244.625 310.606 243.312 310.083 241.983C310.209 241.777 310.27 241.518 310.233 241.203C310.166 240.66 310.094 240.129 310.057 239.596ZM320.975 219.384C320.979 219.385 320.983 219.387 320.989 219.389C320.547 221.977 321.019 224.475 322.118 226.743C320.897 227.604 319.713 228.468 318.583 229.132C317.586 229.716 316.454 230.275 315.283 230.841C314.033 229.813 312.162 229.483 310.458 229.045C307.075 228.177 303.006 227.075 299.579 228.22C296.843 226.665 293.771 225.644 290.653 224.887C292.414 223.699 294.111 222.379 295.778 221.224C298.702 219.201 301.589 217.192 304.303 214.897C307.382 215.593 310.451 216.328 313.498 217.159C316.007 217.843 318.503 218.577 320.975 219.384ZM323.646 220.365C324.671 220.745 325.701 221.087 326.758 221.24C327.195 221.991 327.601 222.753 327.971 223.523C326.798 223.86 325.643 224.453 324.513 225.147C323.858 223.768 323.529 222.199 323.646 220.365ZM328.951 225.741C329.718 227.685 330.294 229.676 330.718 231.701C329.149 230.512 327.626 229.301 326.393 227.921C327.355 227.259 328.246 226.545 328.951 225.741ZM329.477 220.633C329.514 220.423 329.459 220.188 329.282 219.979C326.418 216.601 319.971 215.655 315.859 214.464C310.103 212.797 304.259 211.415 298.393 210.199C295.933 209.688 293.466 209.207 291.001 208.728C290.842 208.645 290.662 208.605 290.47 208.624C287.461 208.044 284.449 207.476 281.438 206.908C276.723 206.019 271.602 204.34 266.713 204.361C266.689 203.956 266.665 203.552 266.626 203.148C266.335 200.057 266.029 195.843 264.026 193.308C261.975 190.709 257.795 190.815 254.863 189.98C250.47 188.728 246.234 186.988 241.842 185.733C235.222 183.843 226.719 182.585 220.761 186.981C219.077 188.223 217.821 190.193 216.954 192.471C211.103 191.108 204.742 189.236 198.418 188.347C198.295 188.311 198.166 188.296 198.031 188.299C193.267 187.659 188.529 187.589 184.053 188.741C178.115 190.269 172.326 192.724 166.55 194.769C161.178 196.673 155.238 198.163 150.277 201.037C142.465 202.423 138.114 209.273 135.93 216.6C132.829 227.009 131.614 238.061 130.721 248.855C129.795 260.037 129.461 271.257 128.593 282.441C127.722 293.661 125.754 304.522 123.867 315.589C122.527 323.44 122.037 332.243 127.75 338.58C133.91 345.412 144.142 346.329 152.651 347.729C175.825 351.541 199.033 355.117 222.239 358.713C235.507 360.771 248.767 362.889 262.055 364.809C267.646 365.616 273.33 366.601 278.997 366.553C282.149 366.529 284.818 366.024 287.383 364.979C288.773 364.88 289.978 364.364 291.034 363.559C291.114 363.563 291.193 363.565 291.273 363.546C295.443 362.477 299.393 360.035 303.263 358.167C305.759 356.964 308.254 355.759 310.753 354.558C311.273 354.587 311.801 354.375 312.082 353.923C313.235 353.371 314.385 352.816 315.539 352.271C316.182 352.222 316.826 351.859 317.069 351.183C319.094 345.532 319.934 339.255 321.15 333.382C322.385 327.416 323.567 321.44 324.651 315.446C326.822 303.451 328.738 291.412 330.441 279.343C331.999 268.28 333.65 257.139 334.387 245.985C334.965 237.262 334.426 228.056 329.477 220.633Z" fill="#518000"/>
<path d="M202.979 269.037C202.443 264.536 201.95 260.028 201.509 255.515C201.139 251.745 201.194 247.644 200.293 243.921C204.139 243.435 207.974 241.912 211.825 241.243C215.966 240.523 220.142 239.939 224.306 239.345C224.465 241.164 224.609 242.923 225.194 244.675C225.457 251.464 226.139 258.257 227.197 264.961C219.009 265.64 210.947 267.029 202.979 269.037ZM226.837 240.751C226.826 240.257 226.481 239.992 226.102 239.932C226.047 239.417 225.987 238.9 225.934 238.377C225.891 237.964 225.571 237.452 225.075 237.519C220.73 238.103 216.367 238.572 212.038 239.277C208.854 239.797 205.027 240.303 201.899 241.708C201.323 241.757 200.746 241.793 200.169 241.815C199.903 241.824 199.703 241.936 199.567 242.093C199.358 242.024 199.111 242.092 199.067 242.356C198.351 246.597 199.253 251.253 199.67 255.515C200.147 260.405 200.703 265.288 201.294 270.165C201.365 270.753 201.815 271.196 202.443 271.041C210.953 268.952 219.582 267.583 228.307 266.805C228.974 266.745 229.359 266.236 229.242 265.577C227.766 257.319 227.003 249.139 226.837 240.751Z" fill="#518000"/>
<path d="M220.981 257.656C219.781 259.445 216.393 259.793 214.378 260.427C212.188 261.113 210 261.805 207.809 262.493C207.121 257.657 206.796 252.753 206.018 247.936C206.053 247.94 206.08 247.957 206.118 247.957C210.868 248.031 215.273 246.725 219.386 244.472C219.741 246.369 220.094 248.267 220.43 250.165C220.788 252.188 222.13 255.939 220.981 257.656ZM222.582 253.403C221.884 250.02 221.201 246.633 220.541 243.241C220.456 242.807 219.896 242.624 219.541 242.835C215.35 245.324 210.954 246.36 206.118 246.499C205.944 246.504 205.812 246.568 205.701 246.653C205.382 246.349 204.701 246.568 204.685 247.095C204.513 252.656 205.482 258.333 206.3 263.824C206.366 264.269 206.946 264.539 207.342 264.416C210.841 263.333 214.344 262.267 217.838 261.168C219.168 260.751 222.524 260.471 223.364 259.039C224.188 257.633 222.865 254.765 222.582 253.403Z" fill="#518000"/>
<path d="M150.405 252.795C148.885 253.729 146.564 254.256 144.644 254.801C145.055 249.729 145.368 244.521 144.791 239.473C144.78 239.38 144.751 239.299 144.716 239.224C144.736 239.22 144.752 239.227 144.773 239.22C146.797 238.675 150.467 236.963 151.7 239.424C152.467 240.952 151.943 244.683 152.025 246.459C152.139 248.9 152.739 251.359 150.405 252.795ZM153.657 244.348C153.568 242.577 154.325 237.745 152.693 236.413C151.012 235.041 146.055 237.103 144.316 237.559C143.645 237.735 143.572 238.453 143.875 238.896C143.671 238.979 143.508 239.165 143.491 239.473C143.199 244.991 143.309 250.487 142.813 256.001C142.764 256.549 143.408 257.005 143.909 256.837C146.021 256.132 148.135 255.432 150.244 254.719C151.177 254.405 153.052 254.212 153.693 253.312C155.036 251.432 153.769 246.541 153.657 244.348Z" fill="#518000"/>
<path d="M157.463 279.051C157.287 280.325 156.163 281.908 155.459 282.991C154.391 284.629 153.13 286.125 151.832 287.587C151.4 285.449 150.914 283.327 150.343 281.223C150.031 280.077 149.688 278.943 149.348 277.805C149.131 277.184 148.946 276.553 148.787 275.916C151.11 275.482 152.122 276.223 151.819 278.141C151.83 278.288 151.882 278.401 151.948 278.494C151.946 278.498 151.943 278.501 151.94 278.504C151.304 279.428 152.807 280.294 153.44 279.38C154.4 277.584 155.844 277.143 157.771 278.058L157.463 279.051ZM159.586 277.3C159.003 274.053 155.422 275.498 153.286 277.171C153.384 274.141 150.132 269.909 147.515 272.748C146.123 274.259 147.035 276.66 147.531 278.306C148.676 282.103 149.654 285.916 150.402 289.811C150.528 290.479 151.495 290.71 151.936 290.216C153.847 288.082 155.792 285.913 157.288 283.456C158.222 281.922 159.926 279.196 159.586 277.3Z" fill="#518000"/>
<path d="M205.718 296.352C205.069 297.037 205.946 298.007 206.662 297.595C208.047 299.261 208.83 300.997 209.142 302.999C207.295 301.601 205.45 300.204 203.614 298.793C203.206 298.482 202.666 298.77 202.41 299.108C200.865 301.158 199.319 303.205 197.774 305.255C198.262 302.519 198.75 299.784 199.235 297.048C199.331 296.504 199.013 296.058 198.45 296.017C196.574 295.885 194.913 295.505 193.266 294.844C194.809 294.356 196.353 293.87 197.894 293.37C198.859 293.055 200.661 292.773 201.413 291.897C202.399 290.751 202.906 288.105 203.107 285.647C203.489 286.467 203.859 287.291 204.161 288.147C204.507 289.129 204.626 290.828 205.502 291.553C206.587 292.453 208.619 292.029 210.51 291.405C208.902 293.046 207.297 294.688 205.718 296.352ZM213.541 288.483C213.107 288.603 212.674 288.727 212.239 288.848C211.447 288.947 210.653 289.047 209.859 289.147C209.363 289.21 208.835 289.331 208.335 289.336C207.406 289.348 207.57 289.364 206.991 288.524C205.601 286.504 204.591 284.077 203.426 281.919C203.353 281.784 203.261 281.693 203.159 281.624C203.155 281.577 203.153 281.524 203.149 281.48C203.129 281.265 202.821 281.129 202.703 281.36C202.679 281.41 202.661 281.461 202.638 281.513C202.435 281.544 202.243 281.646 202.098 281.796C201.927 281.863 201.782 281.987 201.695 282.192C201.691 282.203 201.685 282.213 201.682 282.224C201.667 282.264 201.642 282.291 201.631 282.336C201.047 285.02 200.411 287.691 199.729 290.349C199.707 290.432 199.717 290.503 199.717 290.577C197.621 292.424 193.155 293.168 190.809 293.916C190.174 294.117 189.963 295.067 190.615 295.408C192.841 296.575 195.049 297.253 197.489 297.548C196.806 301.173 196.117 304.799 195.45 308.427C195.266 309.429 196.445 309.883 197.039 309.097C199.137 306.325 201.235 303.555 203.333 300.784C205.421 302.399 207.501 304.023 209.579 305.649C210.183 306.122 211.163 305.867 211.166 304.991C211.175 301.636 210.091 298.88 207.943 296.384C210.106 294.251 212.243 292.089 214.386 289.934C214.993 289.323 214.379 288.247 213.541 288.483Z" fill="#518000"/>
<path d="M246.125 296.02C242.379 294.756 238.598 293.611 234.793 292.54C232.575 291.915 230.049 290.858 227.657 290.779C229.218 286.393 230.891 281.965 232.097 277.46C235.309 279.101 239.217 279.927 243.11 280.553C245.474 281.061 247.878 281.352 250.237 282.022C250.323 282.047 250.399 282.04 250.477 282.041C248.974 286.655 247.207 291.304 246.125 296.02ZM252.03 280.105C247.773 279.243 242.919 277.712 238.225 277.032C236.339 276.264 234.345 275.591 233.57 275.982C233.698 275.641 233.631 275.253 233.199 275.052C233.15 275.031 233.101 275.007 233.051 274.984C232.701 274.823 232.386 274.858 232.121 275.058C232.014 275.068 231.911 275.123 231.849 275.252C229.415 280.308 227.673 285.768 225.803 291.051C225.767 291.155 225.763 291.248 225.765 291.339C225.759 291.359 225.761 291.38 225.757 291.399V291.4C225.677 291.811 225.875 292.307 226.317 292.413C232.803 293.983 239.213 296.156 245.573 298.167C246.001 298.301 246.349 298.188 246.585 297.953C246.861 298.012 247.146 297.924 247.294 297.583C249.563 292.363 250.927 286.658 252.675 281.241C252.821 280.791 252.505 280.203 252.03 280.105Z" fill="#518000"/>
<path d="M61.9801 111.224C64.2815 110.544 65.7865 108.701 67.7499 107.586C67.8636 107.528 67.7499 106.692 67.5093 106.481C67.0445 106.071 65.1689 106.478 64.6749 106.972C63.6607 107.989 62.6595 109.026 61.616 110.011C61.3235 110.291 61.1643 110.525 61.4178 110.847C61.5608 111.032 61.8566 111.263 61.9801 111.224ZM87.3215 117.968C87.627 117.861 88.1503 117.686 88.6769 117.504C88.4201 117.091 88.1764 116.668 87.9099 116.262C86.7071 114.435 85.5044 112.612 84.3082 110.785C84.1684 110.57 84.1035 110.307 83.9539 110.109C83.2876 109.231 82.6115 108.366 81.9126 107.515C81.8313 107.42 81.5517 107.368 81.451 107.43C81.2494 107.557 80.9731 107.768 80.9634 107.957C80.9374 108.357 80.9731 108.808 81.1487 109.156C82.0653 110.947 83.0405 112.712 83.9831 114.487C84.4805 115.43 85.4102 116.09 85.6507 117.211C85.8035 117.92 86.4471 118.001 87.3215 117.968ZM99.5273 113.619C99.5696 111.714 99.5859 111.607 98.3994 110.092C97.733 109.241 96.9594 108.451 96.1403 107.742C94.4142 106.253 92.9645 104.638 92.802 102.216C92.7922 102.07 92.6622 101.898 92.5386 101.8C92.4346 101.719 92.2071 101.651 92.1226 101.709C91.0564 102.428 90.7216 103.627 90.3705 104.739C90.0942 105.626 90.6891 106.419 91.2969 107.008C92.0835 107.768 92.9514 108.467 93.8778 109.055C95.0968 109.823 95.8737 110.847 96.3515 112.189C96.8196 113.486 97.2714 114.747 96.9951 116.168C96.9431 116.437 97.1675 116.98 97.3592 117.026C97.7363 117.117 98.3051 117.101 98.5652 116.87C98.9845 116.496 99.3388 115.947 99.4916 115.41C99.6476 114.854 99.5273 114.217 99.5273 113.619ZM86.5219 101.842C86.3398 101.927 85.7158 102.145 85.1794 102.493C84.6821 102.814 84.2595 103.26 83.8434 103.682C83.0438 104.488 83.047 104.709 83.7621 105.555C84.3667 106.27 85.0104 106.949 85.5597 107.7C86.6974 109.257 87.5686 110.999 88.8948 112.423C90.0747 113.681 90.9492 115.131 91.4367 116.789C91.5668 117.227 91.6382 117.617 92.1941 117.617C92.7239 117.614 93.192 117.526 93.478 116.98C94.4174 115.186 94.5345 113.418 93.1855 111.805C92.3729 110.834 91.4984 109.852 90.468 109.146C87.8838 107.378 87.2695 106.081 87.9099 102.993C88.1146 102.005 88.0009 101.859 86.5219 101.842ZM108.551 115.576C108.366 115.157 108.271 114.825 108.089 114.552C106.067 111.575 104.653 108.305 103.37 104.966C102.888 103.708 102.277 102.499 101.728 101.267C100.366 101.192 99.004 101.085 97.6388 101.056C96.4035 101.027 95.9777 101.478 95.9387 102.736C95.9127 103.533 96.0688 104.248 96.7124 104.82C97.5998 105.61 98.3962 106.51 99.3193 107.255C101.679 109.15 102.749 111.588 102.586 114.581C102.567 114.913 102.381 115.235 102.349 115.566C102.274 116.369 102.833 116.857 103.6 116.727C104.514 116.571 105.424 116.428 106.341 116.317C106.851 116.252 107.384 116.333 107.875 116.22C108.125 116.158 108.314 115.817 108.551 115.576ZM64.7138 103.588C64.5806 103.312 64.4766 102.98 64.2816 102.714C63.6249 101.816 62.8058 101.01 62.2922 100.042C61.5543 98.6439 60.5207 98.4261 59.0904 98.6179C56.568 98.9527 54.0293 99.1835 51.4873 99.385C49.4362 99.5476 48.3245 100.5 48.2172 102.444C48.2075 102.652 48.5879 103.032 48.8349 103.084C52.4138 103.783 55.4497 105.493 58.1412 107.908C58.3948 108.136 59.0481 108.285 59.2724 108.126C61.0082 106.917 62.6888 105.633 64.3661 104.339C64.5416 104.202 64.5806 103.89 64.7138 103.588ZM74.3225 117.855C74.3225 117.842 74.3225 117.832 74.3225 117.819C76.7214 117.819 79.1204 117.832 81.5225 117.809C82.0621 117.803 82.3156 117.367 82.0946 116.925C81.1226 114.968 80.115 113.024 79.0586 111.107C78.5872 110.258 78.2036 110.229 77.4658 110.785C75.7755 112.049 75.1742 112.065 73.3831 110.921C72.8078 110.551 72.1901 110.245 71.644 109.839C70.6754 109.124 69.7555 109.163 68.8388 109.894C68.309 110.323 67.8084 110.788 67.2688 111.201C66.3326 111.913 65.5915 112.917 64.3531 113.193C63.5112 113.385 63.5729 114.016 63.7582 114.604C63.9597 115.245 64.2685 115.856 64.548 116.476C64.8536 117.146 65.377 117.562 66.1116 117.66C66.7877 117.747 67.4671 117.838 68.1497 117.845C70.2073 117.868 72.2649 117.855 74.3225 117.855ZM57.2116 117.227C57.2148 117.182 57.2181 117.13 57.2214 117.081C58.2485 117.081 59.2757 117.114 60.2964 117.068C60.9497 117.042 61.1675 116.541 61.0667 115.986C60.9919 115.592 60.8002 115.179 60.5499 114.871C58.2713 112.039 56.2396 109.033 52.8395 107.258C51.289 106.452 49.7255 105.984 48.0938 105.574C47.5282 105.434 47.1218 105.532 46.8715 106.133C45.6006 109.205 44.9472 112.459 44.0598 115.644C43.8583 116.369 44.1996 116.831 44.9862 116.782C47.0276 116.659 49.0494 117.214 51.0973 116.857C51.8416 116.727 52.6348 116.831 53.3987 116.886C54.6729 116.977 55.9439 117.11 57.2116 117.227ZM97.629 98.5301C97.629 98.5561 97.629 98.5821 97.6322 98.6114C99.2608 98.6114 100.893 98.5951 102.521 98.6212C103.025 98.6277 103.496 98.7089 103.769 99.2908C105.294 102.512 106.776 105.756 108.232 109C109.399 111.597 110.817 113.954 112.51 116.2C113.046 116.912 113.118 117.79 112.51 118.248C111.918 118.69 111.051 119.347 110.524 119.187C109.035 118.739 107.69 119.373 106.282 119.395C102.18 119.457 98.0711 119.568 93.9916 119.951C92.7077 120.072 91.3944 120.075 90.091 120.276C87.7408 120.634 85.3191 120.608 82.9235 120.627C80.1215 120.65 77.313 120.546 74.5078 120.504C71.0037 120.455 67.4606 120.738 64.0117 120.28C61.2715 119.909 58.5703 120 55.8528 119.867C55.2547 119.838 54.6598 119.74 54.0617 119.743C49.888 119.76 45.6883 119.1 41.5601 120.254C40.741 120.478 39.9739 119.945 39.8893 119.116C39.8373 118.619 39.795 118.024 40.0096 117.608C40.8905 115.94 41.2838 114.104 41.9534 112.368C43.2309 109.055 44.4239 105.714 45.4901 102.324C45.8964 101.036 46.4002 99.7751 46.9041 98.5204C47.0178 98.2409 47.2843 97.9353 47.5574 97.815C49.2542 97.0836 50.9022 96.2645 52.8948 96.5473C54.2308 96.7358 55.6253 96.5473 56.9937 96.505C57.7999 96.4823 58.6028 96.2482 58.8791 95.4519C59.1586 94.649 57.8682 93.456 56.7662 93.378C56.3404 93.3455 55.9081 93.3813 55.479 93.3585C52.7323 93.2285 50.031 93.573 47.3136 93.9436C45.8866 94.1419 44.8432 94.3792 44.8919 96.1052C44.8984 96.401 44.5767 96.6968 44.4499 97.0089C42.6393 101.589 40.8482 106.179 39.0246 110.752C38.0787 113.115 37.0874 115.456 36.0927 117.799C35.4264 119.366 34.643 120.887 34.0514 122.48C33.3427 124.385 33.8563 125.068 35.8846 124.817C37.4872 124.619 39.08 124.346 40.702 124.346C45.2495 124.346 49.797 124.343 54.3413 124.349C54.9427 124.349 55.544 124.369 56.1356 124.44C60.0363 124.895 63.9337 125.292 67.8279 124.382C68.1529 124.307 68.5235 124.317 68.8518 124.382C72.5704 125.165 76.3313 124.869 80.0792 124.853C82.4586 124.843 84.8771 125.032 87.2045 124.661C88.8785 124.398 90.5428 124.525 92.1551 124.531C93.9429 124.538 95.7632 124.509 97.564 124.59C99.2445 124.661 100.935 124.411 102.625 124.349C105.96 124.223 109.299 124.128 112.634 124.015C114.347 123.956 116.06 123.894 117.769 123.819C119.365 123.754 119.557 123.511 118.969 121.921C118.556 120.809 117.903 119.786 117.493 118.674C116.352 115.573 114.915 112.592 113.58 109.585C111.814 105.62 109.936 101.706 108.369 97.6525C108.158 97.0999 107.771 96.6156 107.498 96.0825C107.059 95.2341 106.376 94.9805 105.43 94.87C101.062 94.3467 96.7221 94.7432 92.3729 95.0715C92.0576 95.0943 91.6837 95.2373 91.4594 95.4519C90.7313 96.167 90.013 96.9016 89.3791 97.698C88.8493 98.3611 89.0768 98.7934 89.9252 98.7739C92.4931 98.7187 95.061 98.6179 97.629 98.5301ZM78.493 54.212C78.4897 54.1893 78.4865 54.16 78.4865 54.1308C76.6922 54.2315 74.8946 54.4721 73.1035 54.4103C70.0025 54.3063 67.2753 55.0182 64.6391 56.7897C61.7656 58.7206 59.2529 60.8887 57.4781 63.8792C55.3847 67.4125 54.6111 71.2969 54.4648 75.3309C54.4323 76.3126 54.6859 77.3202 54.8972 78.2987C55.1539 79.4559 55.466 80.6066 55.8268 81.7378C56.5225 83.9221 57.1238 86.1488 58.3915 88.1056C58.9376 88.9507 59.4675 89.8089 59.9843 90.667C61.5478 93.2837 63.0106 95.9654 64.7009 98.5009C65.8256 100.194 67.3695 101.602 68.5365 103.269C70.0545 105.454 72.1934 106.751 74.4785 107.889C74.7581 108.025 75.2456 108.106 75.4537 107.96C76.8969 106.913 78.2979 105.805 79.7022 104.706C79.7542 104.667 79.7184 104.537 79.7509 104.456C80.7001 102.122 82.5399 100.464 84.2074 98.6797C86.4698 96.2645 88.4657 93.6413 90.1462 90.8003C91.2676 88.9085 92.2104 86.9126 93.2148 84.9558C93.3708 84.6567 93.4715 84.3187 93.5625 83.9936C94.2094 81.6175 95.1651 79.3356 95.2593 76.8132C95.3406 74.7458 96.2508 72.6882 95.2008 70.6273C95.1261 70.4843 95.1293 70.2958 95.1326 70.1235C95.2008 66.8469 93.7056 64.0092 92.5452 61.0902C91.8365 59.2991 90.494 57.9502 88.794 57.1018C87.5198 56.4647 86.5121 55.2262 84.9128 55.2944C83.6679 54.0917 82.0978 54.2023 80.5505 54.212C79.8647 54.2185 79.1789 54.212 78.493 54.212ZM77.7161 51.1987C78.831 51.1987 79.946 51.241 81.0609 51.1858C82.2116 51.1273 83.2257 51.4945 84.2887 51.8586C86.8014 52.7135 89.1873 53.7894 91.3132 55.379C93.5268 57.0367 95.2528 59.0228 96.4003 61.6363C97.4827 64.1002 98.0971 66.6714 98.5424 69.2458C99.0137 71.9796 99.2511 74.8303 98.3442 77.5933C98.2109 77.9931 98.1361 78.4384 98.1686 78.8513C98.3409 81.1624 97.4275 83.194 96.6018 85.2614C95.8087 87.2507 94.7165 89.0743 93.6536 90.9173C93.1237 91.8405 93.5365 92.4971 94.554 92.3638C98.8317 91.7982 103.119 92.2143 107.403 92.1168C108.983 92.081 108.863 92.2143 109.513 93.7388C110.264 95.4941 110.862 97.3014 111.86 98.982C112.975 100.854 113.618 103.006 114.532 105.005C115.913 108.028 117.36 111.022 118.764 114.032C119.339 115.271 119.908 116.509 120.441 117.767C121.235 119.643 121.846 121.603 122.954 123.338C123.331 123.93 123.263 124.476 122.649 124.892C122.58 124.938 122.486 124.957 122.421 125.012C120.256 126.735 120.256 126.735 117.639 126.329C117.145 126.251 116.547 125.981 116.167 126.157C114.756 126.82 113.297 126.443 111.87 126.569C109.741 126.758 107.621 126.979 105.499 127.171C104.562 127.252 103.626 127.346 102.684 127.35C97.4535 127.369 92.2233 127.34 86.9899 127.369C81.6102 127.398 76.2306 127.486 70.8477 127.522C64.9479 127.564 59.0482 127.597 53.1451 127.587C50.9218 127.58 48.6951 127.398 46.4717 127.385C44.5019 127.376 42.5353 127.528 40.5655 127.532C38.7679 127.532 36.9769 127.402 35.1793 127.372C33.6743 127.346 32.6081 126.472 31.6265 125.526C30.7878 124.72 30.9243 123.592 31.2689 122.63C32.0685 120.393 32.9689 118.186 33.8823 115.989C34.3374 114.897 34.9355 113.866 35.4166 112.784C36.3787 110.612 37.3344 108.438 38.2445 106.244C38.7321 105.07 39.1677 103.871 39.535 102.655C40.2014 100.445 41.1148 98.3546 42.1452 96.297C42.441 95.7086 42.4248 94.9708 42.5743 94.3044C42.9189 92.8059 43.9753 91.7657 45.5583 91.5934C48.2693 91.2976 50.99 91.0961 53.7075 90.8653C54.1366 90.8263 54.5689 90.8718 54.9947 90.8198C55.8528 90.7158 56.1812 90.147 55.8301 89.3701C55.2092 87.9788 54.5786 86.5908 53.9252 85.2126C52.677 82.5699 52.0627 79.7257 51.4841 76.9042C51.172 75.3602 51.2793 73.6471 51.5718 72.0803C52.0789 69.3531 52.4983 66.5804 53.8668 64.0677C55.7553 60.5864 57.9072 57.3098 61.2357 55.0734C64.0052 53.2108 67.0055 51.7579 70.4771 51.7091C71.1564 51.6993 71.8359 51.7546 72.4112 51.2118C72.6127 51.02 73.0385 50.9875 73.3571 51.0037C74.8068 51.0752 76.2598 51.1857 77.7096 51.2833C77.7128 51.254 77.7128 51.2247 77.7161 51.1987Z" fill="#518000"/>
<path d="M84.6399 72.0414C84.6659 69.6425 83.4567 66.3464 82.1044 64.6821C81.4771 63.9117 80.7197 63.3981 79.7283 63.3396C77.3457 63.1999 74.9565 63.0601 72.5706 63.0276C72.0342 63.0178 71.4101 63.3526 70.968 63.7037C68.5236 65.628 66.5635 67.8287 65.7769 71.037C65.2243 73.2831 66.2352 75.2107 66.3294 77.3008C66.3457 77.6454 66.7943 77.9867 67.0673 78.3085C69.5605 81.26 72.6128 82.5374 77.2904 82.1116C80.8173 81.7963 82.8521 79.6867 83.8598 76.5239C84.3441 75.0059 84.4188 73.3579 84.6399 72.0414ZM87.7474 71.3978C87.5199 73.6277 87.5654 75.5618 87.0843 77.3496C86.5837 79.2024 85.6866 80.9382 84.0971 82.2709C82.1857 83.8702 79.9689 84.6275 77.6155 85.0436C76.4615 85.2419 75.2328 85.3199 74.0886 84.7543C73.7083 84.5658 73.2694 84.4358 72.8533 84.4195C69.9148 84.3025 67.8638 82.4042 65.6664 80.8472C64.4702 79.9988 63.508 78.8773 63.4885 77.252C61.9607 74.3395 62.5913 71.4173 63.6607 68.5958C64.5644 66.1969 65.9492 64.058 68.2441 62.6798C68.5366 62.501 68.8162 62.2962 69.073 62.0719C70.5 60.8367 72.135 60.3004 74.0398 60.4531C75.7431 60.5897 77.4594 60.6222 79.166 60.6677C81.6299 60.7327 83.3137 62.4522 85.3095 63.5152C85.9271 64.8219 86.704 66.0864 87.1201 67.4581C87.5362 68.8266 87.5881 70.3056 87.7474 71.3978Z" fill="#518000"/>
<path d="M83.3331 94.233C83.1511 93.9372 82.9496 93.7552 82.9593 93.5926C82.9756 93.3521 83.0991 93.0856 83.2584 92.9003C85.4362 90.3258 87.0387 87.3548 89.0151 84.6438C89.2979 84.2538 89.6815 83.7337 90.2503 84.062C90.8647 84.4098 90.842 85.0339 90.6242 85.645C89.8083 87.9366 88.1602 89.666 86.6422 91.4733C86.0376 92.1916 85.3745 92.8677 84.6789 93.4919C84.3311 93.8039 83.8467 93.9599 83.3331 94.233Z" fill="#518000"/>
<path d="M78.6652 99.6418C78.5936 99.0014 78.8114 98.4293 79.5721 98.3643C79.7834 98.3513 80.0954 98.4911 80.2092 98.6601C80.6025 99.2322 80.5115 99.8076 79.9719 100.243C79.7281 100.441 79.3965 100.542 79.1104 100.688C78.9544 100.344 78.7042 100.003 78.6652 99.6418Z" fill="#518000"/>
<path d="M258.624 112.554C258.988 112.511 259.144 112.537 259.244 112.476C259.686 112.208 259.922 111.465 259.701 110.93C259.641 110.784 259.42 110.631 259.259 110.611C258.825 110.553 258.428 111.02 258.34 111.67C258.315 111.854 258.353 112.065 258.418 112.24C258.481 112.411 258.624 112.554 258.624 112.554ZM261.604 111.447C261.664 111.743 261.679 111.869 261.714 111.992C261.815 112.328 262.026 112.622 262.39 112.494C262.648 112.406 262.975 112.14 263.022 111.904C263.105 111.477 263.05 111.005 262.95 110.576C262.912 110.403 262.608 110.194 262.417 110.187C262.206 110.177 261.868 110.327 261.792 110.496C261.644 110.832 261.639 111.231 261.604 111.447ZM254.025 111.598C253.413 111.706 252.833 111.801 252.263 111.922C252.187 111.939 252.085 112.1 252.092 112.188C252.097 112.278 252.208 112.434 252.29 112.444C253.184 112.559 254.083 112.69 254.984 112.725C255.258 112.737 255.569 112.501 255.81 112.311C255.923 112.223 255.968 111.947 255.92 111.793C255.87 111.643 255.662 111.437 255.531 111.44C255.014 111.455 254.502 111.54 254.025 111.598ZM266.61 109.637C265.099 109.805 265.096 109.81 265.006 111.239C264.993 111.434 264.983 111.643 264.913 111.821C264.744 112.233 264.981 112.466 265.282 112.604C266.921 113.362 268.164 112.67 268.332 110.922C268.395 110.282 268.003 109.712 267.39 109.627C267.069 109.579 266.733 109.635 266.61 109.637ZM271.784 109.441C270.205 109.589 270.192 109.607 270.122 111.118C270.119 111.186 270.089 111.249 270.087 111.317C270.049 112.338 270.267 112.645 271.226 112.77C271.615 112.818 272.017 112.762 272.411 112.737C273.928 112.652 275.441 112.532 276.958 112.479C277.934 112.449 278.921 112.574 279.897 112.524C282.468 112.391 285.038 112.203 287.612 112.039C289.909 111.891 292.173 111.199 294.508 111.63C295.615 111.108 296.817 111.397 297.97 111.251C299.149 111.106 300.37 110.885 301.527 111.038C303.251 111.266 304.956 111.068 306.655 111.01C309.015 110.925 311.335 110.448 313.75 110.669C316.022 110.872 318.334 110.378 320.641 110.591C320.965 110.619 321.301 110.538 321.628 110.483C322.689 110.3 323.151 109.845 323.209 108.796C323.247 108.02 323.136 107.242 323.169 106.466C323.254 104.315 323.116 104.215 321.035 104.508C318.941 104.805 316.838 105.043 314.734 105.241C312.829 105.42 310.913 105.48 309.005 105.651C308.099 105.731 307.205 105.984 306.294 106.082C304.338 106.293 302.373 106.436 300.412 106.642C298.504 106.84 296.596 107.092 294.686 107.295C294.099 107.358 293.491 107.425 292.914 107.343C291.709 107.167 290.561 107.29 289.422 107.707C289.002 107.862 288.493 108.045 288.096 107.943C286.816 107.609 285.603 108.053 284.361 108.108C283.778 108.136 283.437 108.382 283.221 108.992C282.88 109.956 282.036 110.119 281.547 109.273C281.107 108.507 280.625 108.455 279.93 108.615C279.802 108.645 279.669 108.658 279.538 108.673C279.071 108.721 278.868 108.954 278.835 109.446C278.793 110.029 278.68 110.616 278.527 111.183C278.426 111.545 277.703 111.593 277.553 111.244C277.344 110.767 277.259 110.235 277.058 109.753C276.945 109.471 276.712 109.04 276.523 109.037C276.102 109.027 275.657 109.208 275.253 109.381C275.13 109.436 275.125 109.737 275.04 109.908C274.495 110.995 274.043 111.018 273.317 109.923C273.104 109.594 272.886 109.461 272.547 109.446C272.218 109.431 271.887 109.441 271.784 109.441ZM231.519 86.9029C231.469 86.9079 231.414 86.9154 231.361 86.9205C231.462 87.7765 231.524 88.6326 231.667 89.4811C232.24 92.9279 232.436 96.4324 233.382 99.8289C233.874 101.599 234.025 103.464 234.296 105.289C234.544 106.994 234.934 108.653 235.584 110.257C235.822 110.845 236.199 111.118 236.769 111.091C237.559 111.05 238.348 110.91 239.141 110.852C241.167 110.706 243.15 110.285 245.234 110.45C246.983 110.591 248.831 110.292 250.541 109.843C251.63 109.552 252.712 109.326 253.817 109.163C254.078 109.125 254.351 109.122 254.603 109.05C257.61 108.173 260.748 108.143 263.816 107.659C266.339 107.26 268.924 107.29 271.457 106.848C271.781 106.793 272.115 106.77 272.446 106.755C273.564 106.7 274.688 106.712 275.8 106.594C278.7 106.291 281.594 105.932 284.494 105.595C284.953 105.543 285.453 105.372 285.869 105.487C287.21 105.854 288.5 105.505 289.803 105.369C292.437 105.101 295.063 104.739 297.698 104.518C298.56 104.446 299.082 104.32 299.064 103.316C299.059 102.944 299.438 102.809 299.81 102.959C300.053 103.06 300.379 103.125 300.505 103.316C301.012 104.084 301.753 104.082 302.549 104.157C303.156 104.215 303.671 104.325 304.253 103.984C304.625 103.763 305.187 103.612 305.584 103.72C306.859 104.066 308.059 103.637 309.296 103.582C312.583 103.424 315.856 102.899 319.16 103.1C319.288 103.108 319.456 103.105 319.541 103.032C320.204 102.455 321.053 102.633 321.811 102.447C322.253 102.342 322.684 102.179 323.109 102.021C323.663 101.82 324.193 101.521 324.76 101.4C326.191 101.097 327.231 100.228 328.215 99.2239C328.913 98.511 329.254 97.7101 329.053 96.716C328.381 93.3847 328.782 89.9932 328.504 86.6418C328.383 85.1933 328.252 83.7147 328.426 82.2863C328.649 80.4662 328.36 78.7366 328.004 76.9919C327.66 75.3074 327.145 73.638 327.01 71.9384C326.693 67.9017 325.797 63.9654 324.904 60.0492C324.216 57.0192 323.947 56.6527 320.736 57.0317C318.773 57.2602 316.83 57.6995 314.867 57.953C311.317 58.4049 307.758 58.7915 304.203 59.2032C303.744 59.2534 303.279 59.276 302.817 59.3162C300.643 59.4994 298.472 59.6801 296.3 59.8659C295.858 59.9036 295.607 60.1019 295.519 60.5839C295.401 61.2266 295.208 61.8617 294.982 62.4793C294.947 62.5772 294.525 62.6299 294.352 62.5496C294.139 62.4517 293.863 62.2056 293.845 62.0023C293.707 60.4458 292.633 60.1873 291.38 60.1622C290.92 60.1521 290.458 60.1446 290.002 60.1948C288.302 60.3881 286.64 60.7622 284.966 61.1086C281.604 61.8015 278.173 62.1403 274.769 62.6273C273.722 62.7805 272.68 63.0315 271.628 63.0918C269.964 63.1897 268.427 63.865 266.806 64.0684C260.432 64.8667 254.013 65.3662 247.714 66.639C245.181 67.1511 242.668 67.3168 240.12 67.4825C237.871 67.6256 235.642 67.9846 233.4 68.2356C230.711 68.5419 231.005 68.3912 230.912 71.1652C230.882 72.0187 230.982 72.8748 230.987 73.7309C230.99 74.5869 230.922 75.443 230.934 76.2965C230.952 77.4111 231.183 78.5458 231.015 79.6253C230.867 80.5692 230.894 81.4579 230.995 82.3742C231.163 83.8854 231.346 85.3917 231.519 86.9029ZM304.313 57.117C308.094 56.7154 311.897 56.3388 315.69 55.892C317.327 55.6987 318.939 55.3046 320.576 55.0937C321.484 54.9757 322.423 54.9782 323.34 55.051C324.454 55.1363 325.376 55.6686 325.853 56.7204C326.176 57.4309 326.455 58.184 326.613 58.9421C327.027 60.9479 327.233 63.0039 327.763 64.9721C328.591 68.0498 328.624 71.2606 329.382 74.3233C329.781 75.935 330.145 77.5316 330.349 79.1709C330.615 81.3323 330.426 83.4812 330.263 85.6427C330.175 86.8151 330.384 88.0125 330.477 89.1974C330.698 92.0316 330.939 94.8609 331.144 97.6951C331.165 97.9938 331.089 98.3603 330.924 98.6038C329.839 100.16 328.9 101.867 327.035 102.686C326.862 102.764 326.729 102.937 326.558 103.027C326.053 103.291 325.232 103.085 325.059 103.775C324.939 104.247 325.112 104.822 325.245 105.324C325.702 107.041 325.132 108.723 325.064 110.42C325.007 111.811 324.193 112.627 322.765 112.675C320.267 112.755 317.779 113.245 315.266 112.896C314.488 112.785 313.687 112.765 312.901 112.813C311.393 112.908 309.912 113.104 308.373 112.978C306.942 112.863 305.478 113.209 304.025 113.285C302.453 113.367 300.877 113.541 299.305 113.227C299.052 113.177 298.778 113.245 298.514 113.27C296.27 113.483 294.028 113.701 291.786 113.912C290.805 114.005 289.828 114.274 288.837 113.935C288.661 113.872 288.443 113.92 288.247 113.932C286.201 114.075 284.16 114.259 282.114 114.362C280.675 114.429 279.229 114.342 277.791 114.409C275.547 114.52 273.305 114.879 271.071 114.806C268.844 114.738 266.635 115.185 264.393 114.806C263.115 114.59 261.76 114.808 260.444 114.896C258.15 115.052 255.875 115.336 253.591 114.633C252.747 114.372 251.756 114.64 250.832 114.595C248.67 114.49 246.509 114.392 244.355 114.198C242.394 114.02 240.449 113.704 238.491 113.475C237.657 113.378 236.819 113.312 235.98 113.302C234.8 113.287 234.301 112.983 233.922 111.916C232.84 108.859 231.969 105.761 231.768 102.495C231.72 101.722 231.371 100.974 231.223 100.203C230.967 98.8373 230.708 97.4691 230.543 96.0909C230.071 92.1521 229.654 88.2058 229.192 84.2645C229.039 82.9516 228.873 81.6511 229.145 80.3307C229.222 79.9516 229.117 79.5374 229.114 79.1407C229.092 76.1709 229.077 73.1986 229.059 70.2263C229.054 69.3427 229.273 68.5444 229.878 67.8666C230.176 67.5277 230.41 67.1285 230.724 66.8022C230.94 66.5762 231.221 66.3227 231.507 66.2674C233.829 65.8281 236.156 65.4014 238.491 65.0399C239.189 64.9344 239.922 65.07 240.64 65.07C241.099 65.0725 241.584 65.1152 242.015 64.9922C243.22 64.6533 244.463 64.7486 245.681 64.583C246.657 64.4524 247.674 64.4851 248.557 63.9228C248.716 63.8248 248.939 63.8173 249.132 63.7897C251.824 63.4508 254.517 63.142 257.206 62.773C261.059 62.2433 264.943 61.9772 268.776 61.2015C271.071 60.7345 273.44 60.4785 275.798 60.2701C276.772 60.1797 277.778 60.2048 278.67 59.6149C278.968 59.4166 279.44 59.4643 279.834 59.4141C282.651 59.0375 285.465 58.6283 288.292 58.3045C292.042 57.8752 295.801 57.466 299.564 57.1422C301.125 57.0091 302.707 57.117 304.313 57.117Z" fill="#518000"/>
<path d="M258.971 76.3668C259.064 77.258 258.888 77.5742 258.117 77.7073C256.636 77.9608 255.283 78.7466 253.729 78.7114C253.059 78.6964 252.692 79.1256 252.474 79.7733C251.871 81.5457 250.812 83.0469 249.519 84.3824C248.929 84.9925 248.259 85.5046 247.352 85.5673C246.291 85.6376 245.693 85.1582 245.703 84.0887C245.706 83.5114 245.884 82.9239 246.062 82.3641C246.24 81.8017 246.529 81.2746 246.753 80.7248C247.189 79.6528 247.076 79.5073 245.876 79.6102C245.151 79.6729 244.43 79.7733 243.707 79.8562C243.308 79.9014 242.914 79.9867 242.52 79.9792C241.616 79.9641 240.64 79.678 239.824 79.929C239.068 80.1575 238.483 80.9432 237.823 81.4829C237.62 81.6486 237.431 81.8344 237.21 81.975C236.867 82.1934 236.498 82.3591 236.111 82.0603C235.639 81.6938 235.754 81.2319 235.985 80.8127C236.174 80.4788 236.435 80.1875 236.688 79.8988C237.74 78.6888 237.682 76.9115 236.445 75.8647C235.795 75.3149 235.335 74.7525 235.325 73.884C235.32 73.4396 235.719 73.1208 236.131 73.3091C236.899 73.6605 237.705 73.9769 238.378 74.4664C239.196 75.0613 240.085 75.0513 240.813 74.6622C242.098 73.9743 243.474 73.9668 244.832 73.7584C245.221 73.6982 245.615 73.6329 245.984 73.5049C246.077 73.4722 246.175 73.1334 246.112 73.033C245.939 72.7568 245.671 72.5484 245.467 72.2949C244.287 70.8288 244.729 68.9786 246.454 68.2305C246.662 68.1402 247.001 68.1301 247.184 68.2406C248.583 69.074 250.084 69.8146 250.44 71.6623C250.513 72.0338 250.807 72.3551 250.95 72.7192C251.161 73.2514 251.562 73.3618 252.067 73.3091C252.855 73.2262 253.646 73.0907 254.437 73.063C255.86 73.0204 257.193 73.2338 258.16 74.4815C258.624 75.0814 258.971 75.6839 258.971 76.3668Z" fill="#518000"/>
<path d="M252.807 95.2123C257.484 94.7278 262.158 94.2132 266.838 93.7839C268.404 93.6408 269.988 93.7086 271.565 93.6785C272.288 93.666 273.013 93.6383 273.736 93.6383C274.13 93.6383 274.587 93.5656 274.894 93.7413C275.177 93.9045 275.406 94.3388 275.449 94.6802C275.479 94.9061 275.2 95.2801 274.961 95.4157C274.627 95.599 274.208 95.6567 273.819 95.7044C270.47 96.111 267.121 96.5128 263.737 96.5077C263.21 96.5077 262.683 96.6081 262.156 96.6709C255.441 97.4491 248.728 98.2148 242.017 99.0206C240.579 99.1939 239.161 99.5127 237.735 99.7687C236.811 99.9319 236.419 99.7938 236.256 99.229C235.965 98.2198 236.321 97.4692 237.26 97.2207C237.835 97.07 238.423 96.9571 239.013 96.8868C243.612 96.3421 248.213 95.8123 252.815 95.2776C252.812 95.255 252.81 95.2324 252.807 95.2123Z" fill="#518000"/>
<path d="M272.981 101.004C272.326 101.056 271.236 101.114 270.109 101.046C269.08 100.984 267.963 101.277 266.888 101.438C266.015 101.574 265.164 101.85 264.295 102.018C263.258 102.219 262.196 102.015 261.18 102.088C260.248 102.154 259.352 102.525 258.335 102.568C256.252 102.663 254.181 103.138 252.11 103.474C250.812 103.685 249.516 103.933 248.218 104.162C246.998 104.378 245.706 104.24 244.578 104.943C244.373 105.068 244.064 105.073 243.805 105.068C241.897 105.035 240.07 105.666 238.174 105.713C237.64 105.726 237.291 105.462 237.143 104.97C237.025 104.581 237.01 104.162 237.421 103.913C237.921 103.615 238.415 103.195 238.958 103.105C240.835 102.789 242.736 102.608 244.624 102.352C246.253 102.131 247.885 102.013 249.484 101.463C250.774 101.021 252.205 100.964 253.583 100.798C260.02 100.032 266.454 99.2841 272.893 98.5385C273.546 98.4632 274.209 98.4005 274.866 98.403C275.936 98.403 276.252 98.7595 276.242 99.8314C276.234 100.273 276.069 100.595 275.599 100.682C275.532 100.695 275.469 100.715 275.404 100.723C274.746 100.798 274.088 100.873 272.981 101.004Z" fill="#518000"/>
<path d="M313.125 66.7897C313.13 66.7872 313.135 66.7872 313.138 66.7872C313.253 67.7713 313.369 68.7554 313.482 69.7394C313.544 70.3068 313.863 70.5528 314.421 70.46C315.909 70.2139 317.398 69.9503 318.887 69.6968C319.464 69.5989 319.66 69.2349 319.557 68.7052C319.185 66.7697 318.816 64.8341 318.384 62.9112C318.339 62.7179 317.882 62.4819 317.626 62.492C316.77 62.5246 315.899 62.5798 315.071 62.7706C312.475 63.3731 312.671 62.6802 312.987 65.6099C313.032 66.004 313.08 66.3956 313.125 66.7897ZM317.694 59.8234C318.681 59.5548 318.924 59.6527 319.416 60.5865C319.843 61.3949 320.242 62.2007 320.335 63.1572C320.486 64.6634 320.732 66.1621 321.015 67.6508C321.209 68.675 321.568 69.6692 321.786 70.6909C321.964 71.5344 321.317 72.4005 320.513 72.1921C319.19 71.8482 318.136 72.6917 316.903 72.7168C315.663 72.7419 314.426 73.0431 313.196 73.2691C312.196 73.4574 311.23 72.772 311.396 71.7929C311.785 69.5311 311.082 67.3571 310.981 65.1379C310.974 64.8768 310.903 64.6157 310.876 64.3547C310.567 61.5179 310.469 62.148 313.118 60.825C313.866 60.4535 314.719 60.2702 315.543 60.087C316.243 59.9338 316.974 59.9062 317.694 59.8234Z" fill="#518000"/>
<path d="M314.234 84.8695C312.263 85.1005 310.29 85.3138 308.322 85.5674C307.483 85.6728 306.66 85.7406 305.842 86.1373C305.171 86.4611 304.283 86.4485 303.512 86.3858C303.168 86.3557 302.701 85.8787 302.593 85.5147C302.485 85.1457 302.611 84.503 302.882 84.2695C303.454 83.78 304.132 83.3181 304.988 83.4461C305.116 83.4662 305.252 83.5164 305.377 83.5039C309.911 82.9742 314.445 82.4646 318.971 81.8872C320.191 81.729 321.426 81.7842 322.634 81.5533C323.287 81.4278 323.535 82.0252 323.914 82.344C324.286 82.6578 324.11 83.308 323.62 83.4436C322.671 83.7022 321.712 83.9657 320.738 84.0988C318.577 84.3975 316.406 84.6185 314.234 84.8695Z" fill="#518000"/>
<path d="M256.457 91.4417C253.048 91.7982 249.639 92.1145 246.237 92.5262C244.141 92.7823 242.06 93.1538 239.984 93.5279C239.088 93.686 238.217 94.0023 237.326 94.1956C236.846 94.2986 236.394 94.1982 236.221 93.6283C235.98 92.8401 236.168 92.22 236.813 91.9589C237.361 91.738 237.936 91.5597 238.513 91.4568C239.816 91.2284 241.126 91.0753 242.432 90.8569C243.705 90.6435 244.972 90.4075 246.24 90.1514C247.982 89.7975 249.702 89.5539 251.514 89.6845C253.141 89.805 254.803 89.4836 256.447 89.3631C256.839 89.333 257.243 89.2602 257.625 89.323C258.117 89.4033 258.436 89.7497 258.536 90.2543C258.651 90.8367 258.23 91.1254 257.823 91.3087C257.411 91.4919 256.929 91.5271 256.477 91.625C256.472 91.5622 256.465 91.502 256.457 91.4417Z" fill="#518000"/>
<path d="M312.241 78.6939C310.667 78.8772 309.086 79.0002 307.522 79.2638C306.204 79.4872 304.906 79.3391 303.603 79.2538C302.757 79.1986 302.413 78.8747 302.395 78.2471C302.373 77.5241 302.757 77.0622 303.6 76.9643C304.71 76.8363 305.845 76.6405 306.944 76.7384C308.948 76.9141 310.873 76.4747 312.809 76.186C314.669 75.9099 316.516 75.6463 318.399 75.6338C319.029 75.6287 319.838 76.3518 319.76 76.9668C319.72 77.2881 319.406 77.6948 319.11 77.8379C318.711 78.0237 318.208 77.9986 317.752 78.0538C315.914 78.2697 314.079 78.483 312.241 78.6939Z" fill="#518000"/>
<path d="M322.768 94.3513C322.8 95.147 322.8 96.1361 322.898 97.1127C322.953 97.6499 322.856 98.1395 322.341 98.1897C321.959 98.2298 321.417 97.9863 321.171 97.6851C320.81 97.2407 320.554 96.6533 320.428 96.0884C320.134 94.7378 319.908 93.3672 319.72 91.9965C319.617 91.2233 320.054 90.9396 320.82 91.1932C321.071 91.2735 321.312 91.384 321.56 91.4618C322.125 91.64 322.439 91.9764 322.479 92.599C322.509 93.1237 322.645 93.6408 322.768 94.3513Z" fill="#518000"/>
<path d="M326.931 95.9932C326.957 96.189 326.987 96.3848 326.999 96.5806C327.052 97.4442 326.693 98.3153 326.311 98.2124C325.654 98.0366 325.144 97.6199 324.933 96.9371C324.393 95.1999 323.864 93.4552 323.342 91.7105C323.312 91.6025 323.349 91.3741 323.412 91.349C323.826 91.1933 324.248 91.0276 324.682 90.9624C325.086 90.9046 325.463 91.0377 325.613 91.4996C326.09 92.9857 326.567 94.4719 327.049 95.9555C327.009 95.9681 326.972 95.9807 326.931 95.9932Z" fill="#518000"/>
<path d="M319.484 97.5067C319.532 97.8984 319.64 98.182 319.572 98.4205C319.476 98.777 319.333 99.1786 319.075 99.4171C318.678 99.7886 318.354 99.3242 318.061 99.1259C317.503 98.7519 317.024 98.3402 317.292 97.4992C317.388 97.203 317.092 96.7963 317.026 96.4323C316.815 95.2649 316.592 94.1001 316.459 92.9227C316.431 92.6717 316.705 92.265 316.946 92.1445C317.144 92.0466 317.548 92.2072 317.774 92.3754C318.081 92.5989 318.447 92.8951 318.532 93.229C318.909 94.685 319.195 96.1637 319.484 97.5067Z" fill="#518000"/>
<path d="M303.937 95.8751C303.874 95.3529 303.774 94.8308 303.764 94.3086C303.754 93.6986 304.171 93.4049 304.816 93.5028C305.694 93.6359 305.983 93.8567 306.103 94.7153C306.312 96.2115 306.472 97.7152 306.623 99.2164C306.678 99.7536 306.56 100.293 305.985 100.494C305.559 100.645 304.838 100.07 304.695 99.4926C304.391 98.2976 304.13 97.0926 303.852 95.8926C303.879 95.8851 303.907 95.8801 303.937 95.8751Z" fill="#518000"/>
<path d="M307.28 96.0231C307.25 95.4282 307.185 94.8407 307.205 94.2583C307.215 93.8968 307.8 93.5956 308.119 93.7789C308.867 94.2081 309.55 94.7127 309.673 95.6692C309.841 96.9746 310.032 98.275 310.182 99.5804C310.273 100.371 310.067 100.78 309.62 100.858C309.191 100.931 308.33 100.306 308.207 99.8113C307.893 98.5511 307.589 97.2859 307.28 96.0231Z" fill="#518000"/>
<path d="M313.389 94.123C313.389 94.113 313.434 93.7866 313.557 93.4954C313.768 92.9908 314.207 92.8929 314.651 93.2268C315.179 93.6184 315.643 94.0025 315.774 94.7556C315.977 95.9079 316.333 97.0325 316.662 98.1597C316.833 98.7446 316.451 99.0559 316.1 99.2944C315.902 99.4249 315.462 99.3697 315.231 99.2316C314.92 99.0484 314.566 98.7446 314.473 98.4208C314.087 97.1028 313.793 95.7573 313.389 94.123Z" fill="#518000"/>
<path d="M312.836 97.5067C312.896 98.0339 313.007 98.5585 312.999 99.0832C312.994 99.3619 312.851 99.7886 312.65 99.8765C312.417 99.9794 312.023 99.8464 311.746 99.7158C311.071 99.397 310.915 98.7267 310.802 98.069C310.612 96.9745 310.639 95.8473 310.059 94.823C309.823 94.4013 310.022 93.9018 310.464 93.6131C310.933 93.3068 311.372 93.4875 311.711 93.8339C311.977 94.1026 312.253 94.4289 312.349 94.7779C312.59 95.6665 312.733 96.5854 312.914 97.4916C312.886 97.4966 312.861 97.5017 312.836 97.5067Z" fill="#518000"/>
<path d="M297.169 81.837C297.804 81.847 298.446 82.3466 298.401 82.7884C298.374 83.0319 298.06 83.3784 297.816 83.4386C297.294 83.5667 296.792 83.0972 296.812 82.5173C296.822 82.2613 297.068 82.0177 297.169 81.837Z" fill="#518000"/>
<path d="M283.512 103.138C283.304 102.957 282.915 102.766 282.774 102.465C282.576 102.033 283.071 101.411 283.598 101.343C284.037 101.288 284.378 101.461 284.476 101.93C284.582 102.432 284.157 103.025 283.512 103.138Z" fill="#518000"/>
<path d="M299.862 99.4698C299.016 99.5501 298.574 99.269 298.504 98.7469C298.451 98.3703 298.777 98.054 299.234 98.0389C299.92 98.0088 300.459 98.3151 300.366 98.7569C300.301 99.0582 299.985 99.3066 299.862 99.4698Z" fill="#518000"/>
<path d="M299.285 88.7682C299.174 88.9062 299.044 89.2351 298.805 89.343C298.376 89.5414 297.711 89.1848 297.555 88.7355C297.419 88.3514 297.623 88.1105 297.989 88.0351C298.685 87.892 299.141 88.1054 299.285 88.7682Z" fill="#518000"/>
<path d="M299.91 93.6132C299.782 93.7513 299.626 94.0701 299.388 94.1504C298.891 94.3161 298.444 93.9496 298.334 93.2919C298.311 93.1438 298.547 92.8375 298.713 92.7948C299.375 92.6191 299.785 92.8827 299.91 93.6132Z" fill="#518000"/>
</svg>
