<svg width="37" height="37" viewBox="0 0 37 37" fill="none" xmlns="http://www.w3.org/2000/svg">
<rect x="3.62793" y="3.62793" width="33.3721" height="33.3721" rx="4" fill="#121212"/>
<rect x="0.5" y="0.5" width="32.3721" height="32.3721" rx="3.5" fill="#EFCB59" stroke="#121212"/>
<path d="M24.2171 22.9332L19.0506 28.3291C18.8471 28.5418 18.6053 28.7105 18.3392 28.8256C18.0732 28.9407 17.788 29 17.5 29C17.212 29 16.9268 28.9407 16.6607 28.8256C16.3946 28.7105 16.1529 28.5418 15.9493 28.3291L10.7828 22.9332C9.90064 22.0122 9.20082 20.9187 8.72334 19.7153C8.24586 18.5119 8.00007 17.2221 8 15.9195C7.99993 14.617 8.24559 13.3271 8.72294 12.1237C9.2003 10.9202 9.90001 9.82671 10.7821 8.90559C11.6642 7.98448 12.7115 7.25379 13.864 6.75525C15.0166 6.2567 16.2519 6.00007 17.4995 6C18.747 5.99993 19.9824 6.25642 21.135 6.75483C22.2876 7.25324 23.3349 7.98381 24.2171 8.90483C25.0994 9.8259 25.7993 10.9194 26.2767 12.1229C26.7542 13.3264 27 14.6163 27 15.919C27 17.2217 26.7542 18.5116 26.2767 19.7151C25.7993 20.9186 25.0994 22.0121 24.2171 22.9332ZM22.6679 10.5239C21.2973 9.09282 19.4383 8.28733 17.5 8.28733C15.5616 8.28733 13.7027 9.09129 12.3321 10.5224C10.9614 11.9534 10.1914 13.8944 10.1914 15.9182C10.1914 17.9421 10.9614 19.883 12.3321 21.3141L17.5 26.7085L22.6679 21.3156C23.3467 20.6071 23.8851 19.7659 24.2525 18.8401C24.6198 17.9142 24.8089 16.9219 24.8089 15.9198C24.8089 14.9176 24.6198 13.9253 24.2525 12.9995C23.8851 12.0736 23.3467 11.2324 22.6679 10.5239ZM17.5 18.9717C17.1107 18.9809 16.7236 18.9088 16.3614 18.7597C15.9992 18.6105 15.6692 18.3873 15.3908 18.1031C15.1123 17.819 14.891 17.4796 14.7399 17.1049C14.5888 16.7303 14.511 16.3278 14.5109 15.9213C14.5108 15.5148 14.5885 15.1123 14.7394 14.7376C14.8903 14.3628 15.1114 14.0233 15.3897 13.739C15.668 13.4547 15.9979 13.2313 16.3601 13.082C16.7222 12.9326 17.1093 12.8603 17.4985 12.8693C18.2622 12.887 18.989 13.2161 19.5233 13.7862C20.0575 14.3563 20.3567 15.1222 20.3569 15.9198C20.3571 16.7174 20.0582 17.4834 19.5243 18.0538C18.9903 18.6242 18.2637 18.9537 17.5 18.9717Z" fill="black"/>
</svg>
