<svg width="158" height="27" viewBox="0 0 158 27" fill="none" xmlns="http://www.w3.org/2000/svg">
<path d="M5.54625 27L7.9025 17.0171L0 10.3026L10.44 9.41447L14.5 0L18.56 9.41447L29 10.3026L21.0975 17.0171L23.4538 27L14.5 21.7066L5.54625 27Z" fill="#FCD400"/>
<path d="M37.5462 27L39.9025 17.0171L32 10.3026L42.44 9.41447L46.5 0L50.56 9.41447L61 10.3026L53.0975 17.0171L55.4538 27L46.5 21.7066L37.5462 27Z" fill="#FCD400"/>
<path d="M69.7375 27L72.175 17.0171L64 10.3026L74.8 9.41447L79 0L83.2 9.41447L94 10.3026L85.825 17.0171L88.2625 27L79 21.7066L69.7375 27Z" fill="#FCD400"/>
<path d="M102.546 27L104.903 17.0171L97 10.3026L107.44 9.41447L111.5 0L115.56 9.41447L126 10.3026L118.097 17.0171L120.454 27L111.5 21.7066L102.546 27Z" fill="#FCD400"/>
<path d="M134.546 27L136.903 17.0171L129 10.3026L139.44 9.41447L143.5 0L147.56 9.41447L158 10.3026L150.097 17.0171L152.454 27L143.5 21.7066L134.546 27Z" fill="#FCD400"/>
</svg>
